<svg width="97" height="97" viewBox="0 0 97 97" fill="none" xmlns="http://www.w3.org/2000/svg">
<path d="M62.5 12.4604C63.6046 12.4604 64.5 13.3559 64.5 14.4604L64.5 90.4604C64.5 91.565 63.6046 92.4604 62.5 92.4604L6.5 92.4604C5.39543 92.4604 4.5 91.565 4.5 90.4604L4.5 14.4604C4.5 13.3559 5.39544 12.4604 6.5 12.4604L62.5 12.4604Z" fill="#99BAF4"/>
<path fill-rule="evenodd" clip-rule="evenodd" d="M62.5 90.4604L62.5 14.4604L6.5 14.4604L6.5 90.4604L62.5 90.4604ZM64.5 14.4604C64.5 13.3559 63.6046 12.4604 62.5 12.4604L6.5 12.4604C5.39544 12.4604 4.5 13.3559 4.5 14.4604L4.5 90.4604C4.5 91.565 5.39543 92.4604 6.5 92.4604L62.5 92.4604C63.6046 92.4604 64.5 91.565 64.5 90.4604L64.5 14.4604Z" fill="#0E3781"/>
<path d="M72.5 82.4604L72.5 6.46045C72.5 5.35588 71.6046 4.46045 70.5 4.46045L27.8284 4.46045C27.298 4.46045 26.7939 4.66655 26.4188 5.04162L13.0835 18.3769C12.7085 18.752 12.5 19.2584 12.5 19.7889L12.5 82.4604C12.5 83.565 13.3954 84.4604 14.5 84.4604L70.5 84.4604C71.6046 84.4604 72.5 83.565 72.5 82.4604Z" fill="white"/>
<path fill-rule="evenodd" clip-rule="evenodd" d="M70.5 82.4604L70.5 6.46045L27.8284 6.46045L14.5 19.7889L14.5 82.4604L70.5 82.4604ZM27.833 6.45583C27.833 6.45583 27.8329 6.45595 27.8327 6.45617L27.833 6.45583ZM72.5 6.46045L72.5 82.4604C72.5 83.565 71.6046 84.4604 70.5 84.4604L14.5 84.4604C13.3954 84.4604 12.5 83.565 12.5 82.4604L12.5 19.7889C12.5 19.2584 12.7085 18.752 13.0835 18.3769L26.4188 5.04162C26.7939 4.66655 27.298 4.46045 27.8284 4.46045L70.5 4.46045C71.6046 4.46045 72.5 5.35588 72.5 6.46045Z" fill="#0E3781"/>
<path d="M84.5 48.4604C84.5 59.5061 75.5457 68.4604 64.5 68.4604C53.4543 68.4604 44.5 59.5061 44.5 48.4604C44.5 37.4148 53.4543 28.4604 64.5 28.4604C75.5457 28.4604 84.5 37.4148 84.5 48.4604Z" fill="white"/>
<path fill-rule="evenodd" clip-rule="evenodd" d="M64.5 66.4604C74.4411 66.4604 82.5 58.4016 82.5 48.4604C82.5 38.5193 74.4411 30.4604 64.5 30.4604C54.5589 30.4604 46.5 38.5193 46.5 48.4604C46.5 58.4016 54.5589 66.4604 64.5 66.4604ZM64.5 68.4604C75.5457 68.4604 84.5 59.5061 84.5 48.4604C84.5 37.4148 75.5457 28.4604 64.5 28.4604C53.4543 28.4604 44.5 37.4148 44.5 48.4604C44.5 59.5061 53.4543 68.4604 64.5 68.4604Z" fill="#0E3781"/>
<path d="M79.5 48.4604C79.5 56.7447 72.7843 63.4604 64.5 63.4604C56.2157 63.4604 49.5 56.7447 49.5 48.4604C49.5 40.1762 56.2157 33.4604 64.5 33.4604C72.7843 33.4604 79.5 40.1762 79.5 48.4604Z" fill="#99BAF4"/>
<path d="M95.5038 77.5474L79 61.9604L77 63.9604L92.587 80.4643C93.3607 81.2836 94.6583 81.3021 95.4552 80.5053L95.5448 80.4156C96.3417 79.6188 96.3231 78.3212 95.5038 77.5474Z" fill="#0E3781"/>
<path fill-rule="evenodd" clip-rule="evenodd" d="M28.5 5.46045C29.0523 5.46045 29.5 5.90816 29.5 6.46045V21.4604H14.5C13.9477 21.4604 13.5 21.0127 13.5 20.4604C13.5 19.9082 13.9477 19.4604 14.5 19.4604H27.5V6.46045C27.5 5.90816 27.9477 5.46045 28.5 5.46045Z" fill="#0E3781"/>
<path fill-rule="evenodd" clip-rule="evenodd" d="M20.5 28.4604C19.9477 28.4604 19.5 28.9082 19.5 29.4604C19.5 30.0127 19.9477 30.4604 20.5 30.4604H30.5C31.0523 30.4604 31.5 30.0127 31.5 29.4604C31.5 28.9082 31.0523 28.4604 30.5 28.4604H20.5ZM34.5 28.4604C33.9477 28.4604 33.5 28.9082 33.5 29.4604C33.5 30.0127 33.9477 30.4604 34.5 30.4604H44.5C45.0523 30.4604 45.5 30.0127 45.5 29.4604C45.5 28.9082 45.0523 28.4604 44.5 28.4604H34.5ZM51.483 33.2759C51.3964 32.8118 50.9892 32.4604 50.5 32.4604H40.5C39.9477 32.4604 39.5 32.9082 39.5 33.4604C39.5 34.0127 39.9477 34.4604 40.5 34.4604H50.2171C50.6218 34.0477 51.0441 33.6524 51.483 33.2759ZM44.5246 49.4604C44.5579 50.1365 44.6247 50.8037 44.7235 51.4604H40.5C39.9477 51.4604 39.5 51.0127 39.5 50.4604C39.5 49.9082 39.9477 49.4604 40.5 49.4604H44.5246ZM44.7235 45.4605C44.6247 46.1172 44.5579 46.7844 44.5246 47.4605L37.5 47.4604C36.9477 47.4604 36.5 47.0127 36.5 46.4604C36.5 45.9082 36.9477 45.4604 37.5 45.4604L44.7235 45.4605ZM48.4985 36.4604C48.0192 37.0986 47.5772 37.7663 47.1756 38.4604L38.5 38.4604C37.9477 38.4604 37.5 38.0127 37.5 37.4604C37.5 36.9082 37.9477 36.4604 38.5 36.4604L48.4985 36.4604ZM64.5 28.4604C61.3707 28.4604 58.4093 29.1791 55.7717 30.4604L54.5 30.4604C53.9477 30.4604 53.5 30.0127 53.5 29.4604C53.5 28.9082 53.9477 28.4604 54.5 28.4604H64.5ZM48.5 28.4604C47.9477 28.4604 47.5 28.9082 47.5 29.4604C47.5 30.0127 47.9477 30.4604 48.5 30.4604H50.5C51.0523 30.4604 51.5 30.0127 51.5 29.4604C51.5 28.9082 51.0523 28.4604 50.5 28.4604H48.5ZM37.5 33.4604C37.5 32.9082 37.0523 32.4604 36.5 32.4604H34.5C33.9477 32.4604 33.5 32.9082 33.5 33.4604C33.5 34.0127 33.9477 34.4604 34.5 34.4604H36.5C37.0523 34.4604 37.5 34.0127 37.5 33.4604ZM34.5 38.4604C35.0523 38.4604 35.5 38.0127 35.5 37.4604C35.5 36.9082 35.0523 36.4604 34.5 36.4604H30.5C29.9477 36.4604 29.5 36.9082 29.5 37.4604C29.5 38.0127 29.9477 38.4604 30.5 38.4604H34.5ZM34.5 46.4604C34.5 47.0127 34.0523 47.4604 33.5 47.4604H27.5C26.9477 47.4604 26.5 47.0127 26.5 46.4604C26.5 45.9082 26.9477 45.4604 27.5 45.4604H33.5C34.0523 45.4604 34.5 45.9082 34.5 46.4604ZM36.5 51.4604C37.0523 51.4604 37.5 51.0127 37.5 50.4604C37.5 49.9082 37.0523 49.4604 36.5 49.4604H20.5C19.9477 49.4604 19.5 49.9082 19.5 50.4604C19.5 51.0127 19.9477 51.4604 20.5 51.4604H36.5ZM31.5 33.4604C31.5 32.9082 31.0523 32.4604 30.5 32.4604L20.5 32.4605C19.9477 32.4605 19.5 32.9082 19.5 33.4605C19.5 34.0127 19.9477 34.4605 20.5 34.4605L30.5 34.4604C31.0523 34.4604 31.5 34.0127 31.5 33.4604ZM26.5 38.4604C27.0523 38.4604 27.5 38.0127 27.5 37.4604C27.5 36.9082 27.0523 36.4604 26.5 36.4604H20.5C19.9477 36.4604 19.5 36.9082 19.5 37.4604C19.5 38.0127 19.9477 38.4604 20.5 38.4604H26.5ZM24.5 46.4604C24.5 47.0127 24.0523 47.4604 23.5 47.4604H20.5C19.9477 47.4604 19.5 47.0127 19.5 46.4604C19.5 45.9082 19.9477 45.4604 20.5 45.4604H23.5C24.0523 45.4604 24.5 45.9082 24.5 46.4604Z" fill="#FFBF00"/>
</svg>