<?xml version="1.0" standalone="no"?>
<!DOCTYPE svg PUBLIC "-//W3C//DTD SVG 1.1//EN" "http://www.w3.org/Graphics/SVG/1.1/DTD/svg11.dtd" >
<svg xmlns="http://www.w3.org/2000/svg">
<metadata>
<json>
<![CDATA[
{
	"copyright": "Bitwarden, Inc.",
	"description": "Font generated by IcoMoon.",
	"designer": "Bitwarden, Inc.",
	"designerURL": "",
	"fontFamily": "bwi-font",
	"majorVersion": 1,
	"minorVersion": 0,
	"version": "Version 1.0",
	"fontId": "bwi-font",
	"psName": "bwi-font",
	"subFamily": "Regular",
	"fullName": "bwi-font"
}
]]>
</json>
</metadata>
<defs>
<font id="bwi-font" horiz-adv-x="1024">
<font-face units-per-em="1024" ascent="880.8602150537635" descent="-143.13978494623655" />
<missing-glyph horiz-adv-x="1024" />
<glyph unicode="&#x20;" horiz-adv-x="512.5004887585533" d="" />
<glyph unicode="&#xe900;" glyph-name="bwi-angle-down" data-tags="bwi-angle-down" d="M929.939 545.941c-18.746 18.745-49.133 18.745-67.878 0l-350.061-350.056-350.059 350.056c-18.745 18.745-49.137 18.745-67.882 0s-18.745-49.137 0-67.882l384.001-383.998c9.002-9.005 21.21-14.061 33.941-14.061s24.939 5.056 33.94 14.061l383.998 383.998c18.746 18.745 18.746 49.137 0 67.882z" />
<glyph unicode="&#xe901;" glyph-name="bwi-angle-left" data-tags="bwi-angle-left" d="M673.939-33.939c18.746 18.746 18.746 49.133 0 67.878l-350.057 350.061 350.057 350.059c18.746 18.745 18.746 49.137 0 67.882s-49.135 18.745-67.88 0l-384-384c-18.745-18.746-18.745-49.137 0-67.882l384-383.998c18.745-18.746 49.135-18.746 67.88 0z" />
<glyph unicode="&#xe902;" glyph-name="bwi-angle-right" data-tags="bwi-angle-right" d="M350.059 801.941c-18.745-18.745-18.745-49.137 0-67.882l350.056-350.059-350.056-350.061c-18.745-18.746-18.745-49.133 0-67.878s49.137-18.746 67.882 0l383.998 383.998c18.746 18.746 18.746 49.137 0 67.882l-383.998 384c-18.745 18.745-49.137 18.745-67.882 0z" />
<glyph unicode="&#xe903;" glyph-name="bwi-angle-up" data-tags="bwi-angle-up" d="M94.059 222.061c18.745-18.746 49.137-18.746 67.882 0l350.059 350.057 350.061-350.057c18.746-18.746 49.133-18.746 67.878 0s18.746 49.135 0 67.88l-383.998 384c-18.746 18.745-49.137 18.745-67.882 0l-384-384c-18.745-18.745-18.745-49.135 0-67.88z" />
<glyph unicode="&#xe904;" glyph-name="bwi-bell" data-tags="bwi-bell" d="M511.999 896c-212.784 0-384-167.039-384-360.682v-62.683c0-49.299-13.398-97.67-38.762-139.943l-38.997-64.995c-11.936-19.895-18.241-42.653-18.241-65.853v-9.843c0-70.694 57.308-128 128-128h176v-16c0-97.203 78.798-176 176-176s176.001 78.797 176.001 176v16h176c70.694 0 128 57.306 128 128v9.843c0 23.2-6.304 45.958-18.24 65.853l-39.002 64.995c-25.363 42.273-38.758 90.644-38.758 139.943v72.148l-0.026 0.783c-6.157 188.653-174.752 350.435-383.976 350.435zM223.999 535.318c0 136.255 123.758 264.682 288 264.682 160.865 0 283.22-123.888 288.001-256.821v-70.544c0-66.698 18.125-132.141 52.442-189.334l38.995-64.996c2.989-4.973 4.563-10.662 4.563-16.461v-9.843c0-17.67-14.33-32-32-32h-704.001c-17.673 0-32 14.33-32 32v9.843c0 5.798 1.576 11.488 4.561 16.461l38.997 64.996c34.316 57.193 52.442 122.637 52.442 189.335v62.683zM591.999 64v-16c0-44.186-35.817-80-80-80s-80 35.814-80 80v16h160z" />
<glyph unicode="&#xe905;" glyph-name="bwi-billing" data-tags="bwi-billing" d="M368 640c-26.509 0-48-21.491-48-48s21.491-48 48-48h288c26.509 0 48 21.491 48 48s-21.491 48-48 48h-288zM368 480c-26.509 0-48-21.491-48-48s21.491-48 48-48h288c26.509 0 48 21.491 48 48s-21.491 48-48 48h-288zM560 320c-26.509 0-48-21.491-48-48s21.491-48 48-48h96c26.509 0 48 21.491 48 48s-21.491 48-48 48h-96zM848-64c26.509 0 48 21.491 48 48v800c0 61.856-50.144 112-112 112h-544c-61.856 0-112-50.144-112-112v-800c0-26.509 21.491-48 48-48h64c8.996 0 17.811 2.528 25.44 7.296l103.995 64.998 119.254-66.253c14.497-8.058 32.124-8.058 46.621 0l119.256 66.253 103.994-64.998c7.629-4.768 16.442-7.296 25.44-7.296h64zM800 784v-752h-2.234l-140.333 87.706-145.434-80.794-145.435 80.794-140.332-87.706h-2.234v752c0 8.836 7.164 16 16 16h544c8.838 0 16-7.164 16-16z" />
<glyph unicode="&#xe906;" glyph-name="bwi-bitcoin" data-tags="bwi-bitcoin" d="M416 848c0 26.51-21.49 48-48 48s-48-21.49-48-48v-80h-112c-26.509 0-48-21.491-48-48s21.491-48 48-48h48v-576h-48c-26.509 0-48-21.491-48-48s21.491-48 48-48h112v-80c0-26.509 21.491-48 48-48s48 21.491 48 48v80h96v-80c0-26.509 21.491-48 48-48s48 21.491 48 48v80c123.712 0 224 100.288 224 224 0 85.070-47.424 159.064-117.274 196.988 33.12 36.84 53.274 85.572 53.274 139.012 0 98.355-68.262 180.765-160 202.434v85.566c0 26.51-21.49 48-48 48s-48-21.49-48-48v-80h-96v80zM352 352h256c70.694 0 128-57.308 128-128 0-70.694-57.306-128-128-128h-256v256zM560 448h-208v224h208c61.856 0 112-50.144 112-112s-50.144-112-112-112z" />
<glyph unicode="&#xe907;" glyph-name="bwi-browser-alt" data-tags="bwi-browser-alt" d="M96 640c0 17.673 14.327 32 32 32h400c26.509 0 48 21.491 48 48s-21.491 48-48 48h-400c-70.692 0-128-57.308-128-128v-512c0-70.694 57.308-128 128-128h768c70.694 0 128 57.306 128 128v144c0 26.509-21.491 48-48 48s-48-21.491-48-48v-144c0-17.67-14.33-32-32-32h-768c-17.673 0-32 14.33-32 32v352h432c26.509 0 48 21.491 48 48s-21.491 48-48 48h-432v64zM752 768c-26.509 0-48-21.491-48-48s21.491-48 48-48h108.115l-206.054-206.059c-18.747-18.745-18.747-49.137 0-67.882s49.133-18.745 67.878 0l206.061 206.059v-108.118c0-26.509 21.491-48 48-48s48 21.491 48 48v224c0 26.509-21.491 48-48 48h-224z" />
<glyph unicode="&#xe908;" glyph-name="bwi-browser" data-tags="bwi-browser" d="M608 560c0-26.509-21.491-48-48-48s-48 21.491-48 48c0 26.509 21.491 48 48 48s48-21.491 48-48zM736 560c0-26.509-21.491-48-48-48s-48 21.491-48 48c0 26.509 21.491 48 48 48s48-21.491 48-48zM816 512c26.509 0 48 21.491 48 48s-21.491 48-48 48c-26.509 0-48-21.491-48-48s21.491-48 48-48zM0 640v-512c0-70.694 57.308-128 128-128h768c70.694 0 128 57.306 128 128v512c0 70.692-57.306 128-128 128h-768c-70.692 0-128-57.308-128-128zM128 672h768c17.67 0 32-14.327 32-32v-512c0-17.67-14.33-32-32-32h-768c-17.673 0-32 14.33-32 32v512c0 17.673 14.327 32 32 32z" />
<glyph unicode="&#xe909;" glyph-name="bwi-brush" data-tags="brush" d="M1.18-62.71l49.625-10.889 10.545-49.691c-16.883-3.584-34.43 1.645-46.592 13.892s-17.276 29.826-13.578 46.688zM50.805-73.598l10.545-49.691 8.399 1.789c5.366 1.147 13.089 2.806 22.54 4.84 18.893 4.082 44.713 9.701 72.398 15.852 54.625 12.145 118.785 26.87 150.046 35.867 26.497 7.66 71.266 26.59 102.874 58.197 34.020 34.017 54.776 76.431 61.882 120.416l430.081 441.447c62.123 63.761 61.46 165.606-1.481 228.556-62.976 62.98-164.884 63.622-228.644 1.441l-442.67-431.695c-43.080-7.483-84.521-28.090-117.888-61.456-31.643-31.642-50.418-76.267-58.14-102.654l-0.032-0.109c-9.020-31.082-24.038-94.822-36.479-149.183-6.3-27.532-12.061-53.2-16.246-71.98-2.093-9.393-3.793-17.073-4.971-22.405l-1.839-8.342 49.625-10.889zM190.736 220.119c21.737 21.736 49.295 33.195 76.706 34.714l113.033-113.029c-1.519-27.409-12.979-54.968-34.716-76.704-14.862-14.862-41.497-27.3-59.161-32.413-27.635-7.953-88.388-21.955-143.959-34.311-8.536-1.898-16.896-3.741-24.928-5.509 1.788 7.892 3.656 16.104 5.574 24.487 12.638 55.228 26.961 115.767 34.999 143.476 5.275 17.995 17.635 44.476 32.452 59.29zM593.928 376.737l-92.679 92.675 249.139 242.962c23.941 23.347 62.205 23.106 85.845-0.541 23.634-23.635 23.887-61.875 0.56-85.815l-242.865-249.282zM523.018 303.954l-79.45-81.549-96.577 96.573 81.51 79.489 94.517-94.513z" />
<glyph unicode="&#xe90a;" glyph-name="bwi-bug" data-tags="bwi-bug" d="M350.059 865.941c-18.745-18.745-18.745-49.137 0-67.882l24.25-24.25c-33.611-34.579-54.308-81.777-54.308-133.809v-13.715c0-2.588 0.12-5.148 0.353-7.674-24.548-11.608-46.648-27.547-65.313-46.829l-65.45 37.788c-22.958 13.255-52.314 5.389-65.569-17.569s-5.389-52.314 17.569-65.569l62.952-36.345c-8.124-23.19-12.541-48.122-12.541-74.086v-48h-80c-26.509 0-48-21.491-48-48s21.491-48 48-48h80v-16c0-41.21 7.791-80.602 21.979-116.781-1.047-0.512-2.083-1.056-3.107-1.651l-69.282-40c-22.958-13.254-30.824-42.611-17.569-65.568s42.611-30.822 65.569-17.568l69.282 40c1.046 0.602 2.060 1.242 3.042 1.907 58.638-73.35 148.875-120.339 250.086-120.339s191.45 46.989 250.086 120.339c0.979-0.666 1.997-1.306 3.040-1.907l69.286-40c22.957-13.254 52.314-5.389 65.568 17.568s5.389 52.314-17.568 65.568l-69.286 40c-1.024 0.595-2.061 1.139-3.104 1.651 14.189 36.179 21.978 75.571 21.978 116.781v16h80c26.509 0 48 21.491 48 48s-21.491 48-48 48h-80v48c0 25.964-4.416 50.896-12.544 74.086l62.957 36.345c22.957 13.255 30.822 42.611 17.568 65.569s-42.611 30.824-65.568 17.569l-65.453-37.788c-18.669 19.283-40.768 35.221-65.312 46.829 0.23 2.527 0.352 5.087 0.352 7.674v13.715c0 52.032-20.698 99.23-54.31 133.81l24.25 24.249c18.746 18.745 18.746 49.137 0 67.882s-49.135 18.745-67.88 0l-41.285-41.285c-16.767 4.783-34.472 7.344-52.774 7.344s-36.006-2.561-52.774-7.344l-41.285 41.285c-18.745 18.745-49.137 18.745-67.882 0zM547.943 729.044c4.242-3.062 8.871-5.347 13.691-6.854 27.791-16.819 46.366-47.335 46.366-82.19h-192c0 34.855 18.575 65.371 46.366 82.19 4.82 1.507 9.449 3.792 13.691 6.854 11.101 4.486 23.234 6.956 35.943 6.956s24.842-2.47 35.943-6.956zM288 416c0 70.692 57.308 128 128 128h192c70.694 0 128-57.308 128-128v-160c0-107.238-75.354-196.87-176-218.848v298.848c0 26.509-21.491 48-48 48s-48-21.491-48-48v-298.848c-100.646 21.978-176 111.61-176 218.848v160z" />
<glyph unicode="&#xe90b;" glyph-name="bwi-business" data-tags="bwi-business" d="M336 704c-26.509 0-48-21.491-48-48s21.491-48 48-48h96c26.509 0 48 21.491 48 48s-21.491 48-48 48h-96zM592 704c-26.509 0-48-21.491-48-48s21.491-48 48-48h96c26.509 0 48 21.491 48 48s-21.491 48-48 48h-96zM592 512c-26.509 0-48-21.491-48-48s21.491-48 48-48h96c26.509 0 48 21.491 48 48s-21.491 48-48 48h-96zM544 272c0 26.509 21.491 48 48 48h96c26.509 0 48-21.491 48-48s-21.491-48-48-48h-96c-26.509 0-48 21.491-48 48zM288 464c0 26.509 21.491 48 48 48h96c26.509 0 48-21.491 48-48s-21.491-48-48-48h-96c-26.509 0-48 21.491-48 48zM336 320c-26.509 0-48-21.491-48-48s21.491-48 48-48h96c26.509 0 48 21.491 48 48s-21.491 48-48 48h-96zM192 896h640c35.347 0 64-28.654 64-64v-896c0-35.347-28.653-64-64-64h-640c-35.346 0-64 28.653-64 64v896c0 35.346 28.654 64 64 64zM224 800v-832h160v96c0 35.347 28.654 64 64 64h128c35.346 0 64-28.653 64-64v-96h160v832h-576z" />
<glyph unicode="&#xe90c;" glyph-name="bwi-camera" data-tags="bwi-camera" d="M704 368c0 106.038-85.962 192-192 192s-192-85.962-192-192c0-106.038 85.962-192 192-192s192 85.962 192 192zM608 368c0-53.020-42.98-96-96-96s-96 42.98-96 96c0 53.020 42.98 96 96 96s96-42.98 96-96zM404.403 864c-51.203 0-97.48-30.515-117.651-77.578l-35.324-82.422h-123.428c-70.692 0-128-57.308-128-128v-448c0-70.694 57.308-128 128-128h768c70.694 0 128 57.306 128 128v448c0 70.692-57.306 128-128 128h-123.43l-35.322 82.422c-20.173 47.063-66.445 77.578-117.651 77.578h-215.195zM314.731 608l60.259 140.605c5.043 11.766 16.612 19.395 29.412 19.395h215.195c12.801 0 24.371-7.629 29.414-19.395l60.256-140.605h186.733c17.67 0 32-14.327 32-32v-448c0-17.67-14.33-32-32-32h-768c-17.673 0-32 14.33-32 32v448c0 17.673 14.327 32 32 32h186.731z" />
<glyph unicode="&#xe90d;" glyph-name="bwi-premium" data-tags="bwi-premium" d="M805.869 800.188c41.254-0.010 79.181-22.7 98.682-59.062l98.63-183.875c21.843-40.75 16.41-90.778-13.69-125.875l-391.75-456.687c-44.71-52.096-125.319-52.058-170 0.064l-391.875 457.248c-29.641 34.592-35.368 83.695-14.5 124.188l94.5 183.313c19.211 37.263 57.638 60.687 99.562 60.687h590.441zM464.928 78.874l0.625 367.876-175.688 1.187h-141.25l316.312-369.064zM561.553 446.75l-0.625-367.563 316.314 368.75h-141.376l-174.312-1.187zM364.178 543.437l149.437-1 142.813 1-84.188 160.75h-135.75l-72.313-160.75zM764.55 543.937h136.813l-81.434 151.812c-2.784 5.185-8.179 8.428-14.061 8.438h-125.254l83.936-160.25zM215.428 704.188c-5.99 0-11.506-3.363-14.25-8.687l-78.125-151.563h136.125l72.125 160.25h-115.875z" />
<glyph unicode="&#xe90e;" glyph-name="bwi-check-circle" data-tags="bwi-check-circle" d="M769.939 494.059c18.746 18.745 18.746 49.137 0 67.882s-49.133 18.745-67.878 0l-270.061-270.059-110.059 110.059c-18.745 18.745-49.137 18.745-67.882 0s-18.745-49.137 0-67.882l144-143.998c18.745-18.746 49.137-18.746 67.882 0l303.998 303.998zM1024 384c0 282.77-229.229 512-512 512s-512-229.23-512-512c0-282.771 229.23-512 512-512s512 229.229 512 512zM928 384c0-229.754-186.246-416-416-416-229.75 0-416 186.246-416 416 0 229.75 186.25 416 416 416 229.754 0 416-186.25 416-416z" />
<glyph unicode="&#xe90f;" glyph-name="bwi-check" data-tags="bwi-check" d="M1009.939 753.941c18.746-18.745 18.746-49.137 0-67.882l-623.998-623.998c-18.745-18.746-49.137-18.746-67.882 0l-304 303.998c-18.745 18.745-18.745 49.137 0 67.882s49.137 18.745 67.882 0l270.059-270.056 590.061 590.056c18.746 18.745 49.133 18.745 67.878 0z" />
<glyph unicode="&#xe910;" glyph-name="bwi-cli" data-tags="bwi-cli" d="M270.059 545.941c-18.745-18.745-18.745-49.137 0-67.882l94.059-94.059-94.059-94.059c-18.745-18.745-18.745-49.135 0-67.88s49.137-18.746 67.882 0l128 127.998c18.745 18.745 18.745 49.137 0 67.882l-128 128c-18.745 18.745-49.137 18.745-67.882 0zM560 304h160c26.509 0 48-21.491 48-48s-21.491-48-48-48h-160c-26.509 0-48 21.491-48 48s21.491 48 48 48zM832 832h-640c-70.692 0-128-57.308-128-128v-640c0-70.694 57.308-128 128-128h640c70.694 0 128 57.306 128 128v640c0 70.692-57.306 128-128 128zM192 736h640c17.67 0 32-14.327 32-32v-640c0-17.67-14.33-32-32-32h-640c-17.673 0-32 14.33-32 32v640c0 17.673 14.327 32 32 32z" />
<glyph unicode="&#xe911;" glyph-name="bwi-clock" data-tags="bwi-clock" d="M560 656c0 26.509-21.491 48-48 48s-48-21.491-48-48v-272c0-12.73 5.057-24.94 14.059-33.941l96-95.998c18.745-18.746 49.137-18.746 67.88 0 18.746 18.743 18.746 49.135 0 67.88l-81.939 81.941v252.118zM1024 384c0 282.77-229.229 512-512 512s-512-229.23-512-512c0-282.771 229.23-512 512-512s512 229.229 512 512zM928 384c0-229.754-186.246-416-416-416-229.75 0-416 186.246-416 416 0 229.75 186.25 416 416 416 229.754 0 416-186.25 416-416z" />
<glyph unicode="&#xe912;" glyph-name="bwi-close" data-tags="bwi-close" d="M78.059 817.941c18.745 18.745 49.137 18.745 67.882 0l366.059-366.059 366.061 366.059c18.746 18.745 49.133 18.745 67.878 0s18.746-49.137 0-67.882l-366.057-366.059 366.057-366.061c18.746-18.746 18.746-49.133 0-67.878s-49.133-18.746-67.878 0l-366.061 366.057-366.059-366.057c-18.745-18.746-49.137-18.746-67.882 0s-18.745 49.133 0 67.878l366.059 366.061-366.059 366.059c-18.745 18.745-18.745 49.137 0 67.882z" />
<glyph unicode="&#xe913;" glyph-name="bwi-cog-f" data-tags="bwi-cog-f" d="M348.111 844.551c5.983 29.915 32.25 51.449 62.757 51.449h202.265c30.508 0 56.774-21.533 62.758-51.449l17.184-85.922c18.381-8.901 36.013-19.116 52.762-30.522l83.072 28.101c28.896 9.776 60.678-2.205 75.93-28.625l101.133-175.167c15.258-26.42 9.741-59.935-13.178-80.074l-65.888-57.907c0.723-10.051 1.094-20.2 1.094-30.436s-0.371-20.385-1.094-30.436l65.888-57.907c22.918-20.139 28.435-53.654 13.178-80.074l-101.133-175.168c-15.251-26.419-47.034-38.4-75.93-28.621l-83.072 28.096c-16.749-11.405-34.381-21.619-52.762-30.522l-17.184-85.92c-5.984-29.914-32.25-51.45-62.758-51.45h-202.265c-30.508 0-56.774 21.536-62.757 51.45l-17.185 85.92c-18.382 8.902-36.010 19.117-52.762 30.522l-83.067-28.102c-28.899-9.773-60.681 2.208-75.935 28.627l-101.132 175.168c-15.254 26.419-9.739 59.934 13.177 80.073l65.89 57.906c-0.727 10.051-1.097 20.201-1.097 30.437s0.37 20.386 1.097 30.437l-65.891 57.907c-22.916 20.139-28.431 53.653-13.177 80.074l101.133 175.167c15.254 26.42 47.036 38.401 75.934 28.625l83.068-28.101c16.752 11.405 34.38 21.62 52.762 30.522l17.185 85.922zM512.001 256c70.692 0 127.999 57.308 127.999 128s-57.307 128-127.999 128c-70.692 0-128-57.308-128-128s57.308-128 128-128z" />
<glyph unicode="&#xe914;" glyph-name="bwi-cog" data-tags="bwi-cog" d="M512.001 256c70.692 0 127.999 57.308 127.999 128s-57.306 128-127.999 128c-70.692 0-128-57.308-128-128s57.308-128 128-128zM675.891 844.551c-5.984 29.915-32.25 51.449-62.758 51.449h-202.265c-30.508 0-56.774-21.533-62.757-51.449l-17.185-85.922c-18.382-8.902-36.010-19.116-52.762-30.522l-83.068 28.101c-28.899 9.776-60.68-2.205-75.934-28.625l-101.133-175.167c-15.254-26.42-9.739-59.935 13.177-80.074l65.891-57.907c-0.727-10.051-1.097-20.201-1.097-30.437s0.37-20.386 1.097-30.437l-65.89-57.906c-22.916-20.139-28.431-53.654-13.177-80.073l101.132-175.168c15.254-26.419 47.036-38.4 75.935-28.627l83.067 28.102c16.752-11.405 34.38-21.619 52.762-30.522l17.185-85.92c5.983-29.914 32.25-51.45 62.757-51.45h202.265c30.508 0 56.774 21.536 62.758 51.45l17.184 85.92c18.381 8.902 36.013 19.117 52.762 30.522l83.072-28.096c28.896-9.779 60.678 2.202 75.93 28.621l101.133 175.168c15.258 26.419 9.741 59.935-13.178 80.074l-65.888 57.907c0.723 10.051 1.094 20.2 1.094 30.436s-0.371 20.385-1.094 30.436l65.888 57.907c22.918 20.139 28.435 53.653 13.178 80.074l-101.133 175.167c-15.251 26.42-47.034 38.401-75.93 28.625l-83.072-28.101c-16.749 11.406-34.381 21.621-52.762 30.522l-17.184 85.922zM372.766 672.227l42.94 20.793 21.396 106.98h149.798l21.396-106.98 42.942-20.793c14.118-6.838 27.674-14.692 40.57-23.472l39.514-26.902 103.494 35.012 74.899-129.728-81.997-72.066 3.437-47.558c0.563-7.748 0.845-15.588 0.845-23.512s-0.282-15.764-0.845-23.512l-3.437-47.558 81.997-72.066-74.899-129.728-103.494 35.014-39.514-26.906c-12.896-8.781-26.451-16.634-40.57-23.469l-42.942-20.794-21.396-106.982h-149.798l-21.396 106.982-42.94 20.794c-14.122 6.835-27.678 14.688-40.573 23.469l-39.512 26.906-103.497-35.014-74.899 129.728 82.001 72.065-3.439 47.558c-0.561 7.748-0.847 15.589-0.847 23.513s0.286 15.764 0.847 23.513l3.439 47.558-82.001 72.065 74.899 129.728 103.497-35.012 39.512 26.902c12.894 8.78 26.451 16.633 40.572 23.471z" />
<glyph unicode="&#xe915;" glyph-name="collection" data-tags="collection" d="M288 848c0 26.51 21.491 48 48 48h352c26.509 0 48-21.49 48-48s-21.491-48-48-48h-352c-26.509 0-48 21.491-48 48zM208 768c-26.509 0-48-21.491-48-48s21.491-48 48-48h608c26.509 0 48 21.491 48 48s-21.491 48-48 48h-608zM832 640h-640c-70.692 0-128-57.308-128-128v-384c0-70.694 57.308-128 128-128h640c70.694 0 128 57.306 128 128v384c0 70.692-57.306 128-128 128zM832 544c17.67 0 32-14.327 32-32v-384c0-17.67-14.33-32-32-32h-640c-17.673 0-32 14.33-32 32v384c0 17.673 14.327 32 32 32h640z" />
<glyph unicode="&#xe916;" glyph-name="bwi-collection-shared" data-tags="bwi-collection-shared" d="M288 848c0 26.51 21.491 48 48 48h352c26.509 0 48-21.49 48-48s-21.491-48-48-48h-352c-26.509 0-48 21.491-48 48zM208 768c-26.509 0-48-21.491-48-48s21.491-48 48-48h608c26.509 0 48 21.491 48 48s-21.491 48-48 48h-608zM448 384c0-35.346-28.654-64-64-64s-64 28.654-64 64c0 35.346 28.654 64 64 64s64-28.654 64-64zM704 384c0-35.346-28.653-64-64-64s-64 28.654-64 64 28.654 64 64 64c35.347 0 64-28.654 64-64zM512 162.509c0 16.48-3.311 32.8-9.743 48.026s-15.861 29.056-27.747 40.71c-11.885 11.652-25.996 20.897-41.526 27.203s-32.175 9.553-48.984 9.553c-16.809 0-33.454-3.246-48.984-9.553s-29.64-15.55-41.526-27.203c-11.886-11.654-21.315-25.485-27.747-40.71s-9.743-31.546-9.743-48.026c0-19.059 15.451-34.509 34.51-34.509h186.98c19.059 0 34.51 15.45 34.51 34.509zM576.004 162.509c0 25.062-5.037 49.85-14.79 72.934-2.665 6.304-5.667 12.448-8.987 18.406 11.293 10.431 24.435 18.769 38.788 24.598 15.53 6.307 32.175 9.553 48.984 9.553 16.806 0 33.453-3.246 48.986-9.553 15.526-6.306 29.638-15.55 41.523-27.203s21.312-25.485 27.75-40.71c6.432-15.226 9.741-31.546 9.741-48.026 0-19.059-15.45-34.509-34.509-34.509h-163.701c4.018 10.739 6.214 22.368 6.214 34.509zM832 640h-640c-70.692 0-128-57.308-128-128v-384c0-70.694 57.308-128 128-128h640c70.694 0 128 57.306 128 128v384c0 70.692-57.306 128-128 128zM832 544c17.67 0 32-14.327 32-32v-384c0-17.67-14.33-32-32-32h-640c-17.673 0-32 14.33-32 32v384c0 17.673 14.327 32 32 32h640z" />
<glyph unicode="&#xe917;" glyph-name="bwi-copy" data-tags="bwi-clone" d="M320 704v-128h-128c-70.692 0-128-57.308-128-128v-384c0-70.694 57.308-128 128-128h384c70.694 0 128 57.306 128 128v128h128c70.694 0 128 57.306 128 128v384c0 70.692-57.306 128-128 128h-384c-70.692 0-128-57.308-128-128zM448 736h384c17.67 0 32-14.327 32-32v-384c0-17.673-14.33-32-32-32h-384c-17.673 0-32 14.327-32 32v384c0 17.673 14.327 32 32 32zM320 480v-160c0-70.694 57.308-128 128-128h160v-128c0-17.67-14.327-32-32-32h-384c-17.673 0-32 14.33-32 32v384c0 17.673 14.327 32 32 32h128z" />
<glyph unicode="&#xe918;" glyph-name="bwi-unarchive" data-tags="unarchive (1)" d="M483.556 110.393c12.108 0 22.243 4.081 30.407 12.245 8.173 8.172 12.26 18.313 12.26 30.421v210.488l75.264-75.278c7.879-7.87 17.783-11.9 29.71-12.089 11.919-0.18 22.002 3.849 30.251 12.089 8.24 8.248 12.36 18.242 12.36 29.98s-4.12 21.732-12.36 29.98l-141.895 141.013c-10.288 10.288-22.287 15.432-35.996 15.432s-25.709-5.144-35.997-15.432l-141.895-141.013c-7.869-7.879-11.899-17.783-12.089-29.71-0.18-11.919 3.849-22.002 12.089-30.251 8.249-8.24 18.243-12.36 29.98-12.36s21.732 4.12 29.981 12.36l75.264 75.278v-210.488c0-12.108 4.087-22.249 12.259-30.421 8.164-8.164 18.3-12.245 30.408-12.245zM85.333 645.476v-613.749c0-5.111 1.64-9.301 4.921-12.587 3.28-3.277 7.476-4.915 12.587-4.915h761.432c5.111 0 9.301 1.638 12.587 4.915 3.277 3.285 4.915 7.475 4.915 12.587v613.749h-796.442zM107.221-71.108c-28.378 0-53.343 10.769-74.894 32.324s-32.327 46.515-32.327 74.897v660.448c0 12.175 1.953 23.789 5.86 34.845 3.897 11.046 9.747 21.239 17.55 30.577l79.872 96.597c9.33 12.184 20.997 21.466 35.001 27.847s28.809 9.571 44.416 9.571h600.619c15.607 0 30.502-3.19 44.687-9.571s25.944-15.663 35.288-27.847l80.41-97.692c7.799-9.34 13.653-19.622 17.553-30.848 3.9-11.236 5.854-22.945 5.854-35.129v-658.799c0-28.382-10.769-53.342-32.324-74.897s-46.515-32.324-74.897-32.324h-752.666zM107.548 730.795h751.477l-62.040 73.856c-1.821 1.82-3.916 3.28-6.287 4.38-2.371 1.091-4.831 1.636-7.381 1.636h-600.064c-2.551 0-5.016-0.545-7.396-1.636-2.37-1.1-4.465-2.56-6.286-4.38l-62.024-73.856z" />
<glyph unicode="&#xe919;" glyph-name="bwi-dollar" data-tags="bwi-dollar" d="M512 896c26.509 0 48-21.49 48-48v-76.787c28.948-4.156 55.337-12.075 79.167-23.757 37.716-18.133 67.092-43.52 88.129-76.16 10.598-16.078 18.618-33.537 24.058-52.377 9.222-31.927-19.008-59.687-52.243-59.687-32.461 0-59.908 27.451-76.263 55.488-10.155 18.134-25.024 33.003-44.608 44.608s-43.52 17.408-71.808 17.408c-36.267 0.726-66.368-8.341-90.304-27.2-23.211-18.858-34.816-44.97-34.816-78.336 0-29.738 8.704-52.586 26.112-68.544s41.344-29.376 71.808-40.256c30.464-10.154 65.28-22.122 104.448-35.904 37.717-12.33 71.444-27.2 101.185-44.608s53.312-40.256 70.72-68.544c18.131-28.288 27.2-64.192 27.2-107.712 0-38.445-9.792-74.349-29.376-107.712-19.584-32.64-48.96-59.475-88.128-80.512-29.834-15.469-64.927-25.050-105.28-28.736v-68.672c0-26.509-21.491-48-48-48s-48 21.491-48 48v70.605c-32.986 4.474-63.087 13.043-90.305 25.715-42.070 19.584-75.072 47.507-99.008 83.776-13.869 21.67-23.725 45.805-29.565 72.397-6.787 30.893 19.551 57.075 51.185 57.075 30.918 0 55.636-25.862 69.656-53.414 9.344-18.368 22.56-35.014 37.108-49.946 27.562-28.288 66.368-42.432 116.416-42.432 44.245 0 78.698 10.515 103.36 31.552 25.389 21.76 38.081 49.325 38.081 82.688 0 26.835-6.163 48.595-18.496 65.28-11.606 16.683-27.926 30.464-48.961 41.344-20.31 10.88-43.883 20.672-70.72 29.376s-55.126 18.134-84.864 28.288c-58.752 19.584-102.998 44.971-132.736 76.16-29.014 31.19-43.52 72.171-43.52 122.944-0.726 42.795 9.066 80.15 29.376 112.064 21.034 31.915 50.048 56.576 87.040 73.984 25.772 12.391 54.423 20.548 85.953 24.472v76.072c0 26.51 21.491 48 48 48z" />
<glyph unicode="&#xe91a;" glyph-name="bwi-down-solid" data-tags="bwi-down-solid" d="M841.376 457.373l-284.12-284.118c-24.993-24.992-65.516-24.992-90.509 0l-284.118 284.118c-20.159 20.159-5.881 54.627 22.628 54.627h613.49c28.512 0 42.784-34.468 22.63-54.627z" />
<glyph unicode="&#xe91b;" glyph-name="bwi-download" data-tags="bwi-download" d="M560.001 784c0 26.509-21.49 48-48 48s-48-21.491-48-48v-389.112l-64.111 56.988c-19.813 17.612-50.153 15.827-67.765-3.987s-15.827-50.153 3.987-67.765l144.001-128.003c18.187-16.16 45.592-16.16 63.779 0l144.001 128.003c19.814 17.612 21.594 47.952 3.987 67.765-17.613 19.814-47.955 21.598-67.768 3.987l-64.11-56.987v389.111zM160 400c0 26.509-21.491 48-48 48s-48-21.491-48-48v-288c0-61.856 50.144-112 112-112h672c61.856 0 112 50.144 112 112v288c0 26.509-21.491 48-48 48s-48-21.491-48-48v-288c0-8.838-7.162-16-16-16h-672c-8.836 0-16 7.162-16 16v288z" />
<glyph unicode="&#xe91c;" glyph-name="bwi-drag-and-drop" data-tags="bwi-drag-and-drop" d="M256 640c-70.692 0-128 57.308-128 128s57.308 128 128 128c70.692 0 128-57.308 128-128s-57.308-128-128-128zM128 384c0-70.692 57.308-128 128-128s128 57.308 128 128c0 70.692-57.308 128-128 128s-128-57.308-128-128zM128 0c0-70.694 57.308-128 128-128s128 57.306 128 128c0 70.694-57.308 128-128 128s-128-57.306-128-128zM768 640c-70.694 0-128 57.308-128 128s57.306 128 128 128c70.694 0 128-57.308 128-128s-57.306-128-128-128zM640 384c0-70.692 57.306-128 128-128s128 57.308 128 128c0 70.692-57.306 128-128 128s-128-57.308-128-128zM640 0c0-70.694 57.306-128 128-128s128 57.306 128 128c0 70.694-57.306 128-128 128s-128-57.306-128-128z" />
<glyph unicode="&#xe91d;" glyph-name="bwi-ellipsis-h" data-tags="bwi-ellipsis-h" d="M128 256c70.692 0 128 57.308 128 128s-57.308 128-128 128c-70.692 0-128-57.308-128-128s57.308-128 128-128zM640 384c0-70.692-57.308-128-128-128s-128 57.308-128 128c0 70.692 57.308 128 128 128s128-57.308 128-128zM1024 384c0-70.692-57.306-128-128-128s-128 57.308-128 128c0 70.692 57.306 128 128 128s128-57.308 128-128z" />
<glyph unicode="&#xe91e;" glyph-name="bwi-ellipsis-v" data-tags="bwi-ellipsis-v" d="M384 768c0-70.692 57.308-128 128-128s128 57.308 128 128c0 70.692-57.308 128-128 128s-128-57.308-128-128zM512 256c-70.692 0-128 57.308-128 128s57.308 128 128 128c70.692 0 128-57.308 128-128s-57.308-128-128-128zM512-128c-70.692 0-128 57.306-128 128s57.308 128 128 128c70.692 0 128-57.306 128-128s-57.308-128-128-128z" />
<glyph unicode="&#xe91f;" glyph-name="bwi-envelope" data-tags="bwi-envelope" d="M0 640c0 70.692 57.308 128 128 128h768c70.694 0 128-57.308 128-128v-512c0-70.694-57.306-128-128-128h-768c-70.692 0-128 57.306-128 128v512zM109.764 666.299l402.236-287.311 402.234 287.311c-5.171 3.594-11.456 5.701-18.234 5.701h-768c-6.777 0-13.062-2.107-18.236-5.701zM96 558.156v-430.156c0-17.67 14.327-32 32-32h768c17.67 0 32 14.33 32 32v430.156l-388.1-277.215c-16.689-11.921-39.11-11.921-55.799 0l-388.1 277.215z" />
<glyph unicode="&#xe920;" glyph-name="bwi-error" data-tags="bwi-error" d="M337.941 625.941c-18.745 18.745-49.137 18.745-67.882 0s-18.745-49.137 0-67.882l174.059-174.059-174.059-174.061c-18.745-18.746-18.745-49.133 0-67.878s49.137-18.746 67.882 0l174.059 174.057 174.061-174.057c18.746-18.746 49.133-18.746 67.878 0s18.746 49.133 0 67.878l-174.057 174.061 174.057 174.059c18.746 18.745 18.746 49.137 0 67.882s-49.133 18.745-67.878 0l-174.061-174.059-174.059 174.059zM1024 384c0 282.77-229.229 512-512 512s-512-229.23-512-512c0-282.771 229.23-512 512-512s512 229.229 512 512zM928 384c0-229.754-186.246-416-416-416-229.75 0-416 186.246-416 416 0 229.75 186.25 416 416 416 229.754 0 416-186.25 416-416z" />
<glyph unicode="&#xe921;" glyph-name="bwi-exclamation-triangle" data-tags="bwi-exclamation-triangle" d="M576 192c0-35.347-28.653-64-64-64s-64 28.653-64 64c0 35.347 28.654 64 64 64s64-28.653 64-64zM468.249 576c-19.248 0-34.14-16.87-31.753-35.969l24-192c2.002-16.013 15.615-28.031 31.753-28.031h39.502c16.138 0 29.751 12.017 31.753 28.031l24 192c2.387 19.1-12.505 35.969-31.753 35.969h-87.502zM599.926 830.986l410.321-710.698c39.078-67.686-9.766-152.288-87.923-152.288h-820.644c-78.156 0-127.004 84.602-87.926 152.288l410.321 710.698c39.078 67.685 136.773 67.685 175.852 0zM927.11 72.288l-410.323 710.698c-0.905 1.567-1.569 1.942-1.868 2.108-0.556 0.308-1.562 0.656-2.92 0.656s-2.365-0.348-2.92-0.656c-0.299-0.166-0.963-0.54-1.868-2.108l-410.321-710.698c-0.905-1.568-0.897-2.33-0.892-2.669 0.011-0.634 0.212-1.683 0.892-2.854 0.679-1.178 1.484-1.875 2.028-2.202 0.293-0.179 0.949-0.563 2.759-0.563h820.644c1.805 0 2.464 0.384 2.758 0.563 0.544 0.326 1.344 1.024 2.029 2.202 0.678 1.171 0.877 2.221 0.89 2.854 0.006 0.339 0.013 1.101-0.89 2.669z" />
<glyph unicode="&#xe922;" glyph-name="bwi-external-link" data-tags="bwi-external-link" d="M160 656c0 44.183 35.817 80 80 80h224c26.509 0 48 21.491 48 48s-21.491 48-48 48h-224c-97.202 0-176-78.798-176-176v-544c0-97.203 78.798-176 176-176h544c97.203 0 176 78.797 176 176v224c0 26.509-21.491 48-48 48s-48-21.491-48-48v-224c0-44.186-35.814-80-80-80h-544c-44.183 0-80 35.814-80 80v544zM688 832c-26.509 0-48-21.491-48-48s21.491-48 48-48h108.115l-270.056-270.059c-18.745-18.745-18.745-49.137 0-67.882s49.137-18.745 67.882 0l270.059 270.059v-108.118c0-26.509 21.491-48 48-48s48 21.491 48 48v224c0 26.509-21.491 48-48 48h-224z" />
<glyph unicode="&#xe923;" glyph-name="bwi-eye-slash" data-tags="bwi-eye-slash" d="M145.941 817.941c-18.745 18.745-49.137 18.745-67.882 0s-18.745-49.137 0-67.882l800.002-799.998c18.746-18.746 49.133-18.746 67.878 0s18.746 49.133 0 67.878l-799.998 800.002zM512 704c-26.509 0-48-21.491-48-48s21.491-48 48-48c110.205 0 215.898-43.779 293.824-121.706l102.291-102.294-78.054-78.059c-18.746-18.745-18.746-49.137 0-67.88 18.746-18.746 49.133-18.746 67.878 0l112 111.998c18.746 18.745 18.746 49.137 0 67.882l-136.23 136.236c-95.936 95.93-226.042 149.823-361.709 149.823zM193.941 462.059c18.745 18.745 18.745 49.137 0 67.882s-49.137 18.745-67.882 0l-112-112c-9.002-9.002-14.059-21.211-14.059-33.941s5.057-24.94 14.059-33.941l136.236-136.235c95.93-95.93 226.040-149.824 361.706-149.824 26.509 0 48 21.491 48 48s-21.491 48-48 48c-110.205 0-215.896 43.776-293.823 121.706l-102.294 102.294 78.059 78.059z" />
<glyph unicode="&#xe924;" glyph-name="bwi-eye" data-tags="bwi-eye" d="M512 256c70.692 0 128 57.308 128 128s-57.308 128-128 128c-70.692 0-128-57.308-128-128s57.308-128 128-128zM512 704c-135.666 0-265.775-53.893-361.706-149.823l-136.236-136.236c-18.745-18.745-18.745-49.137 0-67.882l136.236-136.235c95.93-95.93 226.040-149.824 361.706-149.824s265.773 53.894 361.709 149.824l136.23 136.235c18.746 18.745 18.746 49.137 0 67.882l-136.23 136.236c-95.936 95.93-226.042 149.823-361.709 149.823zM218.177 486.294c77.927 77.927 183.618 121.706 293.823 121.706s215.898-43.779 293.824-121.706l102.291-102.294-102.291-102.294c-77.926-77.93-183.619-121.706-293.824-121.706s-215.896 43.776-293.823 121.706l-102.294 102.294 102.294 102.294z" />
<glyph unicode="&#xe925;" glyph-name="bwi-family" data-tags="bwi-family" d="M1024 384c0 282.77-229.229 512-512 512s-512-229.23-512-512c0-282.771 229.23-512 512-512s512 229.229 512 512zM928 384c0-78.593-21.792-152.096-59.667-214.79-20.518 20.973-44.435 38.029-70.79 50.157-10.726 4.934-21.754 9.011-33.005 12.198 21.971 22.982 35.462 54.132 35.462 88.435 0 70.692-57.306 128-128 128-70.692 0-128-57.308-128-128 0-1.816 0.038-3.623 0.113-5.42-20.641 13.777-43.569 25.617-68.404 34.294 41.293 28.934 68.291 76.877 68.291 131.126 0 88.365-71.635 160-160 160s-160-71.635-160-160c0-48.442 21.527-91.855 55.537-121.196-26.468-6.075-64.92-19.924-101.802-43.13-26.168-16.465-46.355-36.897-62.47-57.174-12.515 39.6-19.265 81.761-19.265 125.5 0 229.75 186.25 416 416 416 229.754 0 416-186.25 416-416zM161.99 159.078c2.451 2.458 4.67 5.229 6.601 8.288 17.645 27.955 35.306 51.347 60.269 67.053 29.23 18.394 59.689 28.387 75.32 31.5 14.625 2.913 28.172 4.504 38.552 5.322 8.624 0.68 13.974 0.747 15.556 0.767 0.462 0.006 0.604 0.007 0.41 0.019l1.462-0.090h1.465c27.891 0 55.352-4.504 80.751-13.116 24.4-8.274 46.923-21.452 66.348-37.349 11.194-9.165 20.773-19.187 28.667-29.76l10.485-14.49c-5.313-4.954-10.424-10.157-15.318-15.597-22.012-24.454-39.24-53.229-50.918-84.55-11.677-31.328-17.639-64.749-17.639-98.406 0-2.726 0.228-5.402 0.664-8.006-127.031 14.387-236.719 85.99-302.675 188.416zM804.090 97.408c1.51-1.683 2.995-3.405 4.448-5.165-65.062-66.118-152.058-110.579-249.202-121.581 0.436 2.605 0.664 5.28 0.664 8.006 0 22.374 3.971 44.429 11.592 64.87 7.619 20.442 18.676 38.707 32.322 53.869 13.636 15.149 29.549 26.867 46.678 34.752 17.114 7.872 35.245 11.84 53.408 11.84s36.294-3.968 53.408-11.84c17.126-7.885 33.043-19.603 46.682-34.752zM448 480c0-35.346-28.654-64-64-64s-64 28.654-64 64c0 35.346 28.654 64 64 64s64-28.654 64-64zM704 320c0-17.673-14.33-32-32-32s-32 14.327-32 32c0 17.673 14.33 32 32 32s32-14.327 32-32z" />
<glyph unicode="&#xe926;" glyph-name="bwi-file-text" data-tags="bwi-file-text" d="M368 384c-26.509 0-48-21.491-48-48s21.491-48 48-48h288c26.509 0 48 21.491 48 48s-21.491 48-48 48h-288zM368 224c-26.509 0-48-21.491-48-48s21.491-48 48-48h288c26.509 0 48 21.491 48 48s-21.491 48-48 48h-288zM768-128h-512c-70.692 0-128 57.306-128 128v565.962c0 67.895 26.972 133.010 74.98 181.019l74.039 74.039c48.009 48.009 113.124 74.98 181.019 74.98h309.962c70.694 0 128-57.308 128-128v-768c0-70.694-57.306-128-128-128zM256-32h512c17.67 0 32 14.33 32 32v768c0 17.673-14.33 32-32 32h-256v-176c0-61.856-50.144-112-112-112h-176v-512c0-17.67 14.327-32 32-32zM344.902 753.137l-74.039-74.039c-19.876-19.876-33.982-44.443-41.242-71.098h170.379c8.836 0 16 7.164 16 16v170.379c-26.655-7.26-51.222-21.366-71.098-41.242z" />
<glyph unicode="&#xe927;" glyph-name="bwi-file" data-tags="bwi-file" d="M256-128h512c70.694 0 128 57.306 128 128v768c0 70.692-57.306 128-128 128h-309.962c-67.895 0-133.010-26.971-181.019-74.98l-74.039-74.039c-48.009-48.009-74.98-113.124-74.98-181.019v-565.962c0-70.694 57.308-128 128-128zM768-32h-512c-17.673 0-32 14.33-32 32v512h176c61.856 0 112 50.144 112 112v176h256c17.67 0 32-14.327 32-32v-768c0-17.67-14.33-32-32-32zM416 794.379v-170.379c0-8.836-7.164-16-16-16h-170.379c7.26 26.655 21.366 51.222 41.242 71.098l74.039 74.039c19.876 19.876 44.443 33.982 71.098 41.242z" />
<glyph unicode="&#xe928;" glyph-name="bwi-files" data-tags="bwi-files" d="M896 128h-512c-35.346 0-64 28.653-64 64v464.471c0 50.922 20.228 99.757 56.236 135.764l47.529 47.529c36.007 36.007 84.843 56.235 135.764 56.235h336.471c35.347 0 64-28.654 64-64v-640c0-35.347-28.653-64-64-64zM864 224v576h-224v-176c0-26.509-21.491-48-48-48h-176v-352h448zM491.647 771.882l-47.529-47.529c-14.301-14.301-23.624-32.65-26.854-52.353h126.736v126.736c-19.704-3.229-38.052-12.553-52.353-26.854zM208 576h-48v-608h384v48c0 26.509 21.491 48 48 48s48-21.491 48-48v-64c0-44.186-35.817-80-80-80h-416c-44.183 0-80 35.814-80 80v640c0 44.183 35.817 80 80 80h64c26.509 0 48-21.491 48-48s-21.491-48-48-48z" />
<glyph unicode="&#xe929;" glyph-name="bwi-filter" data-tags="bwi-filter" d="M64 768v-256c0-35.346 28.654-64 64-64h256c35.346 0 64 28.654 64 64v256c0 35.346-28.654 64-64 64h-256c-35.346 0-64-28.654-64-64zM160 544v192h192v-192h-192zM64 256v-256c0-35.347 28.654-64 64-64h256c35.346 0 64 28.653 64 64v256c0 35.346-28.654 64-64 64h-256c-35.346 0-64-28.654-64-64zM160 32v192h192v-192h-192zM640 832h256c35.347 0 64-28.654 64-64v-256c0-35.346-28.653-64-64-64h-256c-35.346 0-64 28.654-64 64v256c0 35.346 28.654 64 64 64zM672 736v-192h192v192h-192zM576 256v-256c0-35.347 28.654-64 64-64h256c35.347 0 64 28.653 64 64v256c0 35.346-28.653 64-64 64h-256c-35.346 0-64-28.654-64-64zM672 32v192h192v-192h-192z" />
<glyph unicode="&#xe92a;" glyph-name="bwi-folder" data-tags="bwi-folder" d="M128 832h202.98c33.948 0 66.505-13.485 90.51-37.491l90.509-90.509h384c70.694 0 128-57.308 128-128v-448c0-70.694-57.306-128-128-128h-768c-70.692 0-128 57.306-128 128v576c0 70.692 57.308 128 128 128zM472.236 608l-118.627 118.627c-6.001 6.001-14.141 9.373-22.628 9.373h-202.98c-17.673 0-32-14.327-32-32v-576c0-17.67 14.327-32 32-32h768c17.67 0 32 14.33 32 32v448c0 17.673-14.33 32-32 32h-423.764z" />
<glyph unicode="&#xe92b;" glyph-name="bwi-generate" data-tags="bwi-generate" d="M2.872 453.181c-2.862-26.355 16.182-50.040 42.537-52.902s50.040 16.182 52.902 42.537c21.723 200.017 194.762 357.185 406.491 357.185 148.172 0 277.592-77.056 349.26-192h-102.061c-26.509 0-48-21.491-48-48s21.491-48 48-48h224c26.509 0 48 21.491 48 48v224c0 26.509-21.491 48-48 48s-48-21.491-48-48v-113.514c-90.163 135.94-246.202 225.514-423.199 225.514-259.773 0-474.812-193.129-501.93-442.819zM1021.126 314.823c2.867 26.355-16.179 50.040-42.534 52.902s-50.042-16.182-52.902-42.537c-21.722-200.017-194.765-357.181-406.491-357.181-148.169 0-277.589 77.056-349.26 192h102.061c26.509 0 48 21.485 48 48 0 26.509-21.491 47.997-48 47.997h-224c-26.51 0-48-21.488-48-47.997v-224c0-26.515 21.49-48 48-48s48 21.485 48 48v113.51c90.166-135.942 246.204-225.51 423.199-225.51 259.771 0 474.811 193.126 501.928 442.817zM560.268 528.002c0 26.509-21.49 48-48 48s-48-21.491-48-48v-81.6l-76.577 25.082c-25.193 8.252-52.305-5.482-60.556-30.675s5.482-52.305 30.675-60.556l77.431-25.362-48.388-67.772c-15.404-21.575-10.402-51.555 11.173-66.954 21.574-15.405 51.552-10.406 66.956 11.168l47.29 66.235 47.297-66.235c15.405-21.574 45.383-26.573 66.957-11.168 21.572 15.405 26.577 45.382 11.169 66.956l-48.394 67.772 77.421 25.359c25.19 8.252 38.925 35.364 30.669 60.557-8.25 25.193-35.36 38.925-60.555 30.673l-76.566-25.080v81.598z" />
<glyph unicode="&#xe92c;" glyph-name="bwi-globe" data-tags="bwi-globe" d="M512 896c282.771 0 512-229.23 512-512s-229.229-512-512-512c-282.77 0-512 229.229-512 512s229.23 512 512 512zM512-32c14.741 0 53.93 14.445 95.155 96.896 33.537 67.078 58.010 161.67 63.623 271.104h-317.555c5.614-109.434 30.083-204.026 63.622-271.104 41.224-82.451 80.413-96.896 95.155-96.896zM353.223 432h317.555c-5.613 109.434-30.086 204.028-63.623 271.106-41.224 82.449-80.413 96.894-95.155 96.894s-53.93-14.445-95.155-96.894c-33.539-67.078-58.008-161.672-63.622-271.106zM766.893 432h158.368c-16.954 147.539-111.091 271.599-241.011 330.776 45.901-83.552 76.563-200.032 82.643-330.776zM257.109 432.004c6.078 130.745 36.736 247.224 82.643 330.777-129.924-59.178-224.063-183.237-241.014-330.777h158.371zM766.886 336c-6.074-130.746-36.736-247.226-82.643-330.778 129.926 59.181 224.064 183.238 241.018 330.778h-158.374zM339.561 4.128c-45.907 83.552-76.565 200.032-82.643 330.778h-158.371c16.951-147.54 111.090-271.597 241.014-330.778z" />
<glyph unicode="&#xe92d;" glyph-name="hashtag" data-tags="hashtag" d="M413.493 795.962c6.547 25.689 32.692 41.21 58.396 34.667s41.233-32.673 34.687-58.363l-50.124-196.672 220.84 0.002 56.064 220.237c6.541 25.691 32.685 41.219 58.387 34.682 25.709-6.536 41.242-32.662 34.701-58.353l-50.042-196.564 135.77 0.001c26.522 0 48.026-21.49 48.026-47.999s-21.504-48.001-48.026-48.001l-160.205-0.002-48.781-191.607 145.254-0.001c26.528 0 48.032-21.491 48.032-48.001s-21.504-48-48.032-48h-169.696l-55.914-219.629c-6.54-25.69-32.681-41.222-58.387-34.682-25.706 6.534-41.242 32.659-34.701 58.355l49.887 195.955h-220.942l-56.042-219.891c-6.547-25.69-32.692-41.21-58.396-34.669s-41.233 32.672-34.686 58.362l50.003 196.198h-147.341c-26.525 0-48.028 21.491-48.028 48 0 26.513 21.503 48.003 48.028 48.003l171.807-0.001 48.831 191.603-156.79-0.001c-26.525 0-48.028 21.49-48.028 47.999s21.502 48.001 48.027 48.001l181.258 0.002 56.162 220.369zM383.155 287.99l220.916-0.001 48.78 191.606-220.865-0.002-48.831-191.604z" />
<glyph unicode="&#xe92e;" glyph-name="bwi-id-card" data-tags="bwi-id-card" d="M576 496c0 26.509 21.491 48 48 48h160c26.509 0 48-21.491 48-48s-21.491-48-48-48h-160c-26.509 0-48 21.491-48 48zM624 384c-26.509 0-48-21.491-48-48s21.491-48 48-48h96c26.509 0 48 21.491 48 48s-21.491 48-48 48h-96zM448 480c0-53.020-42.98-96-96-96s-96 42.98-96 96c0 53.020 42.98 96 96 96s96-42.98 96-96zM352 384c21.011 0 41.817-3.895 61.229-11.463s37.050-18.66 51.908-32.643c14.857-13.983 26.643-30.584 34.684-48.854s12.179-37.849 12.179-57.625c0-22.874-18.541-41.414-41.412-41.414h-237.176c-22.871 0-41.412 18.541-41.412 41.414 0 19.776 4.138 39.355 12.179 57.625s19.827 34.871 34.684 48.854c14.858 13.983 32.496 25.076 51.908 32.643s40.218 11.463 61.229 11.463zM128 768h768c70.694 0 128-57.308 128-128v-512c0-70.694-57.306-128-128-128h-768c-70.692 0-128 57.306-128 128v512c0 70.692 57.308 128 128 128zM896 672h-768c-17.673 0-32-14.327-32-32v-512c0-17.67 14.327-32 32-32h768c17.67 0 32 14.33 32 32v512c0 17.673-14.33 32-32 32z" />
<glyph unicode="&#xe92f;" glyph-name="bwi-info-circle" data-tags="bwi-info-circle" d="M384 464c0 26.509 21.491 48 48 48h80c26.509 0 48-21.491 48-48v-352c0-26.509-21.491-48-48-48s-48 21.491-48 48v304h-32c-26.509 0-48 21.491-48 48zM512 576c35.347 0 64 28.654 64 64s-28.653 64-64 64c-35.346 0-64-28.654-64-64s28.654-64 64-64zM512-128c-282.77 0-512 229.229-512 512s229.23 512 512 512c282.771 0 512-229.23 512-512s-229.229-512-512-512zM512-32c229.754 0 416 186.246 416 416 0 229.75-186.246 416-416 416-229.75 0-416-186.25-416-416 0-229.754 186.25-416 416-416z" />
<glyph unicode="&#xe930;" glyph-name="bwi-import" data-tags="bwi-import" d="M784-128c61.856 0 112 50.144 112 112v800c0 61.856-50.144 112-112 112h-370.745c-21.217 0-41.566-8.429-56.569-23.431l-205.254-205.255c-15.003-15.003-23.432-35.352-23.432-56.569v-178.745c0-26.509 21.491-48 48-48s48 21.491 48 48v80h176c61.856 0 112 50.144 112 112v176h272c8.838 0 16-7.164 16-16v-800c0-8.838-7.162-16-16-16h-544c-8.836 0-16 7.162-16 16v96c0 26.509-21.491 48-48 48s-48-21.491-48-48v-96c0-61.856 50.144-112 112-112h544zM416 796.118v-172.118c0-8.836-7.164-16-16-16h-172.118l188.118 188.118zM128 256.001c0 26.51 21.491 48 48 48h373.111l-56.987 64.11c-17.612 19.813-15.827 50.153 3.987 67.765s50.153 15.827 67.765-3.987l128.003-143.999c16.16-18.187 16.16-45.593 0-63.782l-128.003-144c-17.612-19.814-47.951-21.594-67.765-3.987-19.814 17.613-21.599 47.955-3.987 67.77l56.988 64.109h-373.112c-26.509 0-48 21.491-48 48.001z" />
<glyph unicode="&#xe931;" glyph-name="bwi-key" data-tags="bwi-key" d="M704 512c35.347 0 64 28.654 64 64s-28.653 64-64 64c-35.347 0-64-28.654-64-64s28.653-64 64-64zM640 128c212.077 0 384 171.923 384 384s-171.923 384-384 384c-212.077 0-384-171.923-384-384 0-38.795 5.753-76.246 16.452-111.548l-253.707-253.707c-12.002-12-18.745-28.282-18.745-45.254v-165.491c0-35.347 28.654-64 64-64h192c35.346 0 64 28.653 64 64v64h64c35.346 0 64 28.653 64 64v64l35.572 33.203c47.78-21.338 100.718-33.203 156.428-33.203zM381.011 373.247l-16.686 55.052c-7.993 26.371-12.325 54.444-12.325 83.702 0 159.058 128.942 288 288 288s288-128.942 288-288-128.941-288-288-288c-41.959 0-81.579 8.915-117.281 24.858l-58.118 25.954-112.602-105.096v-73.715h-128v-128h-128v120.237l285.011 285.010z" />
<glyph unicode="&#xe933;" glyph-name="bwi-list-alt" data-tags="bwi-list-alt" d="M256 576c0-35.346 28.654-64 64-64s64 28.654 64 64c0 35.346-28.654 64-64 64s-64-28.654-64-64zM320 320c-35.346 0-64 28.654-64 64s28.654 64 64 64c35.346 0 64-28.654 64-64s-28.654-64-64-64zM320 128c-35.346 0-64 28.653-64 64s28.654 64 64 64c35.346 0 64-28.653 64-64s-28.654-64-64-64zM448 576c0 26.509 21.491 48 48 48h224c26.509 0 48-21.491 48-48s-21.491-48-48-48h-224c-26.509 0-48 21.491-48 48zM448 384c0 26.509 21.491 48 48 48h224c26.509 0 48-21.491 48-48s-21.491-48-48-48h-224c-26.509 0-48 21.491-48 48zM496 240c-26.509 0-48-21.491-48-48s21.491-48 48-48h224c26.509 0 48 21.491 48 48s-21.491 48-48 48h-224zM64 704v-640c0-70.694 57.308-128 128-128h640c70.694 0 128 57.306 128 128v640c0 70.692-57.306 128-128 128h-640c-70.692 0-128-57.308-128-128zM192 736h640c17.67 0 32-14.327 32-32v-640c0-17.67-14.33-32-32-32h-640c-17.673 0-32 14.33-32 32v640c0 17.673 14.327 32 32 32z" />
<glyph unicode="&#xe934;" glyph-name="bwi-list" data-tags="bwi-list" d="M192 608c-35.346 0-64 28.654-64 64s28.654 64 64 64c35.346 0 64-28.654 64-64s-28.654-64-64-64zM128 384c0-35.346 28.654-64 64-64s64 28.654 64 64c0 35.346-28.654 64-64 64s-64-28.654-64-64zM128 96c0-35.347 28.654-64 64-64s64 28.653 64 64c0 35.347-28.654 64-64 64s-64-28.653-64-64zM432 720c-26.509 0-48-21.491-48-48s21.491-48 48-48h480c26.509 0 48 21.491 48 48s-21.491 48-48 48h-480zM432 432c-26.509 0-48-21.491-48-48s21.491-48 48-48h480c26.509 0 48 21.491 48 48s-21.491 48-48 48h-480zM384 96c0 26.509 21.491 48 48 48h480c26.509 0 48-21.491 48-48s-21.491-48-48-48h-480c-26.509 0-48 21.491-48 48z" />
<glyph unicode="&#xe935;" glyph-name="bwi-lock-encrypted" data-tags="bwi-lock-encrypted" d="M256 640v-64h-64c-70.692 0-128-57.308-128-128v-384c0-70.694 57.308-128 128-128h272c26.509 0 48 21.491 48 48s-21.491 48-48 48h-272c-17.673 0-32 14.33-32 32v384c0 17.673 14.327 32 32 32h640c17.67 0 32-14.327 32-32 0-26.509 21.491-48 48-48s48 21.491 48 48c0 70.692-57.306 128-128 128h-64v64c0 141.385-114.618 256-256 256-141.385 0-256-114.615-256-256zM672 640v-64h-320v64c0 88.365 71.635 160 160 160s160-71.635 160-160zM816.269 306.305c0 26.509-21.491 48-48 48s-48-21.491-48-48v-136.936l-128.802 42.189c-25.193 8.25-52.305-5.485-60.556-30.675-8.252-25.197 5.482-52.307 30.675-60.557l129.66-42.47-80.715-113.043c-15.404-21.574-10.402-51.552 11.172-66.957s51.552-10.4 66.957 11.174l79.616 111.507 79.622-111.507c15.405-21.574 45.382-26.579 66.957-11.174s26.573 45.382 11.168 66.957l-80.723 113.050 129.645 42.464c25.19 8.25 38.925 35.366 30.669 60.557-8.25 25.19-35.36 38.925-60.557 30.675l-128.787-42.189v136.936z" />
<glyph unicode="&#xe936;" glyph-name="bwi-lock-f" data-tags="bwi-lock-f" d="M512 896c-141.385 0-256-114.615-256-256v-64h-64c-70.692 0-128-57.308-128-128v-384c0-70.694 57.308-128 128-128h640c70.694 0 128 57.306 128 128v384c0 70.692-57.306 128-128 128h-64v64c0 141.385-114.618 256-256 256zM672 576h-320v64c0 88.365 71.635 160 160 160s160-71.635 160-160v-64zM464 336c0 26.509 21.491 48 48 48s48-21.491 48-48v-160c0-26.509-21.491-48-48-48s-48 21.491-48 48v160z" />
<glyph unicode="&#xe937;" glyph-name="bwi-lock" data-tags="bwi-lock" d="M512 384c-26.509 0-48-21.491-48-48v-160c0-26.509 21.491-48 48-48s48 21.491 48 48v160c0 26.509-21.491 48-48 48zM256 640c0 141.385 114.615 256 256 256 141.382 0 256-114.615 256-256v-64h64c70.694 0 128-57.308 128-128v-384c0-70.694-57.306-128-128-128h-640c-70.692 0-128 57.306-128 128v384c0 70.692 57.308 128 128 128h64v64zM672 640c0 88.365-71.635 160-160 160s-160-71.635-160-160v-64h320v64zM192 480c-17.673 0-32-14.327-32-32v-384c0-17.67 14.327-32 32-32h640c17.67 0 32 14.33 32 32v384c0 17.673-14.33 32-32 32h-640z" />
<glyph unicode="&#xe938;" glyph-name="bwi-shield" data-tags="bwi-shield" d="M925.982 883.203c-3.859 4.059-8.506 7.289-13.651 9.49-5.152 2.201-10.701 3.327-16.301 3.31h-767.997c-5.603 0.032-11.153-1.087-16.306-3.289s-9.797-5.439-13.646-9.511c-4.063-3.856-7.294-8.503-9.495-13.653s-3.326-10.697-3.305-16.299v-512c0.15-38.978 7.709-77.572 22.272-113.727 13.859-35.686 32.481-69.338 55.36-100.032 23.516-30.739 49.848-59.213 78.656-85.056 26.735-24.512 54.879-47.443 84.288-68.672 25.6-18.176 52.48-35.392 80.64-51.648s48.042-27.245 59.648-32.96c11.712-5.76 21.184-10.304 28.224-13.312 5.504-2.65 11.556-3.968 17.661-3.84 6.022-0.083 11.974 1.306 17.344 4.032 7.168 3.136 16.512 7.552 28.352 13.312s32 16.768 59.648 32.96c27.648 16.192 54.848 33.472 80.64 51.648 29.446 21.235 57.632 44.166 84.416 68.672 28.838 25.811 55.174 54.291 78.656 85.056 22.861 30.707 41.478 64.352 55.36 100.032 14.586 36.148 22.144 74.747 22.272 113.727v512c0.026 5.568-1.088 11.082-3.283 16.201-2.189 5.119-5.408 9.734-9.453 13.559v0zM826.974 336.579c0-185.599-314.944-345.023-314.944-345.023v794.751h314.944v-449.728z" />
<glyph unicode="&#xe939;" glyph-name="bwi-minus-circle" data-tags="bwi-minus-circle" d="M304 432c-26.509 0-48-21.491-48-48s21.491-48 48-48h416c26.509 0 48 21.491 48 48s-21.491 48-48 48h-416zM1024 384c0 282.77-229.229 512-512 512s-512-229.23-512-512c0-282.771 229.23-512 512-512s512 229.229 512 512zM928 384c0-229.754-186.246-416-416-416-229.75 0-416 186.246-416 416 0 229.75 186.25 416 416 416 229.754 0 416-186.25 416-416z" />
<glyph unicode="&#xe93a;" glyph-name="bwi-mobile" data-tags="bwi-mobile" d="M432 704c-26.509 0-48-21.491-48-48s21.491-48 48-48h160c26.509 0 48 21.491 48 48s-21.491 48-48 48h-160zM128 768v-768c0-70.694 57.308-128 128-128h512c70.694 0 128 57.306 128 128v768c0 70.692-57.306 128-128 128h-512c-70.692 0-128-57.308-128-128zM256 800h512c17.67 0 32-14.327 32-32v-768c0-17.67-14.33-32-32-32h-512c-17.673 0-32 14.33-32 32v768c0 17.673 14.327 32 32 32z" />
<glyph unicode="&#xe93b;" glyph-name="bwi-msp" data-tags="bwi-msp" d="M960 736c0-53.020-42.982-96-96-96-8.602 0-16.934 1.131-24.864 3.252l-115.366-115.366c27.91-41.005 44.23-90.54 44.23-143.886 0-33.699-6.509-65.876-18.342-95.344l120.826-51.786c16.032 12.013 35.942 19.13 57.517 19.13 53.018 0 96-42.982 96-96s-42.982-96-96-96c-49.171 0-89.715 36.973-95.334 84.634l-135.853 58.221c-46.592-48.595-112.169-78.854-184.813-78.854-71.249 0-135.699 29.107-182.109 76.077l-138.332-98.81c0.292-3.046 0.442-6.138 0.442-9.267 0-53.018-42.98-96-96-96s-96 42.982-96 96c0 53.018 42.981 96 96 96 14.188 0 27.656-3.078 39.775-8.602l140.573 100.41c-13.1 30.773-20.349 64.636-20.349 100.192 0 53.346 16.317 102.881 44.232 143.886l-51.366 51.366c-7.931-2.121-16.266-3.252-24.866-3.252-53.020 0-96 42.98-96 96s42.98 96 96 96c53.020 0 96-42.98 96-96 0-8.6-1.131-16.935-3.252-24.866l51.366-51.366c41.005 27.915 90.54 44.232 143.886 44.232s102.881-16.317 143.885-44.232l115.366 115.366c-2.118 7.931-3.251 16.266-3.251 24.866 0 53.020 42.982 96 96 96s96-42.98 96-96zM512 224c88.365 0 160 71.635 160 160s-71.635 160-160 160c-88.365 0-160-71.635-160-160s71.635-160 160-160z" />
<glyph unicode="&#xe93c;" glyph-name="bwi-sticky-note" data-tags="bwi-sticky-note" d="M832 832h-640c-70.692 0-128-57.308-128-128v-640c0-70.694 57.308-128 128-128h437.962c67.894 0 133.008 26.97 181.021 74.982l74.035 74.035c48.013 48.013 74.982 113.126 74.982 181.021v437.962c0 70.692-57.306 128-128 128zM192 736h640c17.67 0 32-14.327 32-32v-384h-176c-61.856 0-112-50.144-112-112v-176h-384c-17.673 0-32 14.33-32 32v640c0 17.673 14.327 32 32 32zM672 37.619v170.381c0 8.838 7.162 16 16 16h170.381c-7.264-26.656-21.37-51.226-41.242-71.098l-74.042-74.042c-19.872-19.872-44.442-33.978-71.098-41.242z" />
<glyph unicode="&#xe93d;" glyph-name="bwi-numbered-list" data-tags="bwi-numbered-list" d="M121.727 512.006v283.648l-58.88-13.824v50.176l86.528 38.4h40.448v-358.4h-68.096zM383.999 672.006c0 26.509 21.491 48 48 48h480.001c26.509 0 48-21.491 48-48s-21.491-48-48-48h-480.001c-26.509 0-48 21.49-48 48zM383.999 384.006c0 26.509 21.491 48 48 48h480.001c26.509 0 48-21.491 48-48s-21.491-48-48-48h-480.001c-26.509 0-48 21.49-48 48zM431.999 144.006c-26.509 0-48-21.491-48-48s21.491-48 48-48h480.001c26.509 0 48 21.491 48 48s-21.491 48-48 48h-480.001zM74.111-16.378v-47.616h246.785v53.76h-155.137c16.043 12.973 32.598 26.963 49.664 41.984 17.067 15.36 32.939 31.744 47.616 49.152s26.454 35.501 35.328 54.272c9.216 18.771 13.824 38.061 13.824 57.856 0 31.744-10.24 57.517-30.72 77.312-20.138 20.138-48.469 30.208-84.992 30.208-22.528 0-42.837-4.438-60.928-13.312-18.090-8.534-32.597-21.675-43.52-39.424-10.922-17.408-16.725-39.251-17.408-65.536h63.488c0 17.408 4.779 32.256 14.336 44.544s23.723 18.432 42.496 18.432c18.432 0 31.574-5.632 39.424-16.896 8.192-11.264 12.288-24.237 12.288-38.912 0-15.699-4.949-31.917-14.848-48.64-9.557-16.384-22.528-33.28-38.912-50.688-16.042-17.408-34.474-34.989-55.296-52.736-20.48-17.747-41.642-35.667-63.488-53.76z" />
<glyph unicode="&#xe93e;" glyph-name="bwi-paperclip" data-tags="bwi-paperclip" d="M594.337 743.467c54.975 55.357 144.505 55.38 199.507 0.054 54.502-54.822 54.528-143.359 0.064-198.218l-347.961-350.486c-19.264-19.405-50.643-19.418-69.92-0.026l-7.918 7.968c-19.095 19.206-19.111 50.221-0.036 69.449l287.512 289.815c18.675 18.82 18.554 49.212-0.269 67.882-18.819 18.671-49.21 18.55-67.881-0.27l-287.515-289.815c-56.233-56.683-56.184-148.12 0.108-204.747l7.918-7.962c56.831-57.165 149.337-57.133 206.129 0.070l347.962 350.485c91.648 92.311 91.597 241.289-0.115 333.537-92.55 93.098-243.198 93.057-335.701-0.090l-368.219-370.785c-124.865-125.735-124.811-328.687 0.122-454.357 126.088-126.829 331.329-126.752 457.322 0.173l306.085 308.348c18.675 18.814 18.566 49.206-0.25 67.882-18.81 18.676-49.203 18.564-67.878-0.25l-306.089-308.351c-88.466-89.114-232.577-89.171-321.109-0.115-87.722 88.237-87.761 230.74-0.086 319.025l368.22 370.785z" />
<glyph unicode="&#xe93f;" glyph-name="bwi-passkey" data-tags="bwi-passkey" d="M704 704c0-65.633-32.928-123.574-83.171-158.201 2.317-0.619 4.628-1.258 6.932-1.917 7.67-2.193 15.267-4.607 22.78-7.242 44.096-15.464 84.627-38.287 119.11-67.481 29.101-24.634 53.478-53.46 71.93-85.443 13.248-22.963 5.37-52.316-17.594-65.563s-52.314-5.37-65.562 17.593c-12.627 21.89-29.696 42.275-50.803 60.144-25.043 21.199-55.181 38.351-88.851 50.159-5.729 2.009-11.533 3.854-17.404 5.532-28.648 8.192-58.845 12.419-89.368 12.419-30.538 0-60.733-4.23-89.368-12.419-5.87-1.678-11.675-3.523-17.404-5.532-33.674-11.808-63.811-28.96-88.851-50.159-21.107-17.869-38.175-38.254-50.803-60.144-13.246-22.963-42.6-30.839-65.563-17.593s-30.839 42.6-17.592 65.563c18.45 31.983 42.831 60.81 71.928 85.443 34.484 29.194 75.013 52.017 119.112 67.481 8.269 2.9 16.642 5.533 25.101 7.899 1.534 0.429 3.071 0.849 4.611 1.26-50.241 34.627-83.172 92.568-83.172 158.2 0 106.038 85.961 192 192 192s191.998-85.962 191.998-192zM512.002 608c53.020 0 96 42.98 96 96s-42.98 96-96 96c-53.020 0-96-42.98-96-96s42.98-96 96-96zM501.075 0c-26.357-74.573-97.476-128-181.075-128-106.038 0-192 85.958-192 192s85.962 192 192 192c83.598 0 154.717-53.427 181.075-128h293.313c3.635 0 7.162-1.235 9.997-3.507l62.195-49.754c8.48-6.79 13.421-17.062 13.421-27.93 0-9.478-3.77-18.579-10.477-25.286l-75.27-75.27c-6.566-6.566-15.469-10.253-24.749-10.253-11.021 0-21.395 5.184-28.006 14.003l-37.498 49.997h-16l-38.4-51.2c-6.042-8.058-15.528-12.8-25.6-12.8s-19.556 4.742-25.6 12.8l-38.4 51.2h-58.925zM288 0c35.346 0 64 28.653 64 64s-28.654 64-64 64c-35.346 0-64-28.653-64-64s28.654-64 64-64z" />
<glyph unicode="&#xe940;" glyph-name="bwi-pencil-square" data-tags="bwi-pencil-square" d="M768.806 852.665c43.738 43.739 114.65 43.739 158.387 0l53.491-53.49c43.738-43.739 43.738-114.653 0-158.392l-338.746-338.746c-6.149-6.152-13.857-10.516-22.297-12.625l-192-47.997c-16.357-4.090-33.661 0.698-45.583 12.621-11.923 11.924-16.716 29.228-12.626 45.585l48 192c2.11 8.44 6.474 16.148 12.626 22.3l338.747 338.745zM859.315 784.783c-6.246 6.248-16.378 6.248-22.63 0l-41.331-41.336c2.317-1.61 4.525-3.448 6.586-5.514l64-64c2.074-2.070 3.917-4.284 5.53-6.607l41.338 41.338c6.246 6.248 6.246 16.379 0 22.627l-53.491 53.491zM804.666 600.525c-2.323 1.613-4.538 3.455-6.605 5.526l-64 64c-2.067 2.065-3.904 4.273-5.517 6.589l-221.201-221.202-25.373-101.491 101.491 25.373 221.205 221.204zM240 735.992c-44.183 0-80-35.818-80-80v-543.999c0-44.186 35.817-80 80-80h544c44.186 0 80 35.814 80 80v223.999c0 26.509 21.491 48 48 48s48-21.491 48-48v-223.999c0-97.203-78.797-176-176-176h-544c-97.202 0-176 78.797-176 176v543.999c0 97.202 78.798 176 176 176h224c26.509 0 48-21.491 48-48s-21.491-48-48-48h-224z" />
<glyph unicode="&#xe941;" glyph-name="bwi-pencil" data-tags="bwi-pencil" d="M940.454 839.451c-68.736 68.732-180.173 68.732-248.902 0l-613.492-613.492c-6.84-6.835-11.454-15.584-13.236-25.094l-48-256c-2.92-15.571 2.033-31.584 13.237-42.784 11.204-11.206 27.214-16.16 42.787-13.242l256 48c9.508 1.786 18.255 6.4 25.095 13.242l613.489 613.489c68.736 68.732 68.736 180.169 0 248.902l-26.976 26.98zM759.43 771.569c31.245 31.242 81.894 31.242 113.139 0l26.982-26.98c31.238-31.242 31.238-81.896 0-113.137l-59.552-59.549-140.115 140.118 59.546 59.549zM632.001 644.137l140.121-140.118-475.562-475.558-172.453-32.333 32.335 172.448 475.558 475.561z" />
<glyph unicode="&#xe942;" glyph-name="bwi-plus-circle" data-tags="bwi-plus-circle" d="M560 592c0 26.509-21.491 48-48 48s-48-21.491-48-48v-160h-160c-26.509 0-48-21.491-48-48s21.491-48 48-48h160v-160c0-26.509 21.491-48 48-48s48 21.491 48 48v160h160c26.509 0 48 21.491 48 48s-21.491 48-48 48h-160v160zM1024 384c0 282.77-229.229 512-512 512s-512-229.23-512-512c0-282.771 229.23-512 512-512s512 229.229 512 512zM928 384c0-229.754-186.246-416-416-416-229.75 0-416 186.246-416 416 0 229.75 186.25 416 416 416 229.754 0 416-186.25 416-416z" />
<glyph unicode="&#xe943;" glyph-name="bwi-plus" data-tags="bwi-plus" d="M512 896c26.509 0 48-21.49 48-48v-416h416c26.509 0 48-21.491 48-48s-21.491-48-48-48h-416v-416c0-26.509-21.491-48-48-48s-48 21.491-48 48v416h-416c-26.51 0-48 21.491-48 48s21.49 48 48 48h416v416c0 26.51 21.491 48 48 48z" />
<glyph unicode="&#xe944;" glyph-name="bwi-popout" data-tags="bwi-popout" d="M832 224c17.67 0 32 14.33 32 32v448c0 17.673-14.33 32-32 32h-448c-17.673 0-32-14.327-32-32v-256c0-26.509-21.491-48-48-48s-48 21.491-48 48v256c0 70.692 57.308 128 128 128h448c70.694 0 128-57.308 128-128v-448c0-70.694-57.306-128-128-128h-256c-26.509 0-48 21.491-48 48s21.491 48 48 48h256zM112 576c26.509 0 48-21.491 48-48v-464c0-17.67 14.327-32 32-32h464c26.509 0 48-21.491 48-48s-21.491-48-48-48h-464c-70.692 0-128 57.306-128 128v464c0 26.509 21.491 48 48 48zM496 640c-26.509 0-48-21.491-48-48s21.491-48 48-48h108.118l-270.059-270.059c-18.745-18.748-18.745-49.135 0-67.88s49.137-18.746 67.882 0l270.059 270.057v-108.118c0-26.509 21.491-48 48-48s48 21.491 48 48v224c0 26.509-21.491 48-48 48h-224z" />
<glyph unicode="&#xe945;" glyph-name="bwi-provider" data-tags="bwi-provider" horiz-adv-x="1152" d="M635.8 795.087c-36.799 15.332-77.712 17.718-116.044 6.767l-242.525-69.293-137.236 38.597c-40.826 11.482-81.328-19.199-81.328-61.61v-303.469c0-28.025 12.246-54.65 33.524-72.889l236.020-202.304c35.832-30.714 78.324-52.659 124.109-64.109l241.31-60.326c48.582-12.147 97.805 17.389 109.952 65.971l1.946 7.795c38.374 2.63 71.219 29.35 81.318 66.938l4.877 18.182h20.275c28.538 0 55.411 13.434 72.538 36.262l23.13 30.848c49.152 11.846 85.67 56.102 85.67 108.888v368.322c0 42.277-40.269 72.938-81.024 61.695l-128.147-35.35h-106.566l-141.8 59.084zM546.129 709.547c17.246 4.927 35.643 3.915 52.236-2.865-14.541-8.399-28.174-18.509-40.584-30.203l-189.165-178.252c-41.525-39.13-39.96-105.625 3.361-142.756l29.416-25.215c63.511-54.438 156.564-56.652 222.593-5.297l77.965 60.641 98.381-87.448c16.23-14.428 34.003-26.753 52.89-36.817h-35.117l-22.912-85.336h-64.672l-18.778-75.123-236.139 59.034c-31.327 7.834-60.4 22.848-84.917 43.866l-236.020 202.303v261.228l122.769-34.529 268.692 76.769zM909.005 643.267l88.333 24.367v-326.299c0-8.836-7.168-16-16-16-43.219 0-84.928 15.859-117.229 44.568l-158.061 140.5-141-109.667c-30.013-23.344-72.31-22.337-101.179 2.408l-29.417 25.214 189.165 178.252c22.763 21.447 52.849 33.391 84.126 33.391h177.146c8.147 0 16.256 1.098 24.115 3.265zM233.911 121.773c-20.127 17.254-50.43 14.925-67.682-5.203s-14.922-50.432 5.206-67.686l109.394-93.76c33.341-28.582 74.515-46.458 118.159-51.309l139.718-15.526c26.348-2.925 50.079 16.064 53.007 42.406 2.928 26.349-16.058 50.080-42.405 53.011l-139.718 15.52c-24.483 2.72-47.581 12.749-66.284 28.781l-109.394 93.766z" />
<glyph unicode="&#xe946;" glyph-name="bwi-puzzle" data-tags="bwi-puzzle" d="M32 656c0 61.856 50.144 112 112 112h576c61.856 0 112-50.144 112-112v-105.862c14.694 6.261 30.816 9.862 48 9.862 45.005 0 82.093-24.435 106.285-56.691 24.179-32.241 37.715-74.582 37.715-119.309s-13.536-87.069-37.715-119.309c-24.192-32.255-61.28-56.691-106.285-56.691-17.184 0-33.306 3.603-48 9.862v-105.862c0-61.856-50.144-112-112-112h-186.667c-38.291 0-69.333 31.040-69.333 69.331v67.667c0 25.152 13.344 45.382 29.423 57.318 14.298 10.611 18.577 21.632 18.577 29.696 0 8.013-4.22 18.925-18.291 29.478-14.086 10.565-35.745 18.518-61.709 18.518s-47.624-7.953-61.709-18.518c-14.071-10.554-18.291-21.466-18.291-29.478 0-8.064 4.279-19.085 18.577-29.696 16.079-11.936 29.423-32.166 29.423-57.318v-67.667c0-38.291-31.041-69.331-69.333-69.331h-186.667c-61.856 0-112 50.144-112 112v544zM144 672c-8.836 0-16-7.164-16-16v-544c0-8.838 7.164-16 16-16h160v28.73c-27.857 24.083-48 58.406-48 99.283 0 45.002 24.435 82.087 56.691 106.279 32.241 24.181 74.582 37.718 119.309 37.718s87.069-13.537 119.309-37.718c32.256-24.192 56.691-61.277 56.691-106.279 0-40.877-20.143-75.2-48-99.283v-28.73h160c8.838 0 16 7.162 16 16v154.667c0 38.292 31.040 69.333 69.331 69.333h1.299c21.069 0 38.483-9.475 50.176-20.932 8.518-8.339 16.563-11.068 23.194-11.068 8.013 0 18.931 4.22 29.485 18.291 10.56 14.086 18.515 35.745 18.515 61.709s-7.955 47.624-18.515 61.709c-10.554 14.071-21.472 18.291-29.485 18.291-6.63 0-14.675-2.729-23.194-11.068-11.693-11.457-29.107-20.932-50.176-20.932h-1.299c-38.291 0-69.331 31.041-69.331 69.333v154.667c0 8.836-7.162 16-16 16h-576z" />
<glyph unicode="&#xe947;" glyph-name="bwi-question-circle" data-tags="bwi-question-circle" d="M481.461 259.327c-28.342 0-51.507 22.611-52.194 50.944l-1.157 47.732c-0.654 26.957 21.038 48.728 47.956 50.319 70.051 4.141 147.933 22.867 147.933 106.364 0 55.248-46.555 92.288-101.082 92.288-42.786 0-84.1-24.041-100.031-68.893-7.919-22.297-26.068-42.082-49.73-42.082-21.321 0-40.006 15.809-38.575 37.082 6.413 95.305 90.134 170.918 188.335 170.918 114.287 0 197.082-71.7 197.082-190.209 0-111.757-76.883-181.209-185.562-182.784l-0.803-21.427c-1.052-28.053-24.1-50.253-52.173-50.253zM488 64c39.764 0 72 28.653 72 64s-32.236 64-72 64c-39.764 0-72-28.653-72-64s32.236-64 72-64zM512-128c-282.77 0-512 229.229-512 512s229.23 512 512 512c282.771 0 512-229.23 512-512s-229.229-512-512-512zM512-32c229.754 0 416 186.246 416 416 0 229.75-186.246 416-416 416-229.75 0-416-186.25-416-416 0-229.754 186.25-416 416-416z" />
<glyph unicode="&#xe948;" glyph-name="bwi-refresh" data-tags="bwi-refresh" d="M512 896c-17.673 0-35.137-0.895-52.349-2.643-258.179-26.22-459.651-244.26-459.651-509.357 0-140.512 56.604-267.808 148.254-360.32 92.785-93.664 221.491-151.68 363.746-151.68 121.103 0 232.352 42.035 319.994 112.294 15.334 12.288 29.946 25.44 43.75 39.386l0.595 0.608c59.398 60.166 104.006 134.97 127.923 218.496 7.302 25.486-7.443 52.062-32.928 59.361s-52.058-7.444-59.36-32.929c-19.43-67.839-55.654-128.575-103.878-177.433l-0.55-0.544c-11.238-11.341-23.117-22.042-35.59-32.038-71.226-57.069-161.62-91.2-259.955-91.2-115.583 0-220.157 47.136-295.546 123.238-74.465 75.168-120.454 178.595-120.454 292.762 0 204.452 147.491 374.456 341.878 409.416 24.052 4.326 48.824 6.584 74.122 6.584 147.219 0 276.653-76.474 350.618-192h-110.618c-26.509 0-48-21.491-48-48s21.491-48 48-48h224c26.509 0 48 21.491 48 48v224c0 26.509-21.491 48-48 48s-48-21.491-48-48v-101.473c-92.896 129.229-244.576 213.473-416 213.473z" />
<glyph unicode="&#xe949;" glyph-name="bwi-search" data-tags="bwi-search" d="M729.434 99.411c1.389-1.869 2.931-3.654 4.627-5.35l192-192c18.746-18.746 49.133-18.746 67.878 0s18.746 49.133 0 67.878l-192 192c-1.696 1.696-3.482 3.238-5.35 4.627 62.176 76.915 99.411 174.826 99.411 281.434 0 247.423-200.576 448-448 448s-448-200.577-448-448c0-247.424 200.577-448 448-448 106.607 0 204.518 37.235 281.434 99.411zM800 448c0-194.406-157.594-352-352-352-194.404 0-352 157.594-352 352 0 194.404 157.596 352 352 352 194.406 0 352-157.596 352-352z" />
<glyph unicode="&#xe94a;" glyph-name="bwi-send" data-tags="bwi-send" d="M384 217.818l-278.799 126.728c-61.264 27.848-62.864 114.288-2.673 144.384l778.528 389.264c59.072 29.536 126.464-21.182 114.438-86.121l-139.462-753.096c-10.458-56.474-75.251-83.853-123.034-51.994l-102.219 68.141-108.775-97.894c-15.184-13.67-34.888-21.229-55.316-21.229-45.668 0-82.689 37.018-82.689 82.688v199.13zM175.458 418.063l230.632-104.833 232.511 225.245c19.043 18.445 49.43 17.963 67.875-1.078s17.958-49.428-1.082-67.873l-213.256-206.595 273.916-182.615 129.197 697.645-719.793-359.896zM548.34 110.086l-68.34 45.555v-107.066l68.34 61.51z" />
<glyph unicode="&#xe94b;" glyph-name="bwi-share" data-tags="bwi-share" d="M623.187 513.928l-179.407-89.704c2.765-12.972 4.22-26.428 4.22-40.224s-1.455-27.252-4.22-40.224l179.407-89.702c35.201 40.396 87.028 65.926 144.813 65.926 106.042 0 192-85.958 192-192s-85.958-192-192-192c-106.042 0-192 85.958-192 192 0 13.798 1.455 27.251 4.22 40.224l-179.407 89.704c-35.199-40.398-87.025-65.928-144.813-65.928-106.038 0-192 85.962-192 192s85.962 192 192 192c57.789 0 109.614-25.53 144.813-65.928l179.407 89.704c-2.765 12.972-4.22 26.428-4.22 40.224 0 106.038 85.958 192 192 192s192-85.962 192-192c0-106.038-85.958-192-192-192-57.786 0-109.613 25.53-144.813 65.928zM768 544c53.018 0 96 42.98 96 96s-42.982 96-96 96c-53.018 0-96-42.98-96-96 0-12.71 2.47-24.842 6.957-35.944 1.472-2.055 2.81-4.253 3.974-6.589 1.165-2.321 2.118-4.692 2.874-7.091 16.819-27.796 47.334-46.376 82.195-46.376zM338.196 433.624c-16.818 27.796-47.337 46.376-82.196 46.376-53.020 0-96-42.98-96-96s42.98-96 96-96c34.859 0 65.378 18.579 82.196 46.376 0.756 2.399 1.711 4.769 2.872 7.091 1.168 2.336 2.5 4.535 3.977 6.59 4.486 11.102 6.956 23.235 6.956 35.944s-2.47 24.842-6.956 35.944c-1.476 2.055-2.809 4.254-3.977 6.59-1.161 2.321-2.116 4.692-2.872 7.091zM672 128c0-53.018 42.982-96 96-96s96 42.982 96 96c0 53.018-42.982 96-96 96-34.861 0-65.376-18.579-82.195-46.374-0.755-2.4-1.709-4.768-2.874-7.091-1.165-2.336-2.502-4.538-3.974-6.592-4.486-11.098-6.957-23.232-6.957-35.942z" />
<glyph unicode="&#xe94c;" glyph-name="bwi-sign-in" data-tags="bwi-sign-in" d="M112 432.001c-26.509 0-48-21.49-48-48s21.491-48 48-48h389.112l-56.988-64.111c-17.612-19.812-15.827-50.155 3.987-67.768 19.814-17.606 50.153-15.827 67.765 3.987l128.003 144.003c16.16 18.187 16.16 45.592 0 63.779l-128.003 143.999c-17.612 19.813-47.952 21.598-67.765 3.986s-21.598-47.952-3.987-67.765l56.987-64.11h-389.111zM496 32c-26.509 0-48-21.491-48-48s21.491-48 48-48h288c61.856 0 112 50.144 112 112v672c0 61.856-50.144 112-112 112h-288c-26.509 0-48-21.491-48-48s21.491-48 48-48h288c8.838 0 16-7.164 16-16v-672c0-8.838-7.162-16-16-16h-288z" />
<glyph unicode="&#xe94d;" glyph-name="bwi-sign-out" data-tags="bwi-sign-out" d="M960 688c0-26.509-21.491-48-48-48s-48 21.491-48 48v32c0 8.836-7.162 16-16 16h-672c-8.836 0-16-7.164-16-16v-672c0-8.838 7.164-16 16-16h672c8.838 0 16 7.162 16 16v32c0 26.509 21.491 48 48 48s48-21.491 48-48v-32c0-61.856-50.144-112-112-112h-672c-61.856 0-112 50.144-112 112v672c0 61.856 50.144 112 112 112h672c61.856 0 112-50.144 112-112v-32zM432 432.001c-26.509 0-48-21.491-48-48s21.491-48 48-48h389.114l-56.992-64.111c-17.606-19.812-15.827-50.155 3.987-67.768 19.814-17.606 50.157-15.827 67.77 3.987l128 144.003c16.16 18.186 16.16 45.592 0 63.779l-128 143.999c-17.613 19.814-47.955 21.598-67.77 3.986s-21.594-47.951-3.987-67.765l56.992-64.109h-389.114z" />
<glyph unicode="&#xe94e;" glyph-name="bwi-sliders" data-tags="bwi-sliders" d="M48 752c-26.51 0-48-21.491-48-48s21.49-48 48-48h89.304c18.988-46.909 64.978-80 118.696-80s99.708 33.091 118.696 80h601.304c26.509 0 48 21.491 48 48s-21.491 48-48 48h-601.304c-18.988 46.909-64.978 80-118.696 80s-99.708-33.091-118.696-80h-89.304zM288 704c0-17.673-14.327-32-32-32s-32 14.327-32 32c0 17.673 14.327 32 32 32s32-14.327 32-32zM137.304 112h-89.304c-26.51 0-48-21.491-48-48s21.49-48 48-48h89.304c18.988-46.912 64.978-80 118.696-80s99.708 33.088 118.696 80h601.304c26.509 0 48 21.491 48 48s-21.491 48-48 48h-601.304c-18.988 46.912-64.978 80-118.696 80s-99.708-33.088-118.696-80zM288 64c0-17.67-14.327-32-32-32s-32 14.33-32 32c0 17.67 14.327 32 32 32s32-14.33 32-32zM886.694 432c-18.989 46.909-64.979 80-118.694 80s-99.706-33.091-118.694-80h-601.306c-26.51 0-48-21.491-48-48s21.49-48 48-48h601.306c18.989-46.909 64.979-80 118.694-80s99.706 33.091 118.694 80h89.306c26.509 0 48 21.491 48 48s-21.491 48-48 48h-89.306zM768 352c-17.67 0-32 14.327-32 32s14.33 32 32 32c17.67 0 32-14.327 32-32s-14.33-32-32-32z" />
<glyph unicode="&#xe94f;" glyph-name="bwi-spinner" data-tags="bwi-spinner" d="M608 800c0-53.020-42.98-96-96-96s-96 42.98-96 96c0 53.019 42.98 96 96 96s96-42.981 96-96zM928 288c-53.018 0-96 42.98-96 96s42.982 96 96 96c53.018 0 96-42.98 96-96s-42.982-96-96-96zM738.272 157.728c37.491 37.491 98.278 37.491 135.77 0 37.485-37.491 37.485-98.278 0-135.763-37.491-37.491-98.278-37.491-135.77 0-37.491 37.485-37.491 98.272 0 135.763zM608-32c0-53.018-42.98-96-96-96s-96 42.982-96 96c0 53.018 42.98 96 96 96s96-42.982 96-96zM0 384c0-53.020 42.981-96 96-96s96 42.98 96 96c0 53.020-42.98 96-96 96s-96-42.98-96-96zM285.726 21.958c-37.491-37.491-98.275-37.491-135.764 0s-37.491 98.278 0 135.77c37.49 37.485 98.274 37.485 135.764 0 37.49-37.491 37.49-98.278 0-135.77zM149.962 746.039c37.49 37.491 98.274 37.491 135.764 0s37.491-98.274 0-135.764c-37.491-37.49-98.275-37.49-135.764 0s-37.491 98.275 0 135.764z" />
<glyph unicode="&#xe950;" glyph-name="bwi-star-f" data-tags="bwi-star-f" d="M452.89 853.056c18.605 57.259 99.611 57.259 118.216 0l89.726-276.157h290.374c60.205 0 85.235-77.042 36.525-112.43l-234.912-170.675 89.728-276.156c18.605-57.261-46.931-104.877-95.635-69.485l-234.914 170.675-234.914-170.675c-48.707-35.392-114.243 12.224-95.638 69.485l89.729 276.156-234.914 170.675c-48.707 35.388-23.675 112.43 36.531 112.43h290.369l89.729 276.157z" />
<glyph unicode="&#xe951;" glyph-name="bwi-star" data-tags="bwi-star" d="M363.161 576.899l89.729 276.157c18.605 57.259 99.611 57.259 118.216 0l89.726-276.157h290.374c60.205 0 85.235-77.042 36.525-112.43l-234.912-170.675 89.728-276.156c18.605-57.261-46.931-104.877-95.635-69.485l-234.914 170.675-234.914-170.675c-48.707-35.392-114.243 12.224-95.638 69.485l89.729 276.156-234.914 170.675c-48.707 35.388-23.675 112.43 36.531 112.43h290.369zM591.087 480.899l-79.089 243.409-79.089-243.409h-255.936l207.057-150.436-79.089-243.41 207.057 150.438 207.055-150.438-79.087 243.41 207.055 150.436h-255.934z" />
<glyph unicode="&#xe952;" glyph-name="bwi-tag" data-tags="bwi-tag" d="M704 480c53.018 0 96 42.98 96 96s-42.982 96-96 96c-53.018 0-96-42.98-96-96s42.982-96 96-96zM538.509 864c-29.704 0-58.192-11.8-79.196-32.804l-389.823-389.823c-24.005-24.004-37.491-56.562-37.491-90.509v-29.726c0-33.948 13.486-66.507 37.491-90.507l289.137-289.139c24.005-24.006 56.562-37.491 90.51-37.491h29.725c33.948 0 66.505 13.485 90.51 37.491l389.821 389.823c21.005 21.004 32.806 49.492 32.806 79.196v325.49c0 70.692-57.306 128-128 128h-325.491zM527.196 763.314c3 3 7.070 4.686 11.314 4.686h325.491c17.67 0 32-14.327 32-32v-325.49c0-4.243-1.683-8.313-4.685-11.314l-389.825-389.82c-6.001-6.003-14.141-9.376-22.628-9.376h-29.725c-8.487 0-16.627 3.373-22.628 9.376l-289.137 289.134c-6.001 6.001-9.373 14.141-9.373 22.627v29.726c0 8.487 3.372 16.627 9.373 22.627l389.823 389.823z" />
<glyph unicode="&#xe953;" glyph-name="bwi-trash" data-tags="bwi-trash" d="M414.129 896c-48.208 0-91.008-30.848-106.253-76.582l-27.805-83.418h-168.070c-26.509 0-48-21.491-48-48s21.491-48 48-48h15.997c0.002-1.405 0.065-2.823 0.192-4.25l53.629-603.334c8.072-90.803 84.145-160.416 175.309-160.416h309.747c91.162 0 167.238 69.613 175.309 160.416l53.632 603.334c0.122 1.427 0.186 2.844 0.186 4.25h16c26.509 0 48 21.491 48 48s-21.491 48-48 48h-168.070l-27.808 83.418c-15.245 45.734-58.042 76.582-106.25 76.582h-195.743zM642.739 736h-261.476l17.686 53.060c2.178 6.533 8.292 10.94 15.179 10.94h195.743c6.887 0 13.001-4.407 15.179-10.94l17.689-53.060zM224.189 640h575.619l-53.248-599.085c-3.667-41.274-38.246-72.915-79.686-72.915h-309.747c-41.438 0-76.017 31.642-79.686 72.915l-53.252 599.085z" />
<glyph unicode="&#xe954;" glyph-name="bwi-undo" data-tags="bwi-undo" d="M928 384c0-229.754-186.246-416-416-416-115.595 0-220.103 47.085-295.546 123.238-18.657 18.835-49.048 18.976-67.882 0.32s-18.976-49.050-0.319-67.878c92.732-93.613 221.501-151.68 363.746-151.68 282.771 0 512 229.229 512 512s-229.229 512-512 512c-171.423 0-323.101-84.244-416-213.473v101.473c0 26.509-21.491 48-48 48s-48-21.491-48-48v-224c0-26.509 21.49-48 48-48h224c26.509 0 48 21.491 48 48s-21.491 48-48 48h-110.615c73.964 115.526 203.398 192 350.615 192 229.754 0 416-186.25 416-416z" />
<glyph unicode="&#xe955;" glyph-name="bwi-universal-access" data-tags="bwi-universal-access" d="M608 640c0-53.020-42.98-96-96-96s-96 42.98-96 96c0 53.020 42.98 96 96 96s96-42.98 96-96zM512 287.996c-18.582 0-34.556-13.173-38.095-31.414l-34.788-179.308c-4.621-23.821-27.611-39.437-51.456-34.957-23.886 4.493-39.64 27.456-35.232 51.354l55.514 301.007c3.897 21.128-11.443 40.893-32.819 43.059-83.946 8.505-127.542 21.647-159.142 36.196-20.193 9.297-27.617 33.799-18.408 54.032 10.491 23.047 38.591 32.031 62.452 23.553 46.122-16.39 122.365-32.019 251.974-32.019 129.606 0 205.85 15.629 251.974 32.019 23.859 8.479 51.962-0.506 62.451-23.553 9.21-20.233 1.786-44.735-18.406-54.032-31.603-14.55-75.2-27.692-159.142-36.196-21.377-2.166-36.717-21.93-32.82-43.059l55.515-301.007c4.41-23.898-11.347-46.861-35.232-51.354-23.846-4.48-46.835 11.136-51.457 34.95l-34.788 179.314c-3.539 18.241-19.513 31.414-38.095 31.414zM1024 384c0 282.77-229.229 512-512 512s-512-229.23-512-512c0-282.771 229.23-512 512-512s512 229.229 512 512zM928 384c0-229.754-186.246-416-416-416-229.75 0-416 186.246-416 416 0 229.75 186.25 416 416 416 229.754 0 416-186.25 416-416z" />
<glyph unicode="&#xe956;" glyph-name="bwi-unlock" data-tags="bwi-unlock" d="M640 256c0 26.509-21.491 48-48 48h-160c-26.509 0-48-21.491-48-48s21.491-48 48-48h160c26.509 0 48 21.491 48 48zM256 640c0 141.385 114.615 256 256 256 81.997 0 155.002-38.605 201.779-98.437 16.326-20.884 12.634-51.052-8.256-67.379-20.883-16.327-51.046-12.632-67.376 8.253-29.364 37.561-74.94 61.563-126.147 61.563-88.365 0-160-71.635-160-160v-64h480c70.694 0 128-57.308 128-128v-384c0-70.694-57.306-128-128-128h-640c-70.692 0-128 57.306-128 128v384c0 70.692 57.308 128 128 128h64v64zM192 480c-17.673 0-32-14.327-32-32v-384c0-17.67 14.327-32 32-32h640c17.67 0 32 14.33 32 32v384c0 17.673-14.33 32-32 32h-640z" />
<glyph unicode="&#xe957;" glyph-name="bwi-up-down-btn" data-tags="bwi-up-down-btn" d="M591.196 856.571c-43.738 43.739-114.653 43.739-158.392 0l-217.373-217.372c-70.557-70.557-20.585-191.196 79.196-191.196h434.742c99.782 0 149.754 120.641 79.2 191.196zM808.57 639.198v0zM500.686 788.689c6.248 6.248 16.379 6.248 22.627 0l217.372-217.373c10.080-10.079 2.944-27.313-11.315-27.313h-434.742c-14.255 0-21.393 17.234-11.314 27.313l217.373 217.373zM808.57 128.813c70.554 70.554 20.582 191.196-79.2 191.196h-434.742c-99.781 0-149.752-120.642-79.196-191.196l217.373-217.376c43.738-43.738 114.653-43.738 158.392 0l217.374 217.376zM729.37 224.006c14.259 0 21.395-17.235 11.315-27.309l-217.372-217.376c-6.248-6.246-16.379-6.246-22.627 0l-217.373 217.376c-10.079 10.074-2.941 27.309 11.314 27.309h434.742z" />
<glyph unicode="&#xe958;" glyph-name="bwi-up-solid" data-tags="bwi-up-solid" d="M841.376 246.637l-284.12 284.118c-24.993 24.994-65.516 24.994-90.509 0l-284.118-284.118c-20.159-20.159-5.881-54.627 22.628-54.627h613.49c28.512 0 42.784 34.468 22.63 54.627z" />
<glyph unicode="&#xe959;" glyph-name="bwi-user-monitor" data-tags="bwi-user-monitor" d="M368 896c-61.856 0-112-50.144-112-112v-96c0-26.509 21.491-48 48-48s48 21.491 48 48v96c0 8.836 7.164 16 16 16h544c8.838 0 16-7.164 16-16v-288c0-8.836-7.162-16-16-16h-288c-26.509 0-48-21.491-48-48s21.491-48 48-48h80v-128h-80c-26.509 0-48-21.491-48-48s21.491-48 48-48h224c26.509 0 48 21.491 48 48s-21.491 48-48 48h-48v128h112c61.856 0 112 50.144 112 112v288c0 61.856-50.144 112-112 112h-544zM512 384c0-61.194-28.628-115.702-73.222-150.861 1.23-0.493 2.457-0.992 3.681-1.498 38.824-16.083 74.1-39.654 103.815-69.37s53.286-64.992 69.368-103.814c16.081-38.822 24.358-80.435 24.358-122.458 0-35.347-28.653-64-64-64h-512c-35.346 0-64 28.653-64 64 0 42.022 8.277 83.635 24.359 122.458s39.652 74.099 69.368 103.814c29.715 29.715 64.991 53.286 103.815 69.37 1.224 0.506 2.451 1.005 3.681 1.498-44.594 35.159-73.222 89.667-73.222 150.861 0 106.038 85.962 192 192 192s192-85.962 192-192zM320 288c53.020 0 96 42.98 96 96s-42.98 96-96 96c-53.020 0-96-42.98-96-96s42.98-96 96-96zM541.702-32c-2.657 18.413-7.603 36.461-14.753 53.722-11.257 27.174-27.757 51.872-48.557 72.672s-45.494 37.299-72.671 48.557c-27.177 11.258-56.305 17.050-85.721 17.050s-58.544-5.792-85.721-17.050c-27.177-11.258-51.871-27.757-72.671-48.557s-37.3-45.498-48.557-72.672c-7.15-17.261-12.096-35.309-14.753-53.722h443.405z" />
<glyph unicode="&#xe95a;" glyph-name="bwi-user" data-tags="bwi-user" d="M653.024 426.31c69.28 45.812 114.976 124.414 114.976 213.69 0 141.385-114.618 256-256 256-141.385 0-256-114.615-256-256 0-89.276 45.698-167.877 114.979-213.69-10.259-3.24-20.406-6.838-30.42-10.788-54.354-21.442-103.741-52.87-145.342-92.49s-74.6-86.655-97.114-138.418c-22.514-51.77-34.102-107.251-34.102-163.283 0-47.123 38.205-85.331 85.333-85.331h725.336c47.123 0 85.331 38.208 85.331 85.331 0 56.032-11.59 111.514-34.099 163.283-22.515 51.763-55.514 98.798-97.12 138.418-41.6 39.62-90.982 71.048-145.338 92.49-10.016 3.951-20.16 7.548-30.419 10.788zM672 640c0-88.365-71.635-160-160-160s-160 71.635-160 160c0 88.365 71.635 160 160 160s160-71.635 160-160zM837.862 146.323c15.859-36.467 24.608-75.187 25.952-114.323h-703.631c1.345 39.136 10.092 77.856 25.953 114.323 17.306 39.789 42.806 76.256 75.286 107.194 32.49 30.941 71.313 55.72 114.364 72.703 43.057 16.986 89.356 25.78 136.213 25.78s93.156-8.795 136.211-25.78c43.053-16.983 81.875-41.762 114.368-72.703 32.48-30.938 57.978-67.405 75.283-107.194z" />
<glyph unicode="&#xe95b;" glyph-name="bwi-users" data-tags="bwi-users" d="M416 672c0-23.969-5.27-46.707-14.716-67.117 31.287 22.12 69.484 35.117 110.716 35.117s79.428-12.997 110.716-35.117c-9.445 20.411-14.716 43.149-14.716 67.117 0 88.365 71.635 160 160 160s160-71.635 160-160c0-47.736-20.902-90.59-54.061-119.905 27.923-13.222 53.357-31.573 75.078-54.2 23.776-24.762 42.63-54.159 55.494-86.513s19.488-67.030 19.488-102.049c0-29.455-23.878-53.333-53.331-53.333h-266.669c12.090-9.062 23.546-18.995 34.272-29.728 29.715-29.715 53.286-64.992 69.37-103.814s24.358-80.435 24.358-122.458c0-35.347-28.653-64-64-64h-512c-35.346 0-64 28.653-64 64 0 42.022 8.277 83.635 24.358 122.458s39.652 74.099 69.368 103.814c10.731 10.733 22.187 20.666 34.274 29.728h-266.667c-29.455 0-53.333 23.878-53.333 53.333 0 35.020 6.622 69.695 19.487 102.049s31.722 61.75 55.494 86.513c21.722 22.627 47.158 40.978 75.080 54.2-33.155 29.315-54.060 72.169-54.060 119.905 0 88.365 71.635 160 160 160s160-71.635 160-160zM256 608c35.346 0 64 28.654 64 64s-28.654 64-64 64c-35.346 0-64-28.654-64-64s28.654-64 64-64zM345.686 352c-16.337 28.241-25.686 61.028-25.686 96 0 5.854 0.262 11.647 0.775 17.368-1.602 0.758-3.216 1.487-4.84 2.188-19.126 8.253-39.48 12.444-59.935 12.444s-40.808-4.191-59.935-12.444c-19.137-8.257-36.785-20.47-51.832-36.144-15.054-15.681-27.193-34.508-35.54-55.502-3.089-7.768-5.63-15.761-7.605-23.91h244.598zM678.317 352h244.595c-1.978 8.149-4.518 16.141-7.603 23.91-8.352 20.994-20.486 39.821-35.546 55.502-15.046 15.674-32.691 27.887-51.827 36.144-19.13 8.253-39.482 12.444-59.936 12.444s-40.806-4.191-59.936-12.444c-1.626-0.701-3.238-1.43-4.838-2.188 0.512-5.721 0.774-11.514 0.774-17.368 0-34.972-9.35-67.759-25.683-96zM768 608c35.347 0 64 28.654 64 64s-28.653 64-64 64c-35.347 0-64-28.654-64-64s28.653-64 64-64zM512 352c53.020 0 96 42.98 96 96s-42.98 96-96 96c-53.020 0-96-42.98-96-96s42.98-96 96-96zM733.702 32c-2.656 18.413-7.603 36.461-14.752 53.722-11.258 27.174-27.757 51.872-48.557 72.672s-45.496 37.299-72.673 48.557c-27.177 11.258-56.305 17.050-85.721 17.050s-58.544-5.792-85.721-17.050c-27.177-11.258-51.871-27.757-72.671-48.557s-37.3-45.498-48.557-72.672c-7.15-17.261-12.096-35.309-14.753-53.722h443.405z" />
<glyph unicode="&#xe95c;" glyph-name="bwi-vault" data-tags="bwi-vault" d="M569.041 332.593l19.092-11.023c22.958-13.255 30.824-42.611 17.569-65.569s-42.611-30.822-65.569-17.568l-19.136 11.046c-24.076-24.512-54.68-42.598-88.997-51.43v-22.048c0-26.509-21.491-48-48-48s-48 21.491-48 48v22.048c-34.317 8.832-64.922 26.918-88.997 51.43l-19.136-11.046c-22.958-13.254-52.314-5.389-65.569 17.568s-5.389 52.314 17.569 65.569l19.092 11.023c-4.536 16.362-6.959 33.601-6.959 51.407s2.424 35.046 6.959 51.407l-19.092 11.023c-22.958 13.255-30.824 42.611-17.569 65.569s42.611 30.824 65.569 17.569l19.136-11.048c24.076 24.515 54.68 42.598 88.997 51.43v22.049c0 26.509 21.491 48 48 48s48-21.491 48-48v-22.049c34.317-8.833 64.922-26.915 88.997-51.43l19.136 11.048c22.958 13.255 52.315 5.389 65.569-17.569s5.389-52.314-17.569-65.569l-19.092-11.023c4.536-16.362 6.959-33.601 6.959-51.407s-2.424-35.046-6.959-51.407zM301.349 335.136c16.718-28.218 47.475-47.136 82.651-47.136s65.933 18.918 82.651 47.136c0.159 0.289 0.322 0.577 0.488 0.864 0.175 0.305 0.355 0.607 0.536 0.906 7.848 13.914 12.326 29.981 12.326 47.094 0 17.115-4.479 33.183-12.328 47.098l-0.534 0.902-0.486 0.861c-16.717 28.219-47.476 47.139-82.653 47.139-35.175 0-65.931-18.918-82.65-47.133l-0.488-0.867-0.538-0.908c-7.847-13.913-12.324-29.98-12.324-47.092s4.477-33.18 12.326-47.094l0.536-0.906 0.488-0.864zM960 768h-896c-35.346 0-64-28.654-64-64v-640c0-35.347 28.654-64 64-64h64v-16c0-26.509 21.491-48 48-48s48 21.491 48 48v16h576v-16c0-26.509 21.491-48 48-48s48 21.491 48 48v16h64c35.347 0 64 28.653 64 64v640c0 35.346-28.653 64-64 64zM928 192v-96h-832v576h832v-96h-48c-26.509 0-48-21.491-48-48s21.491-48 48-48h48v-192h-48c-26.509 0-48-21.491-48-48s21.491-48 48-48h48z" />
<glyph unicode="&#xe95d;" glyph-name="bwi-wireless" data-tags="bwi-wireless" d="M44.486 431.552c20.296-18.735 52.077-16.251 71.619 3.27 95.863 95.763 236.337 157.178 395.896 157.178 159.557 0 300.031-61.414 395.896-157.177 19.539-19.521 51.322-22.006 71.616-3.271 18.701 17.258 20.742 46.292 2.982 64.512-115.296 118.283-284.749 191.936-470.495 191.936-185.743 0-355.197-73.653-470.492-191.936-17.76-18.22-15.719-47.254 2.978-64.512zM179.842 306.608c18.625-17.192 47.516-16.949 67.398-1.226 75.708 59.873 167.361 94.618 264.762 94.618s189.055-34.745 264.76-94.618c19.885-15.723 48.774-15.965 67.398 1.227 20.16 18.611 21.056 50.753-0.134 68.189-92.262 75.933-206.671 121.203-332.024 121.203s-239.759-45.27-332.025-121.203c-21.187-17.436-20.296-49.578-0.134-68.189zM323.9 173.632c19.476-17.978 49.62-16.192 71.562-1.318 33.245 22.528 73.356 35.686 116.54 35.686s83.295-13.158 116.54-35.686c21.942-14.874 52.086-16.659 71.561 1.318 19.482 17.984 20.89 48.717 0.077 65.139-51.763 40.851-117.123 65.229-188.178 65.229s-136.417-24.378-188.177-65.229c-20.814-16.422-19.407-47.155 0.076-65.139zM512.001 0c35.346 0 64 28.653 64 64s-28.654 64-64 64c-35.347 0-64-28.653-64-64s28.653-64 64-64z" />
<glyph unicode="&#xe95e;" glyph-name="bwi-wrench" data-tags="bwi-wrench" d="M792.922 829.717c12.070-34.756 3.206-73.351-22.803-99.366l-66.118-66.116v-88.236h88.237l66.112 66.116c26.016 26.015 64.614 34.874 99.366 22.808 34.758-12.067 59.565-42.934 63.859-79.473 1.606-13.63 2.426-27.465 2.426-41.451 0-194.404-157.594-352-352-352-31.456 0-62.029 4.147-91.156 11.942l-280.394-280.39c-68.732-68.736-180.169-68.736-248.901 0-68.732 68.73-68.732 180.166 0 248.896l280.393 280.396c-7.794 29.127-11.942 59.699-11.942 91.156 0 194.404 157.596 352 352 352 13.984 0 27.821-0.82 41.453-2.424 36.538-4.299 67.405-29.102 79.469-63.859zM443.437 428.574l-324.005-324.004c-31.242-31.245-31.242-81.894 0-113.139 31.242-31.238 81.895-31.238 113.137 0l324.006 324.006c34.682-17.549 73.9-27.437 115.426-27.437 87.302 0 164.397 43.701 210.605 110.42 4.256 6.146 8.25 12.487 11.968 19.008 21.274 37.329 33.427 80.531 33.427 126.572 0 10.229-0.602 20.318-1.766 30.234l-94.234-94.234h-224v224l94.234 94.234c-9.914 1.167-20.006 1.766-30.234 1.766-46.040 0-89.242-12.154-126.572-33.428-6.521-3.716-12.862-7.71-19.008-11.966-66.719-46.207-110.42-123.303-110.42-210.605 0-41.526 9.887-80.744 27.437-115.426z" />
<glyph unicode="&#xe95f;" glyph-name="bwi-paypal" data-tags="bwi-paypal" d="M938.667 479.531c0-22.87-2.771-46.251-7.206-69.419-36.141-188.544-159.834-253.696-317.826-253.696h-24.406c-19.328 0-35.754-14.253-38.741-33.664l-34.261-217.171c-3.030-19.328-19.456-33.581-38.742-33.581h-116.736c-16.64 0-29.354 14.848-26.794 31.232l59.136 378.88 2.645 2.389h91.947c223.362 0 363.048 111.702 404.181 322.902 34.643-34.731 46.803-80.043 46.803-127.872v0zM332.12 298.112c4.949 35.243 19.584 50.219 59.093 50.304l96.427 0.085c195.155 0 307.117 89.174 342.317 272.64 34.131 176.384-89.69 274.859-257.325 274.859h-313.344c-22.059 0-40.875-16.299-44.288-38.443-98.304-632.962-126.72-793.897-129.621-843.010-0.896-15.443 11.477-28.672 27.093-28.672h170.197l49.451 312.237z" />
<glyph unicode="&#xe9a2;" glyph-name="bwi-credit-card" data-tags="bwi-credit-card" d="M192 240c0 26.509 21.491 48 48 48h96c26.509 0 48-21.491 48-48s-21.491-48-48-48h-96c-26.509 0-48 21.491-48 48zM496 288c-26.509 0-48-21.491-48-48s21.491-48 48-48h160c26.509 0 48 21.491 48 48s-21.491 48-48 48h-160zM0 640v-512c0-70.694 57.308-128 128-128h768c70.694 0 128 57.306 128 128v512c0 70.692-57.306 128-128 128h-768c-70.692 0-128-57.308-128-128zM128 672h768c17.67 0 32-14.327 32-32v-64h-832v64c0 17.673 14.327 32 32 32zM928 128c0-17.67-14.33-32-32-32h-768c-17.673 0-32 14.33-32 32v320h832v-320z" />
<glyph unicode="&#xe9a3;" glyph-name="bwi-desktop" data-tags="bwi-desktop" d="M128 768h768c70.694 0 128-57.308 128-128v-384c0-70.694-57.306-128-128-128h-224v-96h48c26.509 0 48-21.491 48-48s-21.491-48-48-48h-416c-26.509 0-48 21.491-48 48s21.491 48 48 48h48v96h-224c-70.692 0-128 57.306-128 128v384c0 70.692 57.308 128 128 128zM896 672h-768c-17.673 0-32-14.327-32-32v-384c0-17.67 14.327-32 32-32h768c17.67 0 32 14.33 32 32v384c0 17.673-14.33 32-32 32zM576 32v96h-128v-96h128z" />
<glyph unicode="&#xe9bf;" glyph-name="dashboard" data-tags="bwi-dashboard" d="M640.026 896c-36.791 0-64.026-28.654-64.026-64v-256h-159.131c-36.79 0-66.614-28.653-66.614-64v-256h-155.642c-36.79 0-66.614-28.653-66.614-64v-255.757c0-35.347 29.824-64 66.614-64h155.642v-0.23l479.133-0.013c36.787 0 66.611 28.653 66.611 64v896c0 35.346-29.824 64-66.611 64h-189.363zM673.331 799.999h122.746v-831.999h-122.746v831.999zM350.255 160v-191.757h-122.335v191.757h122.335zM448-31.987v178.97c0 2.426 0.273 7.411 0 9.766v323.251h128v-511.987h-128z" />
<glyph unicode="&#xe9c1;" glyph-name="bwi-archive" data-tags="bwi-archive" d="M432.792 416.78c-26.509 0-48-21.528-48-48.083s21.491-48.083 48-48.083h160c26.509 0 48.001 21.528 48.001 48.083s-21.492 48.083-48.001 48.083h-160zM64.003 511.788h32.282l-0.001-447.564c0-70.816 57.308-128.224 128-128.224h576.586c70.694 0 128 57.408 128 128.224v447.564h31.136c35.341 0 64 28.703 64 64.111l-0.006 127.99c0 35.408-28.653 64.111-64 64.111h-896c-35.346 0-64-28.703-64-64.111l0.003-127.99c0-35.407 28.654-64.111 64-64.111zM96.003 607.955l-0.003 63.879h832l0.006-62.493h-831.722v-1.386h-0.282zM192.284 64.224l0.001 447.564h640.586v-447.564c0-17.702-14.33-32.058-32-32.058h-576.586c-17.673 0-32 14.355-32 32.058z" />
</font>
</defs>
</svg>
