<svg width="24" height="24" viewBox="0 0 24 24" fill="none" xmlns="http://www.w3.org/2000/svg">
<path d="M12.0003 6C11.4503 6 10.9795 5.80417 10.5878 5.4125C10.1961 5.02083 10.0003 4.55 10.0003 4C10.0003 3.45 10.1961 2.97917 10.5878 2.5875C10.9795 2.19583 11.4503 2 12.0003 2C12.5503 2 13.0211 2.19583 13.4128 2.5875C13.8045 2.97917 14.0003 3.45 14.0003 4C14.0003 4.55 13.8045 5.02083 13.4128 5.4125C13.0211 5.80417 12.5503 6 12.0003 6ZM9.00028 21V9C8.18362 8.93333 7.35862 8.84167 6.52528 8.725C5.69195 8.60833 4.87528 8.45833 4.07528 8.275C3.79195 8.20833 3.56278 8.05 3.38778 7.8C3.21278 7.55 3.16695 7.28333 3.25028 7C3.33362 6.71667 3.50862 6.50833 3.77528 6.375C4.04195 6.24167 4.32528 6.20833 4.62528 6.275C5.79195 6.525 7.00445 6.70833 8.26278 6.825C9.52112 6.94167 10.767 7 12.0003 7C13.2336 7 14.4795 6.94167 15.7378 6.825C16.9961 6.70833 18.2086 6.525 19.3753 6.275C19.6753 6.20833 19.9586 6.24167 20.2253 6.375C20.492 6.50833 20.667 6.71667 20.7503 7C20.8336 7.28333 20.7878 7.55 20.6128 7.8C20.4378 8.05 20.2086 8.20833 19.9253 8.275C19.1253 8.45833 18.3086 8.60833 17.4753 8.725C16.642 8.84167 15.817 8.93333 15.0003 9V21C15.0003 21.2833 14.9045 21.5208 14.7128 21.7125C14.5211 21.9042 14.2836 22 14.0003 22C13.717 22 13.4795 21.9042 13.2878 21.7125C13.0961 21.5208 13.0003 21.2833 13.0003 21V16H11.0003V21C11.0003 21.2833 10.9045 21.5208 10.7128 21.7125C10.5211 21.9042 10.2836 22 10.0003 22C9.71695 22 9.47945 21.9042 9.28778 21.7125C9.09612 21.5208 9.00028 21.2833 9.00028 21Z" fill="#101828"/>
</svg>
