<svg width="24" height="24" viewBox="0 0 24 24" fill="none" xmlns="http://www.w3.org/2000/svg">
<path d="M11.9998 18.1L14.3248 15.775C14.5248 15.575 14.7665 15.475 15.0498 15.475C15.3331 15.475 15.5748 15.575 15.7748 15.775C15.9748 15.975 16.0748 16.2167 16.0748 16.5C16.0748 16.7833 15.9748 17.025 15.7748 17.225L12.6998 20.3C12.5998 20.4 12.4915 20.4708 12.3748 20.5125C12.2581 20.5542 12.1331 20.575 11.9998 20.575C11.8665 20.575 11.7415 20.5542 11.6248 20.5125C11.5081 20.4708 11.3998 20.4 11.2998 20.3L8.2248 17.225C8.0248 17.025 7.9248 16.7833 7.9248 16.5C7.9248 16.2167 8.0248 15.975 8.2248 15.775C8.4248 15.575 8.66647 15.475 8.9498 15.475C9.23314 15.475 9.4748 15.575 9.6748 15.775L11.9998 18.1ZM11.9998 5.99999L9.6748 8.32499C9.4748 8.52499 9.23314 8.62499 8.9498 8.62499C8.66647 8.62499 8.4248 8.52499 8.2248 8.32499C8.0248 8.12499 7.9248 7.88333 7.9248 7.59999C7.9248 7.31666 8.0248 7.07499 8.2248 6.87499L11.2998 3.79999C11.3998 3.69999 11.5081 3.62916 11.6248 3.58749C11.7415 3.54583 11.8665 3.52499 11.9998 3.52499C12.1331 3.52499 12.2581 3.54583 12.3748 3.58749C12.4915 3.62916 12.5998 3.69999 12.6998 3.79999L15.7748 6.87499C15.9748 7.07499 16.0748 7.31666 16.0748 7.59999C16.0748 7.88333 15.9748 8.12499 15.7748 8.32499C15.5748 8.52499 15.3331 8.62499 15.0498 8.62499C14.7665 8.62499 14.5248 8.52499 14.3248 8.32499L11.9998 5.99999Z" fill="#101828"/>
</svg>
