<svg width="24" height="24" viewBox="0 0 24 24" fill="none" xmlns="http://www.w3.org/2000/svg">
<path d="M11.4752 14.475L7.8502 10.85C7.8002 10.8 7.7627 10.7458 7.7377 10.6875C7.7127 10.6292 7.7002 10.5667 7.7002 10.5C7.7002 10.3667 7.74603 10.25 7.8377 10.15C7.92936 10.05 8.0502 10 8.2002 10H15.8002C15.9502 10 16.071 10.05 16.1627 10.15C16.2544 10.25 16.3002 10.3667 16.3002 10.5C16.3002 10.5333 16.2502 10.65 16.1502 10.85L12.5252 14.475C12.4419 14.5583 12.3585 14.6167 12.2752 14.65C12.1919 14.6833 12.1002 14.7 12.0002 14.7C11.9002 14.7 11.8085 14.6833 11.7252 14.65C11.6419 14.6167 11.5585 14.5583 11.4752 14.475Z" fill="#101828"/>
</svg>
