<svg width="24" height="24" viewBox="0 0 24 24" fill="none" xmlns="http://www.w3.org/2000/svg">
<path d="M13.1498 16.15L9.5248 12.525C9.44147 12.4417 9.38314 12.3583 9.3498 12.275C9.31647 12.1917 9.2998 12.1 9.2998 12C9.2998 11.9 9.31647 11.8083 9.3498 11.725C9.38314 11.6417 9.44147 11.5583 9.5248 11.475L13.1498 7.85001C13.1998 7.80001 13.254 7.76251 13.3123 7.73751C13.3706 7.71251 13.4331 7.70001 13.4998 7.70001C13.6331 7.70001 13.7498 7.74585 13.8498 7.83751C13.9498 7.92918 13.9998 8.05001 13.9998 8.20001V15.8C13.9998 15.95 13.9498 16.0708 13.8498 16.1625C13.7498 16.2542 13.6331 16.3 13.4998 16.3C13.4665 16.3 13.3498 16.25 13.1498 16.15Z" fill="#101828"/>
</svg>
