<svg width="24" height="24" viewBox="0 0 24 24" fill="none" xmlns="http://www.w3.org/2000/svg">
<path d="M4 20C3.45 20 2.97917 19.8042 2.5875 19.4125C2.19583 19.0208 2 18.55 2 18V16C2 15.7167 2.09583 15.4792 2.2875 15.2875C2.47917 15.0958 2.71667 15 3 15C3.28333 15 3.52083 15.0958 3.7125 15.2875C3.90417 15.4792 4 15.7167 4 16V18H20V6H4V8C4 8.28333 3.90417 8.52083 3.7125 8.7125C3.52083 8.90417 3.28333 9 3 9C2.71667 9 2.47917 8.90417 2.2875 8.7125C2.09583 8.52083 2 8.28333 2 8V6C2 5.45 2.19583 4.97917 2.5875 4.5875C2.97917 4.19583 3.45 4 4 4H20C20.55 4 21.0208 4.19583 21.4125 4.5875C21.8042 4.97917 22 5.45 22 6V18C22 18.55 21.8042 19.0208 21.4125 19.4125C21.0208 19.8042 20.55 20 20 20H4ZM12.175 13H3C2.71667 13 2.47917 12.9042 2.2875 12.7125C2.09583 12.5208 2 12.2833 2 12C2 11.7167 2.09583 11.4792 2.2875 11.2875C2.47917 11.0958 2.71667 11 3 11H12.175L10.8 9.65C10.6 9.46667 10.5042 9.2375 10.5125 8.9625C10.5208 8.6875 10.6167 8.45 10.8 8.25C11 8.05 11.2375 7.94583 11.5125 7.9375C11.7875 7.92917 12.025 8.025 12.225 8.225L15.3 11.3C15.5 11.5 15.6 11.7333 15.6 12C15.6 12.2667 15.5 12.5 15.3 12.7L12.225 15.775C12.025 15.975 11.7875 16.075 11.5125 16.075C11.2375 16.075 11 15.975 10.8 15.775C10.6167 15.575 10.5208 15.3375 10.5125 15.0625C10.5042 14.7875 10.6 14.55 10.8 14.35L12.175 13Z" fill="#101828"/>
</svg>
