<svg width="24" height="24" viewBox="0 0 24 24" fill="none" xmlns="http://www.w3.org/2000/svg">
<path d="M9 20V19H7C6.71667 19 6.47917 18.9042 6.2875 18.7125C6.09583 18.5208 6 18.2833 6 18C6 17.7167 6.09583 17.4792 6.2875 17.2875C6.47917 17.0958 6.71667 17 7 17H8V7H7C6.71667 7 6.47917 6.90417 6.2875 6.7125C6.09583 6.52083 6 6.28333 6 6C6 5.71667 6.09583 5.47917 6.2875 5.2875C6.47917 5.09583 6.71667 5 7 5H9V4C9 3.71667 9.09583 3.47917 9.2875 3.2875C9.47917 3.09583 9.71667 3 10 3C10.2833 3 10.5208 3.09583 10.7125 3.2875C10.9042 3.47917 11 3.71667 11 4V5H13V4C13 3.71667 13.0958 3.47917 13.2875 3.2875C13.4792 3.09583 13.7167 3 14 3C14.2833 3 14.5208 3.09583 14.7125 3.2875C14.9042 3.47917 15 3.71667 15 4V5.125C15.8667 5.35833 16.5833 5.82917 17.15 6.5375C17.7167 7.24583 18 8.06667 18 9C18 9.48333 17.9167 9.94583 17.75 10.3875C17.5833 10.8292 17.35 11.225 17.05 11.575C17.6333 11.925 18.1042 12.4 18.4625 13C18.8208 13.6 19 14.2667 19 15C19 16.1 18.6083 17.0417 17.825 17.825C17.0417 18.6083 16.1 19 15 19V20C15 20.2833 14.9042 20.5208 14.7125 20.7125C14.5208 20.9042 14.2833 21 14 21C13.7167 21 13.4792 20.9042 13.2875 20.7125C13.0958 20.5208 13 20.2833 13 20V19H11V20C11 20.2833 10.9042 20.5208 10.7125 20.7125C10.5208 20.9042 10.2833 21 10 21C9.71667 21 9.47917 20.9042 9.2875 20.7125C9.09583 20.5208 9 20.2833 9 20ZM10 11H14C14.55 11 15.0208 10.8042 15.4125 10.4125C15.8042 10.0208 16 9.55 16 9C16 8.45 15.8042 7.97917 15.4125 7.5875C15.0208 7.19583 14.55 7 14 7H10V11ZM10 17H15C15.55 17 16.0208 16.8042 16.4125 16.4125C16.8042 16.0208 17 15.55 17 15C17 14.45 16.8042 13.9792 16.4125 13.5875C16.0208 13.1958 15.55 13 15 13H10V17Z" fill="#101828"/>
</svg>
