<svg width="24" height="24" viewBox="0 0 24 24" fill="none" xmlns="http://www.w3.org/2000/svg">
<path d="M19.7612 2.25001C19.6886 2.17064 19.6016 2.10751 19.5051 2.06439C19.4085 2.02126 19.3047 1.99939 19.1997 2.00001H4.80151C4.69652 1.99939 4.59214 2.02126 4.49555 2.06439C4.39896 2.10751 4.31197 2.17064 4.23998 2.25001C4.16379 2.32501 4.1032 2.41626 4.0618 2.51688C4.02041 2.61751 3.99941 2.72563 4.00001 2.83501V12.8349C4.00301 13.5962 4.14459 14.3499 4.41756 15.0561C4.67733 15.753 5.02648 16.4105 5.45543 17.0099C5.89637 17.6105 6.39011 18.1661 6.93004 18.6711C7.43098 19.1499 7.95891 19.598 8.51024 20.0124C8.99018 20.3673 9.49412 20.7036 10.022 21.0211C10.55 21.3386 10.9225 21.553 11.1403 21.6648C11.3599 21.7773 11.5375 21.8661 11.6694 21.9248C11.7726 21.9767 11.886 22.0023 12.0006 21.9998C12.1134 22.0017 12.225 21.9742 12.3258 21.9211C12.4601 21.8598 12.6353 21.7736 12.8573 21.6611C13.0793 21.5486 13.4572 21.3336 13.9756 21.0173C14.4939 20.7011 15.0038 20.3636 15.4874 20.0086C16.0393 19.5936 16.5678 19.1461 17.07 18.6674C17.6105 18.163 18.1042 17.6067 18.5446 17.0061C18.9729 16.4061 19.3221 15.7493 19.5824 15.0524C19.856 14.3462 19.9976 13.5924 20 12.8312V2.83126C20.0006 2.72251 19.9796 2.61501 19.9382 2.51501C19.8968 2.41501 19.8368 2.32501 19.7612 2.25001ZM17.9051 12.9262C17.9051 16.5511 12.0006 19.6649 12.0006 19.6649V4.14249H17.9051V12.9262Z" fill="#101828"/>
</svg>
