<svg width="24" height="24" viewBox="0 0 24 24" fill="none" xmlns="http://www.w3.org/2000/svg">
<path d="M12 21C10.9333 21 9.97917 20.725 9.1375 20.175C8.29583 19.625 7.60833 18.9 7.075 18L5.55 18.875C5.31667 19.0083 5.06667 19.0333 4.8 18.95C4.53333 18.8667 4.33333 18.7083 4.2 18.475C4.06667 18.2417 4.03333 17.9917 4.1 17.725C4.16667 17.4583 4.31667 17.2583 4.55 17.125L6.275 16.125C6.225 15.9417 6.18333 15.7542 6.15 15.5625C6.11667 15.3708 6.08333 15.1833 6.05 15H4C3.71667 15 3.47917 14.9042 3.2875 14.7125C3.09583 14.5208 3 14.2833 3 14C3 13.7167 3.09583 13.4792 3.2875 13.2875C3.47917 13.0958 3.71667 13 4 13H6.05C6.08333 12.8 6.11667 12.6042 6.15 12.4125C6.18333 12.2208 6.225 12.0333 6.275 11.85L4.55 10.85C4.31667 10.7167 4.16667 10.5167 4.1 10.25C4.03333 9.98332 4.06667 9.73332 4.2 9.49999C4.33333 9.26665 4.5375 9.11249 4.8125 9.03749C5.0875 8.96249 5.34167 8.99165 5.575 9.12499L7.05 9.99999C7.18333 9.76665 7.3375 9.53749 7.5125 9.31249C7.6875 9.08749 7.86667 8.88332 8.05 8.69999C8.01667 8.58332 8 8.46665 8 8.34999V7.99999C8 7.59999 8.05833 7.21665 8.175 6.84999C8.29167 6.48332 8.45 6.14165 8.65 5.82499L7.7 4.87499C7.51667 4.69165 7.42083 4.45832 7.4125 4.17499C7.40417 3.89165 7.5 3.64999 7.7 3.44999C7.88333 3.24999 8.1125 3.15415 8.3875 3.16249C8.6625 3.17082 8.9 3.26665 9.1 3.44999L10.15 4.44999C10.4333 4.29999 10.7292 4.18749 11.0375 4.11249C11.3458 4.03749 11.6667 3.99999 12 3.99999C12.3333 3.99999 12.6583 4.04165 12.975 4.12499C13.2917 4.20832 13.5917 4.32499 13.875 4.47499L14.9 3.44999C15.1 3.24999 15.3333 3.15415 15.6 3.16249C15.8667 3.17082 16.1 3.27499 16.3 3.47499C16.4833 3.67499 16.5792 3.90832 16.5875 4.17499C16.5958 4.44165 16.5 4.67499 16.3 4.87499L15.35 5.82499C15.55 6.14165 15.7042 6.48332 15.8125 6.84999C15.9208 7.21665 15.975 7.59999 15.975 7.99999V8.33749C15.975 8.44582 15.9583 8.55832 15.925 8.67499C16.1083 8.85832 16.2875 9.06665 16.4625 9.29999C16.6375 9.53332 16.7917 9.76665 16.925 9.99999L18.45 9.12499C18.6833 8.99165 18.9333 8.96249 19.2 9.03749C19.4667 9.11249 19.6667 9.26665 19.8 9.49999C19.9333 9.73332 19.9625 9.98749 19.8875 10.2625C19.8125 10.5375 19.6583 10.7417 19.425 10.875L17.7 11.85C17.75 12.0333 17.7958 12.2208 17.8375 12.4125C17.8792 12.6042 17.9167 12.8 17.95 13H20C20.2833 13 20.5208 13.0958 20.7125 13.2875C20.9042 13.4792 21 13.7167 21 14C21 14.2833 20.9042 14.5208 20.7125 14.7125C20.5208 14.9042 20.2833 15 20 15H17.95C17.9167 15.2 17.8833 15.3958 17.85 15.5875C17.8167 15.7792 17.775 15.9667 17.725 16.15L19.45 17.15C19.6833 17.2833 19.8333 17.4875 19.9 17.7625C19.9667 18.0375 19.9333 18.2917 19.8 18.525C19.6667 18.7583 19.4667 18.9083 19.2 18.975C18.9333 19.0417 18.6833 19.0083 18.45 18.875L16.925 18C16.3917 18.9 15.7042 19.625 14.8625 20.175C14.0208 20.725 13.0667 21 12 21ZM10.1 7.34999C10.3833 7.23332 10.6875 7.14582 11.0125 7.08749C11.3375 7.02915 11.6667 6.99999 12 6.99999C12.3333 6.99999 12.6542 7.02499 12.9625 7.07499C13.2708 7.12499 13.5667 7.20832 13.85 7.32499C13.7167 6.94165 13.4833 6.62499 13.15 6.37499C12.8167 6.12499 12.4333 5.99999 12 5.99999C11.5667 5.99999 11.175 6.12915 10.825 6.38749C10.475 6.64582 10.2333 6.96665 10.1 7.34999ZM12 19C13.2167 19 14.1875 18.4917 14.9125 17.475C15.6375 16.4583 16 15.3 16 14C16 12.8333 15.6625 11.7083 14.9875 10.625C14.3125 9.54165 13.3167 8.99999 12 8.99999C10.7 8.99999 9.70833 9.53749 9.025 10.6125C8.34167 11.6875 8 12.8167 8 14C8 15.3 8.3625 16.4583 9.0875 17.475C9.8125 18.4917 10.7833 19 12 19ZM12 17C11.7167 17 11.4792 16.9042 11.2875 16.7125C11.0958 16.5208 11 16.2833 11 16V12C11 11.7167 11.0958 11.4792 11.2875 11.2875C11.4792 11.0958 11.7167 11 12 11C12.2833 11 12.5208 11.0958 12.7125 11.2875C12.9042 11.4792 13 11.7167 13 12V16C13 16.2833 12.9042 16.5208 12.7125 16.7125C12.5208 16.9042 12.2833 17 12 17Z" fill="#101828"/>
</svg>
