<svg width="24" height="24" viewBox="0 0 24 24" fill="none" xmlns="http://www.w3.org/2000/svg">
<path d="M2 19V5C2 4.45 2.19583 3.97917 2.5875 3.5875C2.97917 3.19583 3.45 3 4 3H10C10.55 3 11.0208 3.19583 11.4125 3.5875C11.8042 3.97917 12 4.45 12 5V7H20C20.55 7 21.0208 7.19583 21.4125 7.5875C21.8042 7.97917 22 8.45 22 9V19C22 19.55 21.8042 20.0208 21.4125 20.4125C21.0208 20.8042 20.55 21 20 21H4C3.45 21 2.97917 20.8042 2.5875 20.4125C2.19583 20.0208 2 19.55 2 19ZM4 19H6V17H4V19ZM4 15H6V13H4V15ZM4 11H6V9H4V11ZM4 7H6V5H4V7ZM8 19H10V17H8V19ZM8 15H10V13H8V15ZM8 11H10V9H8V11ZM8 7H10V5H8V7ZM12 19H20V9H12V11H14V13H12V15H14V17H12V19ZM16 13V11H18V13H16ZM16 17V15H18V17H16Z" fill="#101828"/>
</svg>
