<svg width="24" height="24" viewBox="0 0 24 24" fill="none" xmlns="http://www.w3.org/2000/svg">
<path d="M6 7.5C5.72 7.5 5.48 7.4 5.29 7.21C5.1 7.02 5 6.78 5 6.5C5 6.22 5.1 5.98 5.29 5.79C5.48 5.6 5.72 5.5 6 5.5H18C18.28 5.5 18.52 5.6 18.71 5.79C18.9 5.98 19 6.22 19 6.5C19 6.78 18.9 7.02 18.71 7.21C18.52 7.4 18.28 7.5 18 7.5H6ZM8 4.5C7.72 4.5 7.48 4.4 7.29 4.21C7.1 4.02 7 3.78 7 3.5C7 3.22 7.1 2.98 7.29 2.79C7.48 2.6 7.72 2.5 8 2.5H16C16.28 2.5 16.52 2.6 16.71 2.79C16.9 2.98 17 3.22 17 3.5C17 3.78 16.9 4.02 16.71 4.21C16.52 4.4 16.28 4.5 16 4.5H8Z" fill="#101828"/>
<path d="M20.99 10.3C20.99 10.3 20.97 10.23 20.97 10.19C20.97 10.14 20.95 10.08 20.94 10.03C20.92 9.96 20.9 9.89 20.88 9.82C20.86 9.77 20.85 9.73 20.83 9.68C20.8 9.61 20.76 9.54 20.72 9.48C20.7 9.44 20.68 9.4 20.65 9.37C20.59 9.28 20.51 9.19 20.44 9.11C20.43 9.1 20.42 9.09 20.41 9.08C20.33 9 20.24 8.93 20.15 8.87C20.11 8.85 20.07 8.83 20.04 8.8C19.97 8.76 19.91 8.72 19.84 8.69C19.79 8.67 19.75 8.65 19.7 8.64C19.63 8.62 19.56 8.59 19.49 8.57C19.44 8.56 19.39 8.55 19.33 8.54C19.29 8.54 19.26 8.52 19.22 8.52H19.02L12.99 8.51H5C3.9 8.51 3 9.41 3 10.51V19.71C3 19.71 3.03 19.78 3.03 19.82C3.03 19.87 3.05 19.93 3.06 19.98C3.08 20.05 3.1 20.12 3.12 20.19C3.14 20.24 3.15 20.28 3.17 20.33C3.2 20.4 3.24 20.47 3.28 20.53C3.3 20.57 3.32 20.61 3.35 20.64C3.41 20.73 3.49 20.82 3.56 20.9C3.57 20.91 3.58 20.92 3.59 20.93C3.67 21.01 3.76 21.08 3.85 21.14C3.89 21.16 3.93 21.18 3.96 21.21C4.03 21.25 4.09 21.29 4.16 21.32C4.21 21.34 4.25 21.36 4.3 21.37C4.37 21.39 4.44 21.42 4.51 21.44C4.56 21.45 4.61 21.46 4.67 21.47C4.71 21.47 4.74 21.49 4.78 21.49H4.98L11.01 21.5H18.98C20.08 21.5 20.98 20.6 20.98 19.5V10.3H20.99ZM19 19.5H5V10.5H19V19.5Z" fill="#101828"/>
<path d="M10.72 13.07C10.72 13.78 10.14 14.35 9.44 14.35C8.74 14.35 8.16 13.77 8.16 13.07C8.16 12.37 8.74 11.79 9.44 11.79C10.14 11.79 10.72 12.37 10.72 13.07Z" fill="#101828"/>
<path d="M15.85 13.07C15.85 13.78 15.27 14.35 14.57 14.35C13.87 14.35 13.29 13.77 13.29 13.07C13.29 12.37 13.87 11.79 14.57 11.79C15.27 11.79 15.85 12.37 15.85 13.07Z" fill="#101828"/>
<path d="M12 17.52C12 17.19 11.93 16.86 11.8 16.56C11.67 16.25 11.48 15.98 11.24 15.74C11 15.51 10.72 15.32 10.41 15.19C10.1 15.06 9.76 15 9.43 15C9.1 15 8.76 15.07 8.45 15.19C8.14 15.32 7.85 15.5 7.62 15.74C7.38 15.97 7.19 16.25 7.06 16.56C6.93 16.87 6.86 17.19 6.86 17.52C6.86 17.9 7.17 18.21 7.55 18.21H11.3C11.68 18.21 11.99 17.9 11.99 17.52H12Z" fill="#101828"/>
<path d="M13.3 17.52C13.3 17.01 13.2 16.52 13 16.05C12.95 15.92 12.88 15.8 12.82 15.68C13.04 15.48 13.3 15.31 13.59 15.2C13.9 15.07 14.24 15.01 14.57 15.01C14.9 15.01 15.24 15.08 15.55 15.2C15.86 15.33 16.15 15.51 16.38 15.75C16.62 15.98 16.81 16.26 16.94 16.57C17.07 16.88 17.14 17.2 17.14 17.53C17.14 17.91 16.83 18.22 16.45 18.22H13.18C13.26 18 13.3 17.77 13.3 17.53V17.52Z" fill="#101828"/>
</svg>
