<svg width="24" height="24" viewBox="0 0 24 24" fill="none" xmlns="http://www.w3.org/2000/svg">
<path d="M12.0247 21C11.7414 21 11.5039 20.9042 11.3122 20.7125C11.1206 20.5208 11.0247 20.2833 11.0247 20V18.85C10.2747 18.6833 9.61639 18.3917 9.04973 17.975C8.48306 17.5583 8.02473 16.975 7.67473 16.225C7.55806 15.9917 7.55389 15.7458 7.66223 15.4875C7.77056 15.2292 7.96639 15.0417 8.24973 14.925C8.48306 14.825 8.72473 14.8292 8.97473 14.9375C9.22473 15.0458 9.41639 15.225 9.54973 15.475C9.83306 15.975 10.1914 16.3542 10.6247 16.6125C11.0581 16.8708 11.5914 17 12.2247 17C12.9081 17 13.4872 16.8458 13.9622 16.5375C14.4372 16.2292 14.6747 15.75 14.6747 15.1C14.6747 14.5167 14.4914 14.0542 14.1247 13.7125C13.7581 13.3708 12.9081 12.9833 11.5747 12.55C10.1414 12.1 9.15806 11.5625 8.62473 10.9375C8.09139 10.3125 7.82473 9.55 7.82473 8.65C7.82473 7.56667 8.17473 6.725 8.87473 6.125C9.57473 5.525 10.2914 5.18333 11.0247 5.1V4C11.0247 3.71667 11.1206 3.47917 11.3122 3.2875C11.5039 3.09583 11.7414 3 12.0247 3C12.3081 3 12.5456 3.09583 12.7372 3.2875C12.9289 3.47917 13.0247 3.71667 13.0247 4V5.1C13.6581 5.2 14.2081 5.40417 14.6747 5.7125C15.1414 6.02083 15.5247 6.4 15.8247 6.85C15.9747 7.06667 16.0039 7.30833 15.9122 7.575C15.8206 7.84167 15.6331 8.03333 15.3497 8.15C15.1164 8.25 14.8747 8.25417 14.6247 8.1625C14.3747 8.07083 14.1414 7.90833 13.9247 7.675C13.7081 7.44167 13.4539 7.2625 13.1622 7.1375C12.8706 7.0125 12.5081 6.95 12.0747 6.95C11.3414 6.95 10.7831 7.1125 10.3997 7.4375C10.0164 7.7625 9.82473 8.16667 9.82473 8.65C9.82473 9.2 10.0747 9.63333 10.5747 9.95C11.0747 10.2667 11.9414 10.6 13.1747 10.95C14.3247 11.2833 15.1956 11.8125 15.7872 12.5375C16.3789 13.2625 16.6747 14.1 16.6747 15.05C16.6747 16.2333 16.3247 17.1333 15.6247 17.75C14.9247 18.3667 14.0581 18.75 13.0247 18.9V20C13.0247 20.2833 12.9289 20.5208 12.7372 20.7125C12.5456 20.9042 12.3081 21 12.0247 21Z" fill="#101828"/>
</svg>
