<svg width="24" height="24" viewBox="0 0 24 24" fill="none" xmlns="http://www.w3.org/2000/svg">
<path d="M5 21C4.45 21 3.97917 20.8042 3.5875 20.4125C3.19583 20.0208 3 19.55 3 19V5.00001C3 4.45001 3.19583 3.97917 3.5875 3.58751C3.97917 3.19584 4.45 3.00001 5 3.00001H11.525C11.8583 3.00001 12.1083 3.10417 12.275 3.31251C12.4417 3.52084 12.525 3.75001 12.525 4.00001C12.525 4.25001 12.4375 4.47917 12.2625 4.68751C12.0875 4.89584 11.8333 5.00001 11.5 5.00001H5V19H19V12.475C19 12.1417 19.1042 11.8917 19.3125 11.725C19.5208 11.5583 19.75 11.475 20 11.475C20.25 11.475 20.4792 11.5583 20.6875 11.725C20.8958 11.8917 21 12.1417 21 12.475V19C21 19.55 20.8042 20.0208 20.4125 20.4125C20.0208 20.8042 19.55 21 19 21H5ZM9 14V11.575C9 11.3083 9.05 11.0542 9.15 10.8125C9.25 10.5708 9.39167 10.3583 9.575 10.175L18.175 1.57501C18.375 1.37501 18.6 1.22501 18.85 1.12501C19.1 1.02501 19.35 0.975006 19.6 0.975006C19.8667 0.975006 20.1208 1.02501 20.3625 1.12501C20.6042 1.22501 20.825 1.37501 21.025 1.57501L22.425 3.00001C22.6083 3.20001 22.75 3.42084 22.85 3.66251C22.95 3.90417 23 4.15001 23 4.40001C23 4.65001 22.9542 4.89584 22.8625 5.13751C22.7708 5.37917 22.625 5.60001 22.425 5.80001L13.825 14.4C13.6417 14.5833 13.4292 14.7292 13.1875 14.8375C12.9458 14.9458 12.6917 15 12.425 15H10C9.71667 15 9.47917 14.9042 9.2875 14.7125C9.09583 14.5208 9 14.2833 9 14ZM11 13H12.4L18.2 7.20001L17.5 6.50001L16.775 5.80001L11 11.575V13Z" fill="#101828"/>
</svg>
