<svg width="24" height="24" viewBox="0 0 24 24" fill="none" xmlns="http://www.w3.org/2000/svg">
<path d="M8 8.07495H14V6.07495C14 5.24162 13.7083 4.53328 13.125 3.94995C12.5417 3.36662 11.8333 3.07495 11 3.07495C10.1667 3.07495 9.45833 3.36662 8.875 3.94995C8.29167 4.53328 8 5.24162 8 6.07495V8.07495ZM5 22.075C4.45 22.075 3.97917 21.8791 3.5875 21.4875C3.19583 21.0958 3 20.625 3 20.075V10.075C3 9.52495 3.19583 9.05412 3.5875 8.66245C3.97917 8.27078 4.45 8.07495 5 8.07495H6V6.07495C6 4.69162 6.4875 3.51245 7.4625 2.53745C8.4375 1.56245 9.61667 1.07495 11 1.07495C12.3833 1.07495 13.5625 1.56245 14.5375 2.53745C15.5125 3.51245 16 4.69162 16 6.07495V8.07495H17C17.55 8.07495 18.0208 8.27078 18.4125 8.66245C18.8042 9.05412 19 9.52495 19 10.075C19 10.4083 18.8958 10.6583 18.6875 10.825C18.4792 10.9916 18.25 11.075 18 11.075C17.75 11.075 17.5208 10.9916 17.3125 10.825C17.1042 10.6583 17 10.4083 17 10.075H5V20.075H10C10.2833 20.075 10.5208 20.1708 10.7125 20.3625C10.9042 20.5541 11 20.7916 11 21.075C11 21.3583 10.9042 21.5958 10.7125 21.7875C10.5208 21.9791 10.2833 22.075 10 22.075H5ZM17 18.075C17.4167 18.075 17.7708 17.9291 18.0625 17.6375C18.3542 17.3458 18.5 16.9916 18.5 16.575C18.5 16.1583 18.3542 15.8041 18.0625 15.5125C17.7708 15.2208 17.4167 15.075 17 15.075C16.5833 15.075 16.2292 15.2208 15.9375 15.5125C15.6458 15.8041 15.5 16.1583 15.5 16.575C15.5 16.9916 15.6458 17.3458 15.9375 17.6375C16.2292 17.9291 16.5833 18.075 17 18.075ZM17 21.075C17.5 21.075 17.9667 20.9583 18.4 20.725C18.8333 20.4916 19.1917 20.1666 19.475 19.75C19.0917 19.5166 18.6917 19.3458 18.275 19.2375C17.8583 19.1291 17.4333 19.075 17 19.075C16.5667 19.075 16.1417 19.1291 15.725 19.2375C15.3083 19.3458 14.9083 19.5166 14.525 19.75C14.8083 20.1666 15.1667 20.4916 15.6 20.725C16.0333 20.9583 16.5 21.075 17 21.075ZM17 23.075C15.6167 23.075 14.4375 22.5875 13.4625 21.6125C12.4875 20.6375 12 19.4583 12 18.075C12 16.6916 12.4875 15.5125 13.4625 14.5375C14.4375 13.5625 15.6167 13.075 17 13.075C18.3833 13.075 19.5625 13.5625 20.5375 14.5375C21.5125 15.5125 22 16.6916 22 18.075C22 19.4583 21.5125 20.6375 20.5375 21.6125C19.5625 22.5875 18.3833 23.075 17 23.075Z" fill="#1C1B1F"/>
</svg>
