<svg width="24" height="24" viewBox="0 0 24 24" fill="none" xmlns="http://www.w3.org/2000/svg">
<path d="M9.075 21C8.80833 21 8.55417 20.95 8.3125 20.85C8.07083 20.75 7.85833 20.6083 7.675 20.425L3.575 16.325C3.39167 16.1417 3.25 15.9292 3.15 15.6875C3.05 15.4458 3 15.1917 3 14.925V9.075C3 8.80833 3.05 8.55417 3.15 8.3125C3.25 8.07083 3.39167 7.85833 3.575 7.675L7.675 3.575C7.85833 3.39167 8.07083 3.25 8.3125 3.15C8.55417 3.05 8.80833 3 9.075 3H14.925C15.1917 3 15.4458 3.05 15.6875 3.15C15.9292 3.25 16.1417 3.39167 16.325 3.575L20.425 7.675C20.6083 7.85833 20.75 8.07083 20.85 8.3125C20.95 8.55417 21 8.80833 21 9.075V14.925C21 15.1917 20.95 15.4458 20.85 15.6875C20.75 15.9292 20.6083 16.1417 20.425 16.325L16.325 20.425C16.1417 20.6083 15.9292 20.75 15.6875 20.85C15.4458 20.95 15.1917 21 14.925 21H9.075ZM9.1 19H14.9L19 14.9V9.1L14.9 5H9.1L5 9.1V14.9L9.1 19ZM12 13.4L14.15 15.55C14.3333 15.7333 14.5667 15.825 14.85 15.825C15.1333 15.825 15.3667 15.7333 15.55 15.55C15.7333 15.3667 15.825 15.1333 15.825 14.85C15.825 14.5667 15.7333 14.3333 15.55 14.15L13.4 12L15.55 9.85C15.7333 9.66667 15.825 9.43333 15.825 9.15C15.825 8.86667 15.7333 8.63333 15.55 8.45C15.3667 8.26667 15.1333 8.175 14.85 8.175C14.5667 8.175 14.3333 8.26667 14.15 8.45L12 10.6L9.85 8.45C9.66667 8.26667 9.43333 8.175 9.15 8.175C8.86667 8.175 8.63333 8.26667 8.45 8.45C8.26667 8.63333 8.175 8.86667 8.175 9.15C8.175 9.43333 8.26667 9.66667 8.45 9.85L10.6 12L8.45 14.15C8.26667 14.3333 8.175 14.5667 8.175 14.85C8.175 15.1333 8.26667 15.3667 8.45 15.55C8.63333 15.7333 8.86667 15.825 9.15 15.825C9.43333 15.825 9.66667 15.7333 9.85 15.55L12 13.4Z" fill="#101828"/>
</svg>
