<svg width="24" height="24" viewBox="0 0 24 24" fill="none" xmlns="http://www.w3.org/2000/svg">
<path d="M10.3 19.8C11.05 18.2833 12.05 17.2708 13.3 16.7625C14.55 16.2542 15.6167 16 16.5 16C16.8833 16 17.2583 16.0333 17.625 16.1C17.9917 16.1667 18.35 16.25 18.7 16.35C19.1 15.7167 19.4167 15.0333 19.65 14.3C19.8833 13.5667 20 12.8 20 12C20 9.76667 19.225 7.875 17.675 6.325C16.125 4.775 14.2333 4 12 4C9.76667 4 7.875 4.775 6.325 6.325C4.775 7.875 4 9.76667 4 12C4 12.75 4.09583 13.4667 4.2875 14.15C4.47917 14.8333 4.76667 15.4667 5.15 16.05C5.83333 15.7167 6.54167 15.4583 7.275 15.275C8.00833 15.0917 8.75 15 9.5 15C10.0333 15 10.5458 15.0458 11.0375 15.1375C11.5292 15.2292 12.0167 15.35 12.5 15.5C12.1167 15.7 11.7542 15.9333 11.4125 16.2C11.0708 16.4667 10.75 16.75 10.45 17.05C10.25 17.0167 10.0792 17 9.9375 17H9.5C8.96667 17 8.4375 17.0583 7.9125 17.175C7.3875 17.2917 6.88333 17.4667 6.4 17.7C6.93333 18.2333 7.52917 18.6792 8.1875 19.0375C8.84583 19.3958 9.55 19.65 10.3 19.8ZM12 22C10.6167 22 9.31667 21.7375 8.1 21.2125C6.88333 20.6875 5.825 19.975 4.925 19.075C4.025 18.175 3.3125 17.1167 2.7875 15.9C2.2625 14.6833 2 13.3833 2 12C2 10.6167 2.2625 9.31667 2.7875 8.1C3.3125 6.88333 4.025 5.825 4.925 4.925C5.825 4.025 6.88333 3.3125 8.1 2.7875C9.31667 2.2625 10.6167 2 12 2C13.3833 2 14.6833 2.2625 15.9 2.7875C17.1167 3.3125 18.175 4.025 19.075 4.925C19.975 5.825 20.6875 6.88333 21.2125 8.1C21.7375 9.31667 22 10.6167 22 12C22 13.3833 21.7375 14.6833 21.2125 15.9C20.6875 17.1167 19.975 18.175 19.075 19.075C18.175 19.975 17.1167 20.6875 15.9 21.2125C14.6833 21.7375 13.3833 22 12 22ZM9.5 13.5C8.53333 13.5 7.70833 13.1583 7.025 12.475C6.34167 11.7917 6 10.9667 6 10C6 9.03333 6.34167 8.20833 7.025 7.525C7.70833 6.84167 8.53333 6.5 9.5 6.5C10.4667 6.5 11.2917 6.84167 11.975 7.525C12.6583 8.20833 13 9.03333 13 10C13 10.9667 12.6583 11.7917 11.975 12.475C11.2917 13.1583 10.4667 13.5 9.5 13.5ZM9.5 11.5C9.91667 11.5 10.2708 11.3542 10.5625 11.0625C10.8542 10.7708 11 10.4167 11 10C11 9.58333 10.8542 9.22917 10.5625 8.9375C10.2708 8.64583 9.91667 8.5 9.5 8.5C9.08333 8.5 8.72917 8.64583 8.4375 8.9375C8.14583 9.22917 8 9.58333 8 10C8 10.4167 8.14583 10.7708 8.4375 11.0625C8.72917 11.3542 9.08333 11.5 9.5 11.5ZM16.5 14.5C15.8 14.5 15.2083 14.2583 14.725 13.775C14.2417 13.2917 14 12.7 14 12C14 11.3 14.2417 10.7083 14.725 10.225C15.2083 9.74167 15.8 9.5 16.5 9.5C17.2 9.5 17.7917 9.74167 18.275 10.225C18.7583 10.7083 19 11.3 19 12C19 12.7 18.7583 13.2917 18.275 13.775C17.7917 14.2583 17.2 14.5 16.5 14.5Z" fill="#101828"/>
</svg>
