<svg width="24" height="24" viewBox="0 0 24 24" fill="none" xmlns="http://www.w3.org/2000/svg">
<path d="M12 22C9.86667 22 7.94583 21.3917 6.2375 20.175C4.52917 18.9583 3.31667 17.3667 2.6 15.4C2.51667 15.15 2.54167 14.9167 2.675 14.7C2.80833 14.4833 3.00833 14.3333 3.275 14.25C3.54167 14.1667 3.79583 14.1958 4.0375 14.3375C4.27917 14.4792 4.45 14.675 4.55 14.925C5.15 16.4417 6.125 17.6667 7.475 18.6C8.825 19.5333 10.3333 20 12 20C13.4333 20 14.7667 19.6458 16 18.9375C17.2333 18.2292 18.2 17.25 18.9 16H17C16.7167 16 16.4792 15.9042 16.2875 15.7125C16.0958 15.5208 16 15.2833 16 15C16 14.7167 16.0958 14.4792 16.2875 14.2875C16.4792 14.0958 16.7167 14 17 14H21C21.2833 14 21.5208 14.0958 21.7125 14.2875C21.9042 14.4792 22 14.7167 22 15V19C22 19.2833 21.9042 19.5208 21.7125 19.7125C21.5208 19.9042 21.2833 20 21 20C20.7167 20 20.4792 19.9042 20.2875 19.7125C20.0958 19.5208 20 19.2833 20 19V18C19.05 19.2667 17.875 20.25 16.475 20.95C15.075 21.65 13.5833 22 12 22ZM12 4C10.5667 4 9.23333 4.35417 8 5.0625C6.76667 5.77083 5.8 6.75 5.1 8H7C7.28333 8 7.52083 8.09583 7.7125 8.2875C7.90417 8.47917 8 8.71667 8 9C8 9.28333 7.90417 9.52083 7.7125 9.7125C7.52083 9.90417 7.28333 10 7 10H3C2.71667 10 2.47917 9.90417 2.2875 9.7125C2.09583 9.52083 2 9.28333 2 9V5C2 4.71667 2.09583 4.47917 2.2875 4.2875C2.47917 4.09583 2.71667 4 3 4C3.28333 4 3.52083 4.09583 3.7125 4.2875C3.90417 4.47917 4 4.71667 4 5V6C4.95 4.73333 6.125 3.75 7.525 3.05C8.925 2.35 10.4167 2 12 2C14.1333 2 16.0542 2.60833 17.7625 3.825C19.4708 5.04167 20.6833 6.63333 21.4 8.6C21.4833 8.85 21.4583 9.08333 21.325 9.3C21.1917 9.51667 20.9917 9.66667 20.725 9.75C20.4583 9.83333 20.2042 9.80417 19.9625 9.6625C19.7208 9.52083 19.55 9.325 19.45 9.075C18.85 7.55833 17.875 6.33333 16.525 5.4C15.175 4.46667 13.6667 4 12 4ZM12 15C11.1667 15 10.4583 14.7083 9.875 14.125C9.29167 13.5417 9 12.8333 9 12C9 11.1667 9.29167 10.4583 9.875 9.875C10.4583 9.29167 11.1667 9 12 9C12.8333 9 13.5417 9.29167 14.125 9.875C14.7083 10.4583 15 11.1667 15 12C15 12.8333 14.7083 13.5417 14.125 14.125C13.5417 14.7083 12.8333 15 12 15Z" fill="#101828"/>
</svg>
