<svg width="24" height="24" viewBox="0 0 24 24" fill="none" xmlns="http://www.w3.org/2000/svg">
<path d="M11.8755 20C11.9421 20 12.0088 19.9833 12.0755 19.95C12.1421 19.9167 12.1921 19.8833 12.2255 19.85L20.4255 11.65C20.6255 11.45 20.7713 11.225 20.863 10.975C20.9546 10.725 21.0005 10.475 21.0005 10.225C21.0005 9.95833 20.9546 9.70417 20.863 9.4625C20.7713 9.22083 20.6255 9.00833 20.4255 8.825L16.1755 4.575C15.9921 4.375 15.7796 4.22917 15.538 4.1375C15.2963 4.04583 15.0421 4 14.7755 4C14.5255 4 14.2755 4.04583 14.0255 4.1375C13.7755 4.22917 13.5505 4.375 13.3505 4.575L13.0755 4.85L14.9255 6.725C15.1755 6.95833 15.3588 7.225 15.4755 7.525C15.5921 7.825 15.6505 8.14167 15.6505 8.475C15.6505 9.175 15.413 9.7625 14.938 10.2375C14.463 10.7125 13.8755 10.95 13.1755 10.95C12.8421 10.95 12.5213 10.8917 12.213 10.775C11.9046 10.6583 11.6338 10.4833 11.4005 10.25L9.52545 8.4L5.15045 12.775C5.10045 12.825 5.06295 12.8792 5.03795 12.9375C5.01295 12.9958 5.00045 13.0583 5.00045 13.125C5.00045 13.2583 5.05045 13.3792 5.15045 13.4875C5.25045 13.5958 5.36712 13.65 5.50045 13.65C5.56712 13.65 5.63379 13.6333 5.70045 13.6C5.76712 13.5667 5.81712 13.5333 5.85045 13.5L8.55045 10.8C8.73379 10.6167 8.96295 10.5208 9.23795 10.5125C9.51295 10.5042 9.75045 10.6 9.95045 10.8C10.1338 10.9833 10.2255 11.2167 10.2255 11.5C10.2255 11.7833 10.1338 12.0167 9.95045 12.2L7.27545 14.9C7.22545 14.95 7.18795 15.0042 7.16295 15.0625C7.13795 15.1208 7.12545 15.1833 7.12545 15.25C7.12545 15.3833 7.17545 15.5 7.27545 15.6C7.37545 15.7 7.49212 15.75 7.62545 15.75C7.69212 15.75 7.75879 15.7333 7.82545 15.7C7.89212 15.6667 7.94212 15.6333 7.97545 15.6L10.6755 12.925C10.8588 12.7417 11.088 12.6458 11.363 12.6375C11.638 12.6292 11.8755 12.725 12.0755 12.925C12.2588 13.1083 12.3505 13.3417 12.3505 13.625C12.3505 13.9083 12.2588 14.1417 12.0755 14.325L9.40045 17.025C9.35045 17.0583 9.31295 17.1083 9.28795 17.175C9.26295 17.2417 9.25045 17.3083 9.25045 17.375C9.25045 17.5083 9.30045 17.625 9.40045 17.725C9.50045 17.825 9.61712 17.875 9.75045 17.875C9.81712 17.875 9.87962 17.8625 9.93795 17.8375C9.99629 17.8125 10.0505 17.775 10.1005 17.725L12.8005 15.05C12.9838 14.8667 13.213 14.7708 13.488 14.7625C13.763 14.7542 14.0005 14.85 14.2005 15.05C14.3838 15.2333 14.4755 15.4667 14.4755 15.75C14.4755 16.0333 14.3838 16.2667 14.2005 16.45L11.5005 19.15C11.4505 19.2 11.413 19.2542 11.388 19.3125C11.363 19.3708 11.3505 19.4333 11.3505 19.5C11.3505 19.6333 11.4046 19.75 11.513 19.85C11.6213 19.95 11.7421 20 11.8755 20ZM11.8505 22C11.2338 22 10.688 21.7958 10.213 21.3875C9.73795 20.9792 9.45879 20.4667 9.37545 19.85C8.80879 19.7667 8.33379 19.5333 7.95045 19.15C7.56712 18.7667 7.33379 18.2917 7.25045 17.725C6.68379 17.6417 6.21295 17.4042 5.83795 17.0125C5.46295 16.6208 5.23379 16.15 5.15045 15.6C4.51712 15.5167 4.00045 15.2417 3.60045 14.775C3.20045 14.3083 3.00045 13.7583 3.00045 13.125C3.00045 12.7917 3.06295 12.4708 3.18795 12.1625C3.31295 11.8542 3.49212 11.5833 3.72545 11.35L8.10045 6.975C8.48379 6.59167 8.95462 6.4 9.51295 6.4C10.0713 6.4 10.5421 6.59167 10.9255 6.975L12.8005 8.85C12.8338 8.9 12.8838 8.9375 12.9505 8.9625C13.0171 8.9875 13.0838 9 13.1505 9C13.3005 9 13.4255 8.95417 13.5255 8.8625C13.6255 8.77083 13.6755 8.65 13.6755 8.5C13.6755 8.43333 13.663 8.36667 13.638 8.3C13.613 8.23333 13.5755 8.18333 13.5255 8.15L9.95045 4.575C9.76712 4.375 9.55462 4.22917 9.31295 4.1375C9.07129 4.04583 8.81712 4 8.55045 4C8.30045 4 8.05045 4.04583 7.80045 4.1375C7.55045 4.22917 7.32545 4.375 7.12545 4.575L3.60045 8.125C3.36712 8.35833 3.20045 8.63333 3.10045 8.95C3.00045 9.26667 2.97545 9.58333 3.02545 9.9C3.07545 10.1833 3.01712 10.4333 2.85045 10.65C2.68379 10.8667 2.45879 10.9917 2.17545 11.025C1.89212 11.0583 1.64212 10.9958 1.42545 10.8375C1.20879 10.6792 1.08379 10.4583 1.05045 10.175C0.950452 9.54167 0.996285 8.92083 1.18795 8.3125C1.37962 7.70417 1.70879 7.16667 2.17545 6.7L5.70045 3.175C6.10045 2.79167 6.54629 2.5 7.03795 2.3C7.52962 2.1 8.03378 2 8.55045 2C9.06712 2 9.57129 2.1 10.063 2.3C10.5546 2.5 10.9921 2.79167 11.3755 3.175L11.6505 3.45L11.9255 3.175C12.3255 2.79167 12.7713 2.5 13.263 2.3C13.7546 2.1 14.2588 2 14.7755 2C15.2921 2 15.7963 2.1 16.288 2.3C16.7796 2.5 17.2171 2.79167 17.6005 3.175L21.8255 7.4C22.2088 7.78333 22.5005 8.225 22.7005 8.725C22.9005 9.225 23.0005 9.73333 23.0005 10.25C23.0005 10.7667 22.9005 11.2708 22.7005 11.7625C22.5005 12.2542 22.2088 12.6917 21.8255 13.075L13.6255 21.25C13.3921 21.4833 13.1213 21.6667 12.813 21.8C12.5046 21.9333 12.1838 22 11.8505 22Z" fill="#101828"/>
</svg>
