<svg width="24" height="24" viewBox="0 0 24 24" fill="none" xmlns="http://www.w3.org/2000/svg">
<path d="M18 13C18.2833 13 18.5208 12.9042 18.7125 12.7125C18.9042 12.5208 19 12.2833 19 12C19 11.7167 18.9042 11.4792 18.7125 11.2875C18.5208 11.0958 18.2833 11 18 11H15C14.7167 11 14.4792 11.0958 14.2875 11.2875C14.0958 11.4792 14 11.7167 14 12C14 12.2833 14.0958 12.5208 14.2875 12.7125C14.4792 12.9042 14.7167 13 15 13H18ZM18 10C18.2833 10 18.5208 9.90417 18.7125 9.7125C18.9042 9.52083 19 9.28333 19 9C19 8.71667 18.9042 8.47917 18.7125 8.2875C18.5208 8.09583 18.2833 8 18 8H15C14.7167 8 14.4792 8.09583 14.2875 8.2875C14.0958 8.47917 14 8.71667 14 9C14 9.28333 14.0958 9.52083 14.2875 9.7125C14.4792 9.90417 14.7167 10 15 10H18ZM9 13C8.4 13 7.85833 13.0542 7.375 13.1625C6.89167 13.2708 6.46667 13.4417 6.1 13.675C5.75 13.8917 5.48333 14.1375 5.3 14.4125C5.11667 14.6875 5.025 14.9833 5.025 15.3C5.025 15.5 5.1 15.6667 5.25 15.8C5.4 15.9333 5.58333 16 5.8 16H12.2C12.4167 16 12.6 15.9292 12.75 15.7875C12.9 15.6458 12.975 15.4667 12.975 15.25C12.975 14.9667 12.8833 14.6917 12.7 14.425C12.5167 14.1583 12.25 13.9083 11.9 13.675C11.5333 13.4417 11.1083 13.2708 10.625 13.1625C10.1417 13.0542 9.6 13 9 13ZM9 12C9.55 12 10.0208 11.8042 10.4125 11.4125C10.8042 11.0208 11 10.55 11 10C11 9.45 10.8042 8.97917 10.4125 8.5875C10.0208 8.19583 9.55 8 9 8C8.45 8 7.97917 8.19583 7.5875 8.5875C7.19583 8.97917 7 9.45 7 10C7 10.55 7.19583 11.0208 7.5875 11.4125C7.97917 11.8042 8.45 12 9 12ZM4 20C3.45 20 2.97917 19.8042 2.5875 19.4125C2.19583 19.0208 2 18.55 2 18V6C2 5.45 2.19583 4.97917 2.5875 4.5875C2.97917 4.19583 3.45 4 4 4H20C20.55 4 21.0208 4.19583 21.4125 4.5875C21.8042 4.97917 22 5.45 22 6V18C22 18.55 21.8042 19.0208 21.4125 19.4125C21.0208 19.8042 20.55 20 20 20H4ZM4 18H20V6H4V18Z" fill="#101828"/>
</svg>
