<svg width="24" height="24" viewBox="0 0 24 24" fill="none" xmlns="http://www.w3.org/2000/svg">
<path d="M5 21C4.45 21 3.97917 20.8042 3.5875 20.4125C3.19583 20.0208 3 19.55 3 19V5C3 4.45 3.19583 3.97917 3.5875 3.5875C3.97917 3.19583 4.45 3 5 3H10C10.2833 3 10.5208 3.09583 10.7125 3.2875C10.9042 3.47917 11 3.71667 11 4C11 4.28333 10.9042 4.52083 10.7125 4.7125C10.5208 4.90417 10.2833 5 10 5H5V19H19V14C19 13.7167 19.0958 13.4792 19.2875 13.2875C19.4792 13.0958 19.7167 13 20 13C20.2833 13 20.5208 13.0958 20.7125 13.2875C20.9042 13.4792 21 13.7167 21 14V19C21 19.55 20.8042 20.0208 20.4125 20.4125C20.0208 20.8042 19.55 21 19 21H5ZM16 8H14C13.7167 8 13.4792 7.90417 13.2875 7.7125C13.0958 7.52083 13 7.28333 13 7C13 6.71667 13.0958 6.47917 13.2875 6.2875C13.4792 6.09583 13.7167 6 14 6H16V4C16 3.71667 16.0958 3.47917 16.2875 3.2875C16.4792 3.09583 16.7167 3 17 3C17.2833 3 17.5208 3.09583 17.7125 3.2875C17.9042 3.47917 18 3.71667 18 4V6H20C20.2833 6 20.5208 6.09583 20.7125 6.2875C20.9042 6.47917 21 6.71667 21 7C21 7.28333 20.9042 7.52083 20.7125 7.7125C20.5208 7.90417 20.2833 8 20 8H18V10C18 10.2833 17.9042 10.5208 17.7125 10.7125C17.5208 10.9042 17.2833 11 17 11C16.7167 11 16.4792 10.9042 16.2875 10.7125C16.0958 10.5208 16 10.2833 16 10V8Z" fill="#101828"/>
</svg>
