<svg width="24" height="24" viewBox="0 0 24 24" fill="none" xmlns="http://www.w3.org/2000/svg">
<path d="M5 19H14V15C14 14.7167 14.0958 14.4792 14.2875 14.2875C14.4792 14.0958 14.7167 14 15 14H19V5H5V19ZM5 21C4.45 21 3.97917 20.8042 3.5875 20.4125C3.19583 20.0208 3 19.55 3 19V5C3 4.45 3.19583 3.97917 3.5875 3.5875C3.97917 3.19583 4.45 3 5 3H19C19.55 3 20.0208 3.19583 20.4125 3.5875C20.8042 3.97917 21 4.45 21 5V14.175C21 14.4417 20.95 14.6958 20.85 14.9375C20.75 15.1792 20.6083 15.3917 20.425 15.575L15.575 20.425C15.3917 20.6083 15.1792 20.75 14.9375 20.85C14.6958 20.95 14.4417 21 14.175 21H5ZM11 14H8C7.71667 14 7.47917 13.9042 7.2875 13.7125C7.09583 13.5208 7 13.2833 7 13C7 12.7167 7.09583 12.4792 7.2875 12.2875C7.47917 12.0958 7.71667 12 8 12H11C11.2833 12 11.5208 12.0958 11.7125 12.2875C11.9042 12.4792 12 12.7167 12 13C12 13.2833 11.9042 13.5208 11.7125 13.7125C11.5208 13.9042 11.2833 14 11 14ZM16 10H8C7.71667 10 7.47917 9.90417 7.2875 9.7125C7.09583 9.52083 7 9.28333 7 9C7 8.71667 7.09583 8.47917 7.2875 8.2875C7.47917 8.09583 7.71667 8 8 8H16C16.2833 8 16.5208 8.09583 16.7125 8.2875C16.9042 8.47917 17 8.71667 17 9C17 9.28333 16.9042 9.52083 16.7125 9.7125C16.5208 9.90417 16.2833 10 16 10Z" fill="#101828"/>
</svg>
