<svg width="24" height="24" viewBox="0 0 24 24" fill="none" xmlns="http://www.w3.org/2000/svg">
<path d="M12 22C10.6333 22 9.34167 21.7375 8.125 21.2125C6.90833 20.6875 5.84583 19.9708 4.9375 19.0625C4.02917 18.1542 3.3125 17.0917 2.7875 15.875C2.2625 14.6583 2 13.3667 2 12C2 10.6167 2.27083 9.31667 2.8125 8.1C3.35417 6.88333 4.0875 5.825 5.0125 4.925C5.9375 4.025 7.01667 3.3125 8.25 2.7875C9.48333 2.2625 10.8 2 12.2 2C13.5333 2 14.7917 2.22917 15.975 2.6875C17.1583 3.14583 18.1958 3.77917 19.0875 4.5875C19.9792 5.39583 20.6875 6.35417 21.2125 7.4625C21.7375 8.57083 22 9.76667 22 11.05C22 12.9667 21.4167 14.4375 20.25 15.4625C19.0833 16.4875 17.6667 17 16 17H14.15C14 17 13.8958 17.0417 13.8375 17.125C13.7792 17.2083 13.75 17.3 13.75 17.4C13.75 17.6 13.875 17.8875 14.125 18.2625C14.375 18.6375 14.5 19.0667 14.5 19.55C14.5 20.3833 14.2708 21 13.8125 21.4C13.3542 21.8 12.75 22 12 22ZM6.5 13C6.93333 13 7.29167 12.8583 7.575 12.575C7.85833 12.2917 8 11.9333 8 11.5C8 11.0667 7.85833 10.7083 7.575 10.425C7.29167 10.1417 6.93333 10 6.5 10C6.06667 10 5.70833 10.1417 5.425 10.425C5.14167 10.7083 5 11.0667 5 11.5C5 11.9333 5.14167 12.2917 5.425 12.575C5.70833 12.8583 6.06667 13 6.5 13ZM9.5 9C9.93333 9 10.2917 8.85833 10.575 8.575C10.8583 8.29167 11 7.93333 11 7.5C11 7.06667 10.8583 6.70833 10.575 6.425C10.2917 6.14167 9.93333 6 9.5 6C9.06667 6 8.70833 6.14167 8.425 6.425C8.14167 6.70833 8 7.06667 8 7.5C8 7.93333 8.14167 8.29167 8.425 8.575C8.70833 8.85833 9.06667 9 9.5 9ZM14.5 9C14.9333 9 15.2917 8.85833 15.575 8.575C15.8583 8.29167 16 7.93333 16 7.5C16 7.06667 15.8583 6.70833 15.575 6.425C15.2917 6.14167 14.9333 6 14.5 6C14.0667 6 13.7083 6.14167 13.425 6.425C13.1417 6.70833 13 7.06667 13 7.5C13 7.93333 13.1417 8.29167 13.425 8.575C13.7083 8.85833 14.0667 9 14.5 9ZM17.5 13C17.9333 13 18.2917 12.8583 18.575 12.575C18.8583 12.2917 19 11.9333 19 11.5C19 11.0667 18.8583 10.7083 18.575 10.425C18.2917 10.1417 17.9333 10 17.5 10C17.0667 10 16.7083 10.1417 16.425 10.425C16.1417 10.7083 16 11.0667 16 11.5C16 11.9333 16.1417 12.2917 16.425 12.575C16.7083 12.8583 17.0667 13 17.5 13ZM12 20C12.15 20 12.2708 19.9583 12.3625 19.875C12.4542 19.7917 12.5 19.6833 12.5 19.55C12.5 19.3167 12.375 19.0417 12.125 18.725C11.875 18.4083 11.75 17.9333 11.75 17.3C11.75 16.6 11.9917 16.0417 12.475 15.625C12.9583 15.2083 13.55 15 14.25 15H16C17.1 15 18.0417 14.6792 18.825 14.0375C19.6083 13.3958 20 12.4 20 11.05C20 9.03333 19.2292 7.35417 17.6875 6.0125C16.1458 4.67083 14.3167 4 12.2 4C9.93333 4 8 4.775 6.4 6.325C4.8 7.875 4 9.76667 4 12C4 14.2167 4.77917 16.1042 6.3375 17.6625C7.89583 19.2208 9.78333 20 12 20Z" fill="#101828"/>
</svg>
