<svg width="24" height="24" viewBox="0 0 24 24" fill="none" xmlns="http://www.w3.org/2000/svg">
<path d="M20 10.1342C20 10.5808 19.9481 11.0375 19.8649 11.49C19.1873 15.1725 16.868 16.445 13.9057 16.445H13.448C13.0856 16.445 12.7777 16.7234 12.7217 17.1025L12.0793 21.3441C12.0225 21.7216 11.7145 22 11.3529 22H9.16408C8.85208 22 8.61369 21.71 8.66169 21.39L9.77049 13.99L9.82007 13.9433H11.5441C15.7321 13.9433 18.3512 11.7616 19.1225 7.63661C19.772 8.31493 20 9.20001 20 10.1342ZM8.62723 13.6775C8.72004 12.9892 8.99443 12.6967 9.73524 12.695L11.5433 12.6933C15.2024 12.6933 17.3017 10.9517 17.9617 7.36833C18.6017 3.92332 16.28 2 13.1369 2H7.26167C6.84808 2 6.49524 2.31832 6.43127 2.75082C4.58807 15.1134 4.05527 18.2567 4.00086 19.2159C3.98406 19.5175 4.21607 19.7759 4.50887 19.7759H7.70008L8.62731 13.6775H8.62723Z" fill="#101828"/>
</svg>
