<svg width="24" height="24" viewBox="0 0 24 24" fill="none" xmlns="http://www.w3.org/2000/svg">
<path d="M3 21.4V2.60001C3 2.48335 3.05 2.40418 3.15 2.36251C3.25 2.32085 3.34167 2.34168 3.425 2.42501L4.15 3.15001C4.25 3.25001 4.36667 3.30001 4.5 3.30001C4.63333 3.30001 4.75 3.25001 4.85 3.15001L5.65 2.35001C5.75 2.25001 5.86667 2.20001 6 2.20001C6.13333 2.20001 6.25 2.25001 6.35 2.35001L7.15 3.15001C7.25 3.25001 7.36667 3.30001 7.5 3.30001C7.63333 3.30001 7.75 3.25001 7.85 3.15001L8.65 2.35001C8.75 2.25001 8.86667 2.20001 9 2.20001C9.13333 2.20001 9.25 2.25001 9.35 2.35001L10.15 3.15001C10.25 3.25001 10.3667 3.30001 10.5 3.30001C10.6333 3.30001 10.75 3.25001 10.85 3.15001L11.65 2.35001C11.75 2.25001 11.8667 2.20001 12 2.20001C12.1333 2.20001 12.25 2.25001 12.35 2.35001L13.15 3.15001C13.25 3.25001 13.3667 3.30001 13.5 3.30001C13.6333 3.30001 13.75 3.25001 13.85 3.15001L14.65 2.35001C14.75 2.25001 14.8667 2.20001 15 2.20001C15.1333 2.20001 15.25 2.25001 15.35 2.35001L16.15 3.15001C16.25 3.25001 16.3667 3.30001 16.5 3.30001C16.6333 3.30001 16.75 3.25001 16.85 3.15001L17.65 2.35001C17.75 2.25001 17.8667 2.20001 18 2.20001C18.1333 2.20001 18.25 2.25001 18.35 2.35001L19.15 3.15001C19.25 3.25001 19.3667 3.30001 19.5 3.30001C19.6333 3.30001 19.75 3.25001 19.85 3.15001L20.575 2.42501C20.6583 2.34168 20.75 2.32085 20.85 2.36251C20.95 2.40418 21 2.48335 21 2.60001V21.4C21 21.5167 20.95 21.5958 20.85 21.6375C20.75 21.6792 20.6583 21.6583 20.575 21.575L19.85 20.85C19.75 20.75 19.6333 20.7 19.5 20.7C19.3667 20.7 19.25 20.75 19.15 20.85L18.35 21.65C18.25 21.75 18.1333 21.8 18 21.8C17.8667 21.8 17.75 21.75 17.65 21.65L16.85 20.85C16.75 20.75 16.6333 20.7 16.5 20.7C16.3667 20.7 16.25 20.75 16.15 20.85L15.35 21.65C15.25 21.75 15.1333 21.8 15 21.8C14.8667 21.8 14.75 21.75 14.65 21.65L13.85 20.85C13.75 20.75 13.6333 20.7 13.5 20.7C13.3667 20.7 13.25 20.75 13.15 20.85L12.35 21.65C12.25 21.75 12.1333 21.8 12 21.8C11.8667 21.8 11.75 21.75 11.65 21.65L10.85 20.85C10.75 20.75 10.6333 20.7 10.5 20.7C10.3667 20.7 10.25 20.75 10.15 20.85L9.35 21.65C9.25 21.75 9.13333 21.8 9 21.8C8.86667 21.8 8.75 21.75 8.65 21.65L7.85 20.85C7.75 20.75 7.63333 20.7 7.5 20.7C7.36667 20.7 7.25 20.75 7.15 20.85L6.35 21.65C6.25 21.75 6.13333 21.8 6 21.8C5.86667 21.8 5.75 21.75 5.65 21.65L4.85 20.85C4.75 20.75 4.63333 20.7 4.5 20.7C4.36667 20.7 4.25 20.75 4.15 20.85L3.425 21.575C3.34167 21.6583 3.25 21.6792 3.15 21.6375C3.05 21.5958 3 21.5167 3 21.4ZM7 17H17C17.2833 17 17.5208 16.9042 17.7125 16.7125C17.9042 16.5208 18 16.2833 18 16C18 15.7167 17.9042 15.4792 17.7125 15.2875C17.5208 15.0958 17.2833 15 17 15H7C6.71667 15 6.47917 15.0958 6.2875 15.2875C6.09583 15.4792 6 15.7167 6 16C6 16.2833 6.09583 16.5208 6.2875 16.7125C6.47917 16.9042 6.71667 17 7 17ZM7 13H17C17.2833 13 17.5208 12.9042 17.7125 12.7125C17.9042 12.5208 18 12.2833 18 12C18 11.7167 17.9042 11.4792 17.7125 11.2875C17.5208 11.0958 17.2833 11 17 11H7C6.71667 11 6.47917 11.0958 6.2875 11.2875C6.09583 11.4792 6 11.7167 6 12C6 12.2833 6.09583 12.5208 6.2875 12.7125C6.47917 12.9042 6.71667 13 7 13ZM7 9.00001H17C17.2833 9.00001 17.5208 8.90418 17.7125 8.71251C17.9042 8.52085 18 8.28335 18 8.00001C18 7.71668 17.9042 7.47918 17.7125 7.28751C17.5208 7.09585 17.2833 7.00001 17 7.00001H7C6.71667 7.00001 6.47917 7.09585 6.2875 7.28751C6.09583 7.47918 6 7.71668 6 8.00001C6 8.28335 6.09583 8.52085 6.2875 8.71251C6.47917 8.90418 6.71667 9.00001 7 9.00001ZM5 19.1H19V4.90001H5V19.1Z" fill="#101828"/>
</svg>
