<svg width="24" height="24" viewBox="0 0 24 24" fill="none" xmlns="http://www.w3.org/2000/svg">
<path d="M10.8255 22C10.3755 22 9.98797 21.85 9.66297 21.55C9.33797 21.25 9.14214 20.8833 9.07547 20.45L8.85047 18.8C8.6338 18.7167 8.42964 18.6167 8.23797 18.5C8.0463 18.3833 7.8588 18.2583 7.67547 18.125L6.12547 18.775C5.7088 18.9583 5.29214 18.975 4.87547 18.825C4.4588 18.675 4.1338 18.4083 3.90047 18.025L2.72547 15.975C2.49214 15.5917 2.42547 15.1833 2.52547 14.75C2.62547 14.3167 2.85047 13.9583 3.20047 13.675L4.52547 12.675C4.5088 12.5583 4.50047 12.4458 4.50047 12.3375V11.6625C4.50047 11.5542 4.5088 11.4417 4.52547 11.325L3.20047 10.325C2.85047 10.0417 2.62547 9.68333 2.52547 9.25C2.42547 8.81667 2.49214 8.40833 2.72547 8.025L3.90047 5.975C4.1338 5.59167 4.4588 5.325 4.87547 5.175C5.29214 5.025 5.7088 5.04167 6.12547 5.225L7.67547 5.875C7.8588 5.74167 8.05047 5.61667 8.25047 5.5C8.45047 5.38333 8.65047 5.28333 8.85047 5.2L9.07547 3.55C9.14214 3.11667 9.33797 2.75 9.66297 2.45C9.98797 2.15 10.3755 2 10.8255 2H13.1755C13.6255 2 14.013 2.15 14.338 2.45C14.663 2.75 14.8588 3.11667 14.9255 3.55L15.1505 5.2C15.3671 5.28333 15.5713 5.38333 15.763 5.5C15.9546 5.61667 16.1421 5.74167 16.3255 5.875L17.8755 5.225C18.2921 5.04167 18.7088 5.025 19.1255 5.175C19.5421 5.325 19.8671 5.59167 20.1005 5.975L21.2755 8.025C21.5088 8.40833 21.5755 8.81667 21.4755 9.25C21.3755 9.68333 21.1505 10.0417 20.8005 10.325L19.4755 11.325C19.4921 11.4417 19.5005 11.5542 19.5005 11.6625V12.3375C19.5005 12.4458 19.4838 12.5583 19.4505 12.675L20.7755 13.675C21.1255 13.9583 21.3505 14.3167 21.4505 14.75C21.5505 15.1833 21.4838 15.5917 21.2505 15.975L20.0505 18.025C19.8171 18.4083 19.4921 18.675 19.0755 18.825C18.6588 18.975 18.2421 18.9583 17.8255 18.775L16.3255 18.125C16.1421 18.2583 15.9505 18.3833 15.7505 18.5C15.5505 18.6167 15.3505 18.7167 15.1505 18.8L14.9255 20.45C14.8588 20.8833 14.663 21.25 14.338 21.55C14.013 21.85 13.6255 22 13.1755 22H10.8255ZM12.0505 15.5C13.0171 15.5 13.8421 15.1583 14.5255 14.475C15.2088 13.7917 15.5505 12.9667 15.5505 12C15.5505 11.0333 15.2088 10.2083 14.5255 9.525C13.8421 8.84167 13.0171 8.5 12.0505 8.5C11.0671 8.5 10.238 8.84167 9.56297 9.525C8.88797 10.2083 8.55047 11.0333 8.55047 12C8.55047 12.9667 8.88797 13.7917 9.56297 14.475C10.238 15.1583 11.0671 15.5 12.0505 15.5Z" fill="#101828"/>
</svg>
