<svg width="24" height="24" viewBox="0 0 24 24" fill="none" xmlns="http://www.w3.org/2000/svg">
<path d="M5 21C4.45 21 3.97917 20.8042 3.5875 20.4125C3.19583 20.0208 3 19.55 3 19V5C3 4.45 3.19583 3.97917 3.5875 3.5875C3.97917 3.19583 4.45 3 5 3H19C19.55 3 20.0208 3.19583 20.4125 3.5875C20.8042 3.97917 21 4.45 21 5V6C21 6.28333 20.9042 6.52083 20.7125 6.7125C20.5208 6.90417 20.2833 7 20 7C19.7167 7 19.4792 6.90417 19.2875 6.7125C19.0958 6.52083 19 6.28333 19 6V5H5V19H19V18C19 17.7167 19.0958 17.4792 19.2875 17.2875C19.4792 17.0958 19.7167 17 20 17C20.2833 17 20.5208 17.0958 20.7125 17.2875C20.9042 17.4792 21 17.7167 21 18V19C21 19.55 20.8042 20.0208 20.4125 20.4125C20.0208 20.8042 19.55 21 19 21H5ZM18.175 13H10C9.71667 13 9.47917 12.9042 9.2875 12.7125C9.09583 12.5208 9 12.2833 9 12C9 11.7167 9.09583 11.4792 9.2875 11.2875C9.47917 11.0958 9.71667 11 10 11H18.175L16.3 9.1C16.1167 8.91667 16.0208 8.6875 16.0125 8.4125C16.0042 8.1375 16.1 7.9 16.3 7.7C16.4833 7.51667 16.7167 7.425 17 7.425C17.2833 7.425 17.5167 7.51667 17.7 7.7L21.3 11.3C21.4 11.4 21.4708 11.5083 21.5125 11.625C21.5542 11.7417 21.575 11.8667 21.575 12C21.575 12.1333 21.5542 12.2583 21.5125 12.375C21.4708 12.4917 21.4 12.6 21.3 12.7L17.7 16.3C17.5167 16.4833 17.2875 16.5792 17.0125 16.5875C16.7375 16.5958 16.5 16.5 16.3 16.3C16.1167 16.1167 16.025 15.8833 16.025 15.6C16.025 15.3167 16.1167 15.0833 16.3 14.9L18.175 13Z" fill="#101828"/>
</svg>
