<svg width="24" height="24" viewBox="0 0 24 24" fill="none" xmlns="http://www.w3.org/2000/svg">
<path d="M6.5 20C4.98333 20 3.6875 19.475 2.6125 18.425C1.5375 17.375 1 16.0917 1 14.575C1 13.275 1.39167 12.1167 2.175 11.1C2.95833 10.0833 3.98333 9.43333 5.25 9.15C5.66667 7.61667 6.5 6.375 7.75 5.425C9 4.475 10.4167 4 12 4C13.6 4 15.0125 4.46667 16.2375 5.4C17.4625 6.33333 18.2917 7.53333 18.725 9C18.8083 9.28333 18.7708 9.53333 18.6125 9.75C18.4542 9.96667 18.2583 10.1083 18.025 10.175C17.7917 10.2417 17.55 10.2167 17.3 10.1C17.05 9.98333 16.8667 9.75833 16.75 9.425C16.4167 8.425 15.8167 7.60417 14.95 6.9625C14.0833 6.32083 13.1 6 12 6C10.6167 6 9.4375 6.4875 8.4625 7.4625C7.4875 8.4375 7 9.61667 7 11H6.5C5.53333 11 4.70833 11.3417 4.025 12.025C3.34167 12.7083 3 13.5333 3 14.5C3 15.4667 3.34167 16.2917 4.025 16.975C4.70833 17.6583 5.53333 18 6.5 18H13C13.2833 18 13.5208 18.0958 13.7125 18.2875C13.9042 18.4792 14 18.7167 14 19C14 19.2833 13.9042 19.5208 13.7125 19.7125C13.5208 19.9042 13.2833 20 13 20H6.5ZM17 20C16.7167 20 16.4792 19.9042 16.2875 19.7125C16.0958 19.5208 16 19.2833 16 19V16C16 15.7167 16.0958 15.4792 16.2875 15.2875C16.4792 15.0958 16.7167 15 17 15V14C17 13.45 17.1958 12.9792 17.5875 12.5875C17.9792 12.1958 18.45 12 19 12C19.55 12 20.0208 12.1958 20.4125 12.5875C20.8042 12.9792 21 13.45 21 14V15C21.2833 15 21.5208 15.0958 21.7125 15.2875C21.9042 15.4792 22 15.7167 22 16V19C22 19.2833 21.9042 19.5208 21.7125 19.7125C21.5208 19.9042 21.2833 20 21 20H17ZM18 15H20V14C20 13.7167 19.9042 13.4792 19.7125 13.2875C19.5208 13.0958 19.2833 13 19 13C18.7167 13 18.4792 13.0958 18.2875 13.2875C18.0958 13.4792 18 13.7167 18 14V15Z" fill="#101828"/>
</svg>
