<svg width="24" height="24" viewBox="0 0 24 24" fill="none" xmlns="http://www.w3.org/2000/svg">
<path d="M12 17.275L7.85002 19.775C7.66668 19.8917 7.47501 19.9417 7.27501 19.925C7.07501 19.9083 6.90002 19.8417 6.75002 19.725C6.60001 19.6083 6.48335 19.4625 6.40002 19.2875C6.31668 19.1125 6.30002 18.9167 6.35002 18.7L7.45002 13.975L3.77502 10.8C3.60835 10.65 3.50418 10.4792 3.46252 10.2875C3.42085 10.0958 3.43335 9.90835 3.50002 9.72501C3.56668 9.54168 3.66668 9.39168 3.80002 9.27501C3.93335 9.15835 4.11668 9.08335 4.35002 9.05001L9.20002 8.62501L11.075 4.17501C11.1583 3.97501 11.2875 3.82501 11.4625 3.72501C11.6375 3.62501 11.8167 3.57501 12 3.57501C12.1833 3.57501 12.3625 3.62501 12.5375 3.72501C12.7125 3.82501 12.8417 3.97501 12.925 4.17501L14.8 8.62501L19.65 9.05001C19.8833 9.08335 20.0667 9.15835 20.2 9.27501C20.3333 9.39168 20.4333 9.54168 20.5 9.72501C20.5667 9.90835 20.5792 10.0958 20.5375 10.2875C20.4958 10.4792 20.3917 10.65 20.225 10.8L16.55 13.975L17.65 18.7C17.7 18.9167 17.6833 19.1125 17.6 19.2875C17.5167 19.4625 17.4 19.6083 17.25 19.725C17.1 19.8417 16.925 19.9083 16.725 19.925C16.525 19.9417 16.3333 19.8917 16.15 19.775L12 17.275Z" fill="#101828"/>
</svg>
