<svg width="24" height="24" viewBox="0 0 24 24" fill="none" xmlns="http://www.w3.org/2000/svg">
<path d="M4 20C3.45 20 2.97917 19.8042 2.5875 19.4125C2.19583 19.0208 2 18.55 2 18V6C2 5.45 2.19583 4.97917 2.5875 4.5875C2.97917 4.19583 3.45 4 4 4H20C20.55 4 21.0208 4.19583 21.4125 4.5875C21.8042 4.97917 22 5.45 22 6V18C22 18.55 21.8042 19.0208 21.4125 19.4125C21.0208 19.8042 20.55 20 20 20H4ZM4 18H20V8H4V18ZM8.675 13L6.775 11.1C6.575 10.9 6.47917 10.6667 6.4875 10.4C6.49583 10.1333 6.6 9.9 6.8 9.7C7 9.51667 7.23333 9.42083 7.5 9.4125C7.76667 9.40417 8 9.5 8.2 9.7L10.8 12.3C11 12.5 11.1 12.7333 11.1 13C11.1 13.2667 11 13.5 10.8 13.7L8.2 16.3C8.01667 16.4833 7.7875 16.5792 7.5125 16.5875C7.2375 16.5958 7 16.5 6.8 16.3C6.61667 16.1167 6.525 15.8833 6.525 15.6C6.525 15.3167 6.61667 15.0833 6.8 14.9L8.675 13ZM13 17C12.7167 17 12.4792 16.9042 12.2875 16.7125C12.0958 16.5208 12 16.2833 12 16C12 15.7167 12.0958 15.4792 12.2875 15.2875C12.4792 15.0958 12.7167 15 13 15H17C17.2833 15 17.5208 15.0958 17.7125 15.2875C17.9042 15.4792 18 15.7167 18 16C18 16.2833 17.9042 16.5208 17.7125 16.7125C17.5208 16.9042 17.2833 17 17 17H13Z" fill="#101828"/>
</svg>
