<svg width="24" height="24" viewBox="0 0 24 24" fill="none" xmlns="http://www.w3.org/2000/svg">
<path d="M12 17.675C12.2833 17.675 12.5208 17.5792 12.7125 17.3875C12.9042 17.1958 13 16.9583 13 16.675V13.475L13.9 14.375C14.0833 14.5583 14.3167 14.65 14.6 14.65C14.8833 14.65 15.1167 14.5583 15.3 14.375C15.4833 14.1917 15.575 13.9583 15.575 13.675C15.575 13.3917 15.4833 13.1583 15.3 12.975L12.7 10.4C12.5 10.2 12.2667 10.1 12 10.1C11.7333 10.1 11.5 10.2 11.3 10.4L8.7 12.975C8.51667 13.1583 8.425 13.3917 8.425 13.675C8.425 13.9583 8.51667 14.1917 8.7 14.375C8.88333 14.5583 9.11667 14.65 9.4 14.65C9.68333 14.65 9.91667 14.5583 10.1 14.375L11 13.475V16.675C11 16.9583 11.0958 17.1958 11.2875 17.3875C11.4792 17.5792 11.7167 17.675 12 17.675ZM5 8V19H19V8H5ZM5 21C4.45 21 3.97917 20.8042 3.5875 20.4125C3.19583 20.0208 3 19.55 3 19V6.525C3 6.29167 3.0375 6.06667 3.1125 5.85C3.1875 5.63333 3.3 5.43333 3.45 5.25L4.7 3.725C4.88333 3.49167 5.1125 3.3125 5.3875 3.1875C5.6625 3.0625 5.95 3 6.25 3H17.75C18.05 3 18.3375 3.0625 18.6125 3.1875C18.8875 3.3125 19.1167 3.49167 19.3 3.725L20.55 5.25C20.7 5.43333 20.8125 5.63333 20.8875 5.85C20.9625 6.06667 21 6.29167 21 6.525V19C21 19.55 20.8042 20.0208 20.4125 20.4125C20.0208 20.8042 19.55 21 19 21H5ZM5.4 6H18.6L17.75 5H6.25L5.4 6Z" fill="#101828"/>
</svg>
