<svg width="24" height="24" viewBox="0 0 24 24" fill="none" xmlns="http://www.w3.org/2000/svg">
<path d="M7.9998 19C7.71647 19 7.47897 18.9042 7.2873 18.7125C7.09564 18.5208 6.9998 18.2833 6.9998 18C6.9998 17.7167 7.09564 17.4792 7.2873 17.2875C7.47897 17.0958 7.71647 17 7.9998 17H14.0998C15.1498 17 16.0623 16.6667 16.8373 16C17.6123 15.3333 17.9998 14.5 17.9998 13.5C17.9998 12.5 17.6123 11.6667 16.8373 11C16.0623 10.3333 15.1498 9.99999 14.0998 9.99999H7.7998L9.6998 11.9C9.88314 12.0833 9.9748 12.3167 9.9748 12.6C9.9748 12.8833 9.88314 13.1167 9.6998 13.3C9.51647 13.4833 9.28314 13.575 8.9998 13.575C8.71647 13.575 8.48314 13.4833 8.2998 13.3L4.6998 9.69999C4.5998 9.59999 4.52897 9.49165 4.4873 9.37499C4.44564 9.25832 4.4248 9.13332 4.4248 8.99999C4.4248 8.86665 4.44564 8.74165 4.4873 8.62499C4.52897 8.50832 4.5998 8.39999 4.6998 8.29999L8.2998 4.69999C8.48314 4.51665 8.71647 4.42499 8.9998 4.42499C9.28314 4.42499 9.51647 4.51665 9.6998 4.69999C9.88314 4.88332 9.9748 5.11665 9.9748 5.39999C9.9748 5.68332 9.88314 5.91665 9.6998 6.09999L7.7998 7.99999H14.0998C15.7165 7.99999 17.104 8.52499 18.2623 9.57499C19.4206 10.625 19.9998 11.9333 19.9998 13.5C19.9998 15.0667 19.4206 16.375 18.2623 17.425C17.104 18.475 15.7165 19 14.0998 19H7.9998Z" fill="#101828"/>
</svg>
