<svg width="24" height="24" viewBox="0 0 24 24" fill="none" xmlns="http://www.w3.org/2000/svg">
<path d="M6 19.7875C5.45 19.7875 4.97917 19.5917 4.5875 19.2C4.19583 18.8083 4 18.3375 4 17.7875V15.7875C4 15.5042 4.09583 15.2667 4.2875 15.075C4.47917 14.8833 4.71667 14.7875 5 14.7875C5.28333 14.7875 5.52083 14.8833 5.7125 15.075C5.90417 15.2667 6 15.5042 6 15.7875V17.7875H18V15.7875C18 15.5042 18.0958 15.2667 18.2875 15.075C18.4792 14.8833 18.7167 14.7875 19 14.7875C19.2833 14.7875 19.5208 14.8833 19.7125 15.075C19.9042 15.2667 20 15.5042 20 15.7875V17.7875C20 18.3375 19.8042 18.8083 19.4125 19.2C19.0208 19.5917 18.55 19.7875 18 19.7875H6ZM11 7.63749L9.125 9.51249C8.925 9.71249 8.6875 9.80833 8.4125 9.79999C8.1375 9.79166 7.9 9.68749 7.7 9.48749C7.51667 9.28749 7.42083 9.05416 7.4125 8.78749C7.40417 8.52083 7.5 8.28749 7.7 8.08749L11.3 4.48749C11.4 4.38749 11.5083 4.31666 11.625 4.27499C11.7417 4.23333 11.8667 4.21249 12 4.21249C12.1333 4.21249 12.2583 4.23333 12.375 4.27499C12.4917 4.31666 12.6 4.38749 12.7 4.48749L16.3 8.08749C16.5 8.28749 16.5958 8.52083 16.5875 8.78749C16.5792 9.05416 16.4833 9.28749 16.3 9.48749C16.1 9.68749 15.8625 9.79166 15.5875 9.79999C15.3125 9.80833 15.075 9.71249 14.875 9.51249L13 7.63749V14.7875C13 15.0708 12.9042 15.3083 12.7125 15.5C12.5208 15.6917 12.2833 15.7875 12 15.7875C11.7167 15.7875 11.4792 15.6917 11.2875 15.5C11.0958 15.3083 11 15.0708 11 14.7875V7.63749Z" fill="#1C1B1F"/>
</svg>
