<svg width="24" height="24" viewBox="0 0 24 24" fill="none" xmlns="http://www.w3.org/2000/svg">
<path fill-rule="evenodd" clip-rule="evenodd" d="M9.05957 7.5459C9.60955 7.5459 10.0595 7.99593 10.0596 8.5459V9.25586C10.3895 9.37584 10.69 9.54568 10.96 9.76562L11.5596 9.41602C12.0396 9.14602 12.6497 9.30613 12.9297 9.78613C13.1997 10.2661 13.0396 10.8763 12.5596 11.1562L11.9795 11.4961C12.0095 11.6661 12.0303 11.8464 12.0303 12.0264C12.0302 12.2062 12.0094 12.3859 11.9795 12.5557L12.5596 12.8955C13.0395 13.1755 13.2096 13.7856 12.9297 14.2656C12.7397 14.5856 12.4096 14.7656 12.0596 14.7656C11.8897 14.7656 11.7195 14.7257 11.5596 14.6357L10.96 14.2861C10.69 14.5061 10.3895 14.6759 10.0596 14.7959V15.5059C10.0596 16.0559 9.60957 16.5059 9.05957 16.5059C8.50972 16.5057 8.05957 16.0557 8.05957 15.5059V14.7764C7.74963 14.6564 7.45992 14.4756 7.20996 14.2656L6.55957 14.6357C6.39962 14.7257 6.22951 14.7656 6.05957 14.7656C5.7097 14.7655 5.37939 14.5855 5.18945 14.2656C4.91982 13.7857 5.07976 13.1754 5.55957 12.8955L6.20996 12.5156C6.18002 12.3559 6.16019 12.1961 6.16016 12.0264C6.16016 11.8564 6.17998 11.6961 6.20996 11.5361L5.55957 11.1562C5.07978 10.8763 4.90975 10.266 5.18945 9.78613C5.46941 9.30621 6.07961 9.1362 6.55957 9.41602L7.20996 9.78613C7.45985 9.57623 7.73975 9.39637 8.05957 9.27637V8.5459C8.0596 7.99604 8.50974 7.54608 9.05957 7.5459ZM9.08984 11.0957C8.57987 11.0957 8.16016 11.5164 8.16016 12.0264C8.16038 12.5362 8.58001 12.956 9.08984 12.9561C9.59971 12.9561 10.0193 12.5362 10.0195 12.0264C10.0195 11.5164 9.59984 11.0957 9.08984 11.0957Z" fill="#101828"/>
<path fill-rule="evenodd" clip-rule="evenodd" d="M20.21 3.75977C21.22 3.85977 22.0098 4.71 22.0098 5.75V17.9531C22.0098 18.9931 21.22 19.8431 20.21 19.9531H18.54V20.3535C18.5398 20.9033 18.0899 21.3535 17.54 21.3535C16.9802 21.3535 16.5402 20.9033 16.54 20.3535V19.9531H7.54004V20.3535C7.53982 20.9033 7.08989 21.3535 6.54004 21.3535C5.98017 21.3535 5.54025 20.9033 5.54004 20.3535V19.9531H4C2.9 19.9531 2 19.0531 2 17.9531V5.75C2 4.65 2.9 3.75 4 3.75L20.21 3.75977ZM4 5.75V17.9531H20.0195V15.9258H19.0703C18.5103 15.9258 18.0703 15.4758 18.0703 14.9258C18.0704 14.3759 18.5204 13.9258 19.0703 13.9258H20.0098V9.92578H19.04C18.48 9.92578 18.04 9.47578 18.04 8.92578C18.0401 8.37586 18.4901 7.92578 19.04 7.92578H20V5.75H4Z" fill="#101828"/>
</svg>
