<svg width="24" height="24" viewBox="0 0 24 24" fill="none" xmlns="http://www.w3.org/2000/svg">
<path d="M15.175 8.32498C15.6583 8.80831 16.0125 9.35831 16.2375 9.97498C16.4625 10.5916 16.5417 11.225 16.475 11.875C16.475 12.125 16.3833 12.3375 16.2 12.5125C16.0167 12.6875 15.8 12.775 15.55 12.775C15.3 12.775 15.0875 12.6875 14.9125 12.5125C14.7375 12.3375 14.65 12.125 14.65 11.875C14.7333 11.4416 14.7083 11.025 14.575 10.625C14.4417 10.225 14.2333 9.88331 13.95 9.59998C13.6667 9.31664 13.325 9.09998 12.925 8.94998C12.525 8.79998 12.1 8.76664 11.65 8.84998C11.4 8.84998 11.1875 8.75831 11.0125 8.57498C10.8375 8.39164 10.75 8.17498 10.75 7.92498C10.75 7.67498 10.8375 7.46248 11.0125 7.28748C11.1875 7.11248 11.4 7.02498 11.65 7.02498C12.2833 6.95831 12.9083 7.03748 13.525 7.26248C14.1417 7.48748 14.6917 7.84164 15.175 8.32498ZM12 5.99998C11.6833 5.99998 11.375 6.01248 11.075 6.03748C10.775 6.06248 10.475 6.10831 10.175 6.17498C9.89167 6.22498 9.6375 6.18331 9.4125 6.04998C9.1875 5.91664 9.03333 5.71664 8.95 5.44998C8.86667 5.18331 8.89583 4.92498 9.0375 4.67498C9.17917 4.42498 9.38333 4.27498 9.65 4.22498C10.0333 4.14164 10.4208 4.08331 10.8125 4.04998C11.2042 4.01664 11.6 3.99998 12 3.99998C14.2833 3.99998 16.3708 4.59998 18.2625 5.79998C20.1542 6.99998 21.6 8.61664 22.6 10.65C22.6667 10.7833 22.7167 10.9208 22.75 11.0625C22.7833 11.2041 22.8 11.35 22.8 11.5C22.8 11.65 22.7875 11.7958 22.7625 11.9375C22.7375 12.0791 22.6917 12.2166 22.625 12.35C22.325 13.0166 21.9542 13.6416 21.5125 14.225C21.0708 14.8083 20.5833 15.3416 20.05 15.825C19.85 16.0083 19.6167 16.0833 19.35 16.05C19.0833 16.0166 18.8667 15.8833 18.7 15.65C18.5333 15.4166 18.4625 15.1625 18.4875 14.8875C18.5125 14.6125 18.625 14.3833 18.825 14.2C19.225 13.8166 19.5917 13.4 19.925 12.95C20.2583 12.5 20.55 12.0166 20.8 11.5C19.9667 9.81664 18.7625 8.47914 17.1875 7.48748C15.6125 6.49581 13.8833 5.99998 12 5.99998ZM12 19C9.76667 19 7.725 18.3958 5.875 17.1875C4.025 15.9791 2.56667 14.3916 1.5 12.425C1.41667 12.2916 1.35417 12.1458 1.3125 11.9875C1.27083 11.8291 1.25 11.6666 1.25 11.5C1.25 11.3333 1.26667 11.175 1.3 11.025C1.33333 10.875 1.39167 10.725 1.475 10.575C1.80833 9.90831 2.19583 9.27081 2.6375 8.66248C3.07917 8.05414 3.58333 7.49998 4.15 6.99998L2.075 4.89998C1.89167 4.69998 1.80417 4.46248 1.8125 4.18748C1.82083 3.91248 1.91667 3.68331 2.1 3.49998C2.28333 3.31664 2.51667 3.22498 2.8 3.22498C3.08333 3.22498 3.31667 3.31664 3.5 3.49998L20.5 20.5C20.6833 20.6833 20.7792 20.9125 20.7875 21.1875C20.7958 21.4625 20.7 21.7 20.5 21.9C20.3167 22.0833 20.0833 22.175 19.8 22.175C19.5167 22.175 19.2833 22.0833 19.1 21.9L15.6 18.45C15.0167 18.6333 14.425 18.7708 13.825 18.8625C13.225 18.9541 12.6167 19 12 19ZM5.55 8.39998C5.06667 8.83331 4.625 9.30831 4.225 9.82498C3.825 10.3416 3.48333 10.9 3.2 11.5C4.03333 13.1833 5.2375 14.5208 6.8125 15.5125C8.3875 16.5041 10.1167 17 12 17C12.3333 17 12.6583 16.9791 12.975 16.9375C13.2917 16.8958 13.6167 16.85 13.95 16.8L13.05 15.85C12.8667 15.9 12.6917 15.9375 12.525 15.9625C12.3583 15.9875 12.1833 16 12 16C10.75 16 9.6875 15.5625 8.8125 14.6875C7.9375 13.8125 7.5 12.75 7.5 11.5C7.5 11.3166 7.5125 11.1416 7.5375 10.975C7.5625 10.8083 7.6 10.6333 7.65 10.45L5.55 8.39998Z" fill="#101828"/>
</svg>
