<svg width="24" height="24" viewBox="0 0 24 24" fill="none" xmlns="http://www.w3.org/2000/svg">
<path d="M12.0004 16C13.2504 16 14.3129 15.5625 15.1879 14.6875C16.0629 13.8125 16.5004 12.75 16.5004 11.5C16.5004 10.25 16.0629 9.1875 15.1879 8.3125C14.3129 7.4375 13.2504 7 12.0004 7C10.7504 7 9.68789 7.4375 8.81289 8.3125C7.93789 9.1875 7.50039 10.25 7.50039 11.5C7.50039 12.75 7.93789 13.8125 8.81289 14.6875C9.68789 15.5625 10.7504 16 12.0004 16ZM12.0004 14.2C11.2504 14.2 10.6129 13.9375 10.0879 13.4125C9.56289 12.8875 9.30039 12.25 9.30039 11.5C9.30039 10.75 9.56289 10.1125 10.0879 9.5875C10.6129 9.0625 11.2504 8.8 12.0004 8.8C12.7504 8.8 13.3879 9.0625 13.9129 9.5875C14.4379 10.1125 14.7004 10.75 14.7004 11.5C14.7004 12.25 14.4379 12.8875 13.9129 13.4125C13.3879 13.9375 12.7504 14.2 12.0004 14.2ZM12.0004 19C9.76706 19 7.72956 18.4 5.88789 17.2C4.04622 16 2.59206 14.4167 1.52539 12.45C1.44206 12.3 1.37956 12.1458 1.33789 11.9875C1.29622 11.8292 1.27539 11.6667 1.27539 11.5C1.27539 11.3333 1.29622 11.1708 1.33789 11.0125C1.37956 10.8542 1.44206 10.7 1.52539 10.55C2.59206 8.58333 4.04622 7 5.88789 5.8C7.72956 4.6 9.76706 4 12.0004 4C14.2337 4 16.2712 4.6 18.1129 5.8C19.9546 7 21.4087 8.58333 22.4754 10.55C22.5587 10.7 22.6212 10.8542 22.6629 11.0125C22.7046 11.1708 22.7254 11.3333 22.7254 11.5C22.7254 11.6667 22.7046 11.8292 22.6629 11.9875C22.6212 12.1458 22.5587 12.3 22.4754 12.45C21.4087 14.4167 19.9546 16 18.1129 17.2C16.2712 18.4 14.2337 19 12.0004 19ZM12.0004 17C13.8837 17 15.6129 16.5042 17.1879 15.5125C18.7629 14.5208 19.9671 13.1833 20.8004 11.5C19.9671 9.81667 18.7629 8.47917 17.1879 7.4875C15.6129 6.49583 13.8837 6 12.0004 6C10.1171 6 8.38789 6.49583 6.81289 7.4875C5.23789 8.47917 4.03372 9.81667 3.20039 11.5C4.03372 13.1833 5.23789 14.5208 6.81289 15.5125C8.38789 16.5042 10.1171 17 12.0004 17Z" fill="#101828"/>
</svg>
