<svg width="24" height="24" viewBox="0 0 24 24" fill="none" xmlns="http://www.w3.org/2000/svg">
<path d="M11.9996 7C10.5329 7 9.10378 7.22917 7.71211 7.6875C6.32044 8.14583 5.04128 8.825 3.87461 9.725C3.54128 9.99167 3.16211 10.1208 2.73711 10.1125C2.31211 10.1042 1.94961 9.95 1.64961 9.65C1.36628 9.36667 1.22461 9.01667 1.22461 8.6C1.22461 8.18333 1.39128 7.85 1.72461 7.6C3.19128 6.43333 4.80378 5.54167 6.56211 4.925C8.32044 4.30833 10.1329 4 11.9996 4C13.8829 4 15.6996 4.30833 17.4496 4.925C19.1996 5.54167 20.8079 6.43333 22.2746 7.6C22.6079 7.85 22.7746 8.18333 22.7746 8.6C22.7746 9.01667 22.6329 9.36667 22.3496 9.65C22.0496 9.95 21.6871 10.1042 21.2621 10.1125C20.8371 10.1208 20.4579 9.99167 20.1246 9.725C18.9579 8.825 17.6829 8.14583 16.2996 7.6875C14.9163 7.22917 13.4829 7 11.9996 7ZM11.9996 13C11.3163 13 10.6538 13.0875 10.0121 13.2625C9.37044 13.4375 8.75794 13.7 8.17461 14.05C7.80794 14.2833 7.41211 14.3917 6.98711 14.375C6.56211 14.3583 6.19961 14.2 5.89961 13.9C5.61628 13.6167 5.47878 13.2708 5.48711 12.8625C5.49544 12.4542 5.66628 12.1333 5.99961 11.9C6.88294 11.2833 7.83294 10.8125 8.84961 10.4875C9.86628 10.1625 10.9163 10 11.9996 10C13.0829 10 14.1329 10.1625 15.1496 10.4875C16.1663 10.8125 17.1163 11.2833 17.9996 11.9C18.3329 12.1333 18.5038 12.4542 18.5121 12.8625C18.5204 13.2708 18.3829 13.6167 18.0996 13.9C17.7996 14.2 17.4371 14.3583 17.0121 14.375C16.5871 14.3917 16.1913 14.2833 15.8246 14.05C15.2413 13.7 14.6288 13.4375 13.9871 13.2625C13.3454 13.0875 12.6829 13 11.9996 13ZM11.9996 20C11.4496 20 10.9788 19.8042 10.5871 19.4125C10.1954 19.0208 9.99961 18.55 9.99961 18C9.99961 17.45 10.1954 16.9792 10.5871 16.5875C10.9788 16.1958 11.4496 16 11.9996 16C12.5496 16 13.0204 16.1958 13.4121 16.5875C13.8038 16.9792 13.9996 17.45 13.9996 18C13.9996 18.55 13.8038 19.0208 13.4121 19.4125C13.0204 19.8042 12.5496 20 11.9996 20Z" fill="#101828"/>
</svg>
