<svg xmlns="http://www.w3.org/2000/svg" viewBox="0 0 900 240">
  <g fill="none" stroke-width="2">
    <path stroke="#3689b7" d="m146.3 210.7-.5-118.3" vector-effect="non-scaling-stroke"/>
    <path stroke="#b4b18b" d="M145.8 92.4V48.7q.3-.5 0-.9a.6.6 39.4 0 1-.1-.7q.7-1.3-.4-1.8" vector-effect="non-scaling-stroke"/>
    <path stroke="#827555" d="m145.8 92.4-48 .4" vector-effect="non-scaling-stroke"/>
    <path stroke="#f27238" d="m97.8 92.8-3.3-.1H22.7q-1 0-1.5-1" vector-effect="non-scaling-stroke"/>
    <path stroke="#754a64" d="M97.8 92.8q.4.3.5.8 6.3 14.5 11.8 29.6" vector-effect="non-scaling-stroke"/>
  </g>
  <path fill="#68c5ed" d="m146.3 210.7-.5-118.3V48.7q.3-.5 0-.9a.6.6 39.4 0 1-.1-.7q.7-1.3-.4-1.8l60.1-22.6a.3.3 0 0 1 .4.4l-59.5 187.6Z"/>
  <path fill="#ff9d29" d="M145.3 45.3q1.1.5.4 1.8a.6.6 39.4 0 0 0 .7q.4.4.2 1l-.2.4v43.2l-48 .4-3.2-.1H22.7q-1 0-1.5-1l124-46.4Z"/>
  <path fill="#044d80" d="M274.9 76a28.7 28.7 0 0 0-24.7 22q-5 18.4-.3 37.1c3 12 11.8 21 24.4 22.9q12.4 1.8 22.7-4.3 4.4-2.6 8-6 .4-.4.8.1 3.8 4.2 6.5 9.2c6 10.8-10.7 17.5-18.5 19.4q-15.7 3.7-31.6.2c-30.8-6.8-40.1-35.8-38.7-63.8 1.3-25.2 13.2-48.7 39.6-54.7 14.7-3.3 31-1.9 44 6.2 5.6 3.5 9.7 8.9 5.7 15.5q-2.3 3.8-6.4 7.7-.5.4-1 0A35.7 35.7 0 0 0 275 76Zm265.3 16.5h23.5q.5 0 .5.5v16.8q0 .5-.5.5h-23.2q-.5 0-.5.5v35q-.2 6.2 1.4 9.2 3 6.2 11.9 4.3 4.9-1 9.3-5.1.5-.4.8 0c3.2 4.2 7.6 11.4 3.5 15.9-6.5 6.9-16.9 8.6-26.4 8.2-6.5-.3-12.7-2-17.4-7a29 29 0 0 1-7-20.9q-.2-40 0-83 0-.6.4-.7c5.7-1.1 13.9-1.3 18.4 2.2q4.3 3.4 4.7 8.8.4 6.6 0 14.2 0 .6.6.6Zm-161.4 76.6q-.2-1-1-.3-8.8 8-20.9 8.9c-14.1 1-28-4.4-30.5-19.8-5-30.3 28.4-35.4 49.7-35.2q.7 0 .7-.6c0-6.7-.9-12.7-8.9-14.3q-11.2-2.2-21.7 2.6-4.7 2-9 4.4a1 1-32.2 0 1-1.2-.3q-2.9-4-4.4-9c-1-3.5.5-6 3.4-7.8a62.6 62.6 0 0 1 37.8-7.2c11.4 1 21.6 5.8 25 17.5q1.7 6 1.6 11.5 0 13.9.4 40 .1 8.6 3.5 15.4.3.5-.3.7-7.4 2.7-15 1.7c-4.4-.6-8.5-3.6-9.3-8.2Zm-9.7-8.6c3.3-1.2 8.2-4.3 8.2-8.3v-16.6q0-.7-.7-.7-6.4.2-14.2 1.5c-6 1-12.5 5-13.7 11.4-.9 4.9 1 11.8 6.4 13.4q6.8 2 14-.7Zm75.5 10.1q-.4-.4-.4.1v41.8q0 .5-.4.5h-23a.5.5 0 0 1-.6-.5V93.3q0-.5.5-.5c7.4-1.3 19.8-1.7 22.3 7.2a.3.3 0 0 0 .5.1q8.1-8 17.9-9.4 8.2-1.1 15.4 1c22.2 6.4 24.3 33.3 22 52.3-1.8 15.2-9.6 29.2-25 33.2-10 2.5-21.7.7-29.2-6.6Zm15.6-11.4c14-1.7 15.2-20.5 14.4-31-1-14.2-8-22.7-23.6-19.3a8.7 8.7 0 0 0-6.8 9q.2 19.3 0 35.8 0 .7.5 1 7 5.5 15.5 4.5ZM854 122c0-5.3 0-10.2-5-12.9q-3.1-1.6-7.6-1.9a46.1 46.1 0 0 0-26.6 7.5q-.8.5-1.4-.3-2.8-3.7-4.3-8.5-1.5-4.7 2.6-7.7 3.7-2.8 8.6-4.4 17.4-5.7 34.6-2.6c19.6 3.5 22.2 18 22.1 35l.1 32.4q.1 9.1 3.7 16.5a.4.4-22.9 0 1-.3.5c-8.2 3-22 4.3-24.5-6.8q-.2-.6-.6-.2a35.6 35.6 0 0 1-30.5 8.7c-15-2-22.6-13.3-21.4-28 1.2-15 15.2-22.4 29-24.8q11.1-2 20.8-1.7.7 0 .7-.7Zm.2 13c-10.3.2-29 1.4-28.3 16 .3 6 3.6 10.5 10 11 6.6.5 19-2.2 18.9-10.9v-15.5a.6.6 0 0 0-.6-.7Zm-252.1 3.9c.7 9.3 5.7 19 15.6 21q16.1 3.4 28.5-8.1.3-.4.7 0 4.5 5.8 6 10.8c2.6 8-9.4 13-15 14.3q-18.3 4.5-35.2-1.5c-14.8-5.3-22.4-19.3-24-34.3q-1-9 .3-16.8a37.5 37.5 0 0 1 33.3-33.2 44 44 0 0 1 18.1 1c21.4 6 25.4 25.9 23.3 45.6q0 .6-.6.6h-50.4q-.6 0-.6.6Zm.5-13.6 29.9-.1a.3.3 0 0 0 .3-.3v-2.4a16.2 14.2 89.9 0 0-14.2-16.2h-2.2a16.2 14.2 89.9 0 0-14.1 16.2v2.5a.3.3 0 0 0 .3.3Zm92.8-25.1a.3.3 0 0 0 .6.1q8.4-10.7 21.7-9.8c6.6.5 12 3.8 10.3 11.5q-1.5 7-5.3 13.4a.5.5 0 0 1-.7.1q-6.3-5.5-14.3-4.5c-6.2.7-11 5.1-11 11.7v55.2a.3.3 0 0 1-.2.3h-23q-.5 0-.5-.4V93.3q0-.6.5-.6c8-1.4 19.2-1.3 22 7.5Zm68.4 0q8.4-10.9 22.2-9.6c3.8.3 9.2 2.4 9.9 6.7.8 5.6-2.6 12.5-5 17.6q-.5 1.1-1.5.4-7.8-6.3-16.7-3.7a11.3 11.3 0 0 0-8.3 11.5q.2 28.9 0 54.9a.3.3 0 0 1-.2.2H741a.3.3 0 0 1-.3-.2V93.3q0-.5.5-.6c7.1-1.4 19.4-1.4 21.8 7.4q.3.9.8.1Z"/>
  <path fill="#e54747" d="M21.2 91.7q.4 1 1.6 1h75q.4.4.5.9 6.3 14.5 11.8 29.6L19.8 92.8q-.6-.2-.1-.6.4-.4 1.5-.5Z"/>
  <path fill="#044d80" d="m145.8 92.4.5 118.3q0 1-.3 1.4-.3.6-.6 0l-35.3-89q-5.5-15-11.8-29.5-.1-.5-.5-.8l48-.4Z"/>
</svg>