<svg xmlns="http://www.w3.org/2000/svg" viewBox="0 0 500 281">
  <path fill="#e71c1c" d="M112.2 132q-.6-9.5-4-17.8c-6-14-18.6-18.5-32.9-18.5l-16.7.1c-6 0-11.5 2.8-13.7 8.8q-1.3 3.5-1.3 7.8v58c0 6.4 2.1 12.8 8.3 15.4q3.1 1.3 9.6 1.2c9.3 0 19.5 1 28.4-2 15.7-5.1 21.1-20.2 22.4-35.7q0-.3.3-.3h5.4q.2 0 .2.2v45.5q0 .5-.5.5-39.4.1-73 0a47 47 0 0 1-17.2-3.5q-16.6-7.2-16.7-28v-45.1c.2-22.8 16.5-31 36.6-31h70.4a.4.4 90 0 1 .4.4v44q0 .4-.3.4h-5.4a.3.3 0 0 1-.3-.4Zm32-21.4q-.8-.9-.8.3v41.8q.1 5.3 1.7 11.9 3.7 15.3 17.2 21 8.4 3.4 17.8 4.2.3 0 .3.2v5q0 .2-.2.2H135a.2.2 0 0 1-.2-.2V88.3q0-.7.6-.7H167q.7 0 1.1.6l64.7 79q.6.7.6-.3.3-18.6 0-37.3-.2-7-2.6-14.7c-4.7-15.1-18.5-20.6-33.4-21.7q-.2 0-.2-.2v-5.1q0-.3.3-.3h44.1q.6 0 .6.6v106.3q0 .7-.7.7h-27.4q-.7 0-1.2-.5l-68.7-84.1Zm147.2 76.6q17.8.2 33.6 0c14.2-.3 25.7-5.7 31.3-19.4q3.4-8.4 4-18.4 0-.4.5-.4h5.2a.4.4 0 0 1 .4.3V195a.4.4 0 0 1-.4.3H259.2a.2.2 0 0 1-.2-.2V88a.4.4 0 0 1 .4-.4H366a.3.3 0 0 1 .3.3v44.3a.2.2 0 0 1-.3.2h-5.4q-.3 0-.3-.4-.5-9.3-4-17.7c-5.6-13.5-17.5-18.4-31.3-18.6q-15.4-.3-33.7-.1-.6 0-.6.6v39.2a.3.3.9 0 0 .3.4l13.2-.1c11.5-.2 20-5 23.5-16.6q1.4-4.5 1.6-8.5 0-.6.6-.6h4.9q.7 0 .7.6V169q0 .4-.5.4h-5.3a.5.5 0 0 1-.5-.5q-.2-6.5-3-12.5c-6.4-14.3-21.3-13.3-35-13q-.5 0-.5.6v42.6q0 .6.6.6ZM417.2 95q0-.7-.7-.7c-21.6 2.6-28.9 17.8-31.2 37.4q0 .7-.8.7H380q-.6 0-.6-.6V88a.3.3-90 0 1 .4-.4h106.4q.6 0 .6.6v44q0 .2-.2.2h-5.4q-.3 0-.3-.3c-1.6-19.3-9.5-35.1-31-37.7a.8.8-86.5 0 0-1 .8l.1 75.3c0 6.6 1.4 13 8 16q5.8 2.7 13.3 2.8.2 0 .2.2v5.5q0 .2-.2.2h-74.1q-.6 0-.6-.5V190a.7.7 0 0 1 .7-.7q5.4-.1 11.2-2c8.4-2.8 9.7-10 9.7-17.9V95Z"/>
</svg>