<svg xmlns="http://www.w3.org/2000/svg" viewBox="0 0 310 318.6">
  <path fill="#ef492d" d="M160.6 316.6c-70-.2-131-44.5-151-110.5C-7 150.8 3.7 100.2 41.2 56c23-27.2 52.6-43.9 87.5-51a154.2 154.2 0 0 1 59.1-.5c2.2.4 2.2 1 1.4 2.8l-28.7 60.2a3 3 0 0 1-3.2 2 89.9 89.9 0 0 0-85.4 70.2 89.4 89.4 0 0 0 54.3 102.8 87.5 87.5 0 0 0 90-13.8c1.5-1 2-1.3 3 .5q15.8 27.6 31.9 55.1c.9 1.6.6 2.3-.8 3.3a156.4 156.4 0 0 1-69.7 27.4 188.7 188.7 0 0 1-20 1.5z"/>
  <path fill="#ef492d" d="M269.5 271c-.9-.5-1.1-1.4-1.6-2.2q-18-31-35.7-62.1a4.5 4.5 0 0 0-4.6-2.6h-74.3a3.5 3.5 0 0 1 1-2.4q18-31.5 36.2-62.9a3.7 3.7 0 0 1 3.7-2.1q36.5.1 73 0a3.6 3.6 0 0 1 3.6 2.1l36.5 63.3a3.3 3.3 0 0 1 .1 3.8l-36.7 63.6c-.3.6-.5 1.3-1.2 1.5zM218.3 48.5l-12.7-12.7c-1.3-1.2-.4-2.2.2-3.1a37.9 37.9 0 0 1 22-17.4 42.3 42.3 0 0 1 34 3.3c19 10.3 17.3 34 6.4 44.8a60.2 60.2 0 0 1-14 10c-5.2 2.8-10.5 5.4-15.7 8.4a18.8 18.8 0 0 0-9.1 10.7c-.6 2-.3 2.5 1.8 2.5H273c2.1 0 2.9.3 2.8 2.6-.2 5-.1 9.9 0 14.7 0 1.6-.4 2.1-2 2.1h-67.1c-1 0-2 0-2-1.5 0-15.5 2.8-29.9 15-41a80.1 80.1 0 0 1 19.2-12.6c3.8-1.8 7.7-3.6 11-6.3 3-2.4 5-5.3 5.2-9.2.3-6-4.5-10.6-11.8-11-10.5-.8-18 3.9-23.3 12.6l-1.7 3zM271.6 293v-5h-1.8v-1h4.8v1h-1.8v5zm3.8 0v-6h1.9l1 4.1 1-4.1h2v6h-1.1v-4.7L279 293h-1.2l-1.2-4.8v4.8z"/>
</svg>
