<svg xmlns="http://www.w3.org/2000/svg" fill="none" class="Appbar_logo__utkwH" viewBox="0 0 154 32">
  <g clip-path="url(#a)">
    <path fill="#009C9C" d="M38.6 14.4 28.2 4A.9.9 0 0 0 27 4l-2 2 8.3 8.4a.9.9 0 0 1 0 1.2l-8.6 8.6 2 2a.9.9 0 0 0 1.3 0l10.6-10.6a.9.9 0 0 0 0-1.2Z"/>
    <path fill="#40E3E3" d="m21 4.7-.8-.7a.9.9 0 0 0-1.3 0l-2 2 1.4 1.4 2.6 2.6 2.7-2.6-2.7-2.7Zm-.3 15.4L18 22.8l-1.3 1.4 2 2a.9.9 0 0 0 1.3 0l.7-.8 2.7-2.6-2.7-2.7Z"/>
    <path fill="#1ABAB8" d="M25.3 14.4a.9.9 0 0 1 0 1.2L20.7 20l2.6 2.7 7.3-7.2a.9.9 0 0 0 0-1.3l-7-7-2.7 2.7 4.4 4.4Z"/>
    <path fill="#87F0F0" d="m8.3 14.6 7.2-7.2L13 4.7 12 4a.9.9 0 0 0-1 0L.3 14.6a.9.9 0 0 0 0 1.2l10.3 10.4a.9.9 0 0 0 1.3 0l.7-.7 2.7-2.7-7-7a.9.9 0 0 1 0-1.2Z"/>
    <path fill="#40E3E3" d="m16.4 14.6 3.2-3.2-2.7-2.6-1.3-1.4-7.3 7.2a.9.9 0 0 0 0 1.3l7 7 1.3-1.4 2.7-2.7-3-3a.9.9 0 0 1 0-1.2"/>
    <path fill="#17CFCF" d="m16.4 15.8 3 3 3.1-3.2a.9.9 0 0 0 0-1.2l-3-3-3.1 3.2a.9.9 0 0 0 0 1.2Z"/>
    <path fill="#2A3037" d="M47 12.1c0-1.1.2-2.3.6-3.4a7.4 7.4 0 0 1 1.9-2.6 8.3 8.3 0 0 1 2.9-1.8 14.3 14.3 0 0 1 8.6.1 8.9 8.9 0 0 1 2.8 1.7 5.8 5.8 0 0 1 1.4 2c.3.6.5 1.2.5 1.8a.7.7 0 0 1-.2.6.9.9 0 0 1-.6.3h-2.6a.8.8 0 0 1-.5-.2 1.1 1.1 0 0 1-.3-.4 15.8 15.8 0 0 0-.3-.5 3.7 3.7 0 0 0-.9-.9 5.9 5.9 0 0 0-1.5-.8 6.6 6.6 0 0 0-2.4-.4A5.4 5.4 0 0 0 52.7 9a4.6 4.6 0 0 0-1.5 3.4 45.4 45.4 0 0 0 0 2.6v2.5c0 1.8.5 3 1.5 3.8a5.7 5.7 0 0 0 3.7 1.2 8.5 8.5 0 0 0 2.2-.3c.6-.1 1.1-.4 1.6-.8s1-1 1.1-1.5c.3-.7.5-1.5.4-2.2v-.3H58a.8.8 0 0 1-.6-.3.8.8 0 0 1-.2-.6v-2.2a.9.9 0 0 1 .8-.8h7.2a.9.9 0 0 1 .9.8v3.5a9.7 9.7 0 0 1-.6 3.4 7.3 7.3 0 0 1-1.8 2.7 8.3 8.3 0 0 1-3 1.8 13 13 0 0 1-8.3 0 7.9 7.9 0 0 1-3-1.7 7.5 7.5 0 0 1-1.7-2.7 10.5 10.5 0 0 1-.7-3.4v-5.6m28.7 1a4 4 0 0 0-1.5.2c-.4.1-.8.4-1.1.7a3 3 0 0 0-.7 1 3.6 3.6 0 0 0-.3.9h7.1a5 5 0 0 0-.2-1 2.5 2.5 0 0 0-.6-1c-.3-.2-.6-.5-1-.6a4.3 4.3 0 0 0-1.7-.3ZM68 17.7c0-1.1.1-2.2.5-3.3a8 8 0 0 1 1.5-2.7 7.3 7.3 0 0 1 2.5-1.8 7.5 7.5 0 0 1 3.1-.6 7.6 7.6 0 0 1 3.2.6 7.4 7.4 0 0 1 2.4 1.7 7.6 7.6 0 0 1 1.6 2.6c.4 1 .5 2 .5 3v1.4a.9.9 0 0 1-.8.9H72c0 .4.1.9.3 1.3l.8.9 1.2.5a5 5 0 0 0 1.3.2c.6 0 1.1 0 1.7-.2l1-.5.6-.4H82c.2 0 .4 0 .6.2a.7.7 0 0 1 .2.6 2.6 2.6 0 0 1-.5 1.1c-.3.6-.8 1-1.3 1.4a8.8 8.8 0 0 1-2.3 1.1 9.2 9.2 0 0 1-3 .5 8 8 0 0 1-3.2-.6 6.8 6.8 0 0 1-2.5-1.8 7.8 7.8 0 0 1-1.5-2.7 10.5 10.5 0 0 1-.5-3.4M90.8 20c0 .5.2 1.1.6 1.5.3.4 1 .6 1.9.6h1.9a.9.9 0 0 1 .8.9v2a.9.9 0 0 1-.8.9h-2.3c-2 0-3.5-.5-4.5-1.5-1-.9-1.6-2.4-1.6-4.3v-6.8h-2.1a.8.8 0 0 1-.6-.2.8.8 0 0 1-.2-.6v-2a.8.8 0 0 1 .2-.7.8.8 0 0 1 .6-.2h2v-5a.9.9 0 0 1 1-.9H90a.9.9 0 0 1 .8.9v5H95a.9.9 0 0 1 .8 1v2a.9.9 0 0 1-.8.8h-4v6.7Zm20.6-2.3-3.4-9-3.5 9h7ZM109.7 4a1 1 0 0 1 .8.3l.4.8 7.7 19.8v.2a.9.9 0 0 1-.8.9h-2.3a1.2 1.2 0 0 1-.9-.3 1.6 1.6 0 0 1-.3-.5l-1.4-3.5H103l-1.3 3.5a1.6 1.6 0 0 1-.4.5 1.2 1.2 0 0 1-.8.3h-2.3a.9.9 0 0 1-.8-.9.6.6 0 0 1 0-.2L105 5.1c0-.3.2-.6.4-.8a1 1 0 0 1 .8-.3h3.4ZM132 18.7a8.1 8.1 0 0 0 0-1.8c0-1.3-.5-2.3-1.2-2.9a4 4 0 0 0-2.6-.9 3.8 3.8 0 0 0-2.6 1 3.7 3.7 0 0 0-1.2 2.5 8.8 8.8 0 0 0 0 1.2V19a3.7 3.7 0 0 0 3.8 3.6 4 4 0 0 0 2.6-1c.7-.6 1.1-1.6 1.2-3v.1Zm-2.9 7.6a7.5 7.5 0 0 1-1.7-.2 7 7 0 0 1-1.4-.5 5.3 5.3 0 0 1-1-.6 5.5 5.5 0 0 1-.6-.6v6.7a.9.9 0 0 1-.8.8h-2.4a.9.9 0 0 1-.9-.8V10.5a.9.9 0 0 1 .9-.8h2.4a.9.9 0 0 1 .8.8v.7a5.3 5.3 0 0 1 1.7-1.2 7 7 0 0 1 1.3-.4 7.5 7.5 0 0 1 1.7-.2 6.5 6.5 0 0 1 2.9.6c.8.4 1.5 1 2.1 1.6a7.9 7.9 0 0 1 1.5 2.4c.3.9.5 1.8.5 2.7V19a8.6 8.6 0 0 1-.5 2.8 7.9 7.9 0 0 1-1.5 2.4 6.7 6.7 0 0 1-2.1 1.6 6.5 6.5 0 0 1-2.9.6Zm20.6-7.6a8.1 8.1 0 0 0 0-1.8c0-1.3-.5-2.3-1.2-2.9a3.9 3.9 0 0 0-2.6-.9 3.8 3.8 0 0 0-2.6 1 3.7 3.7 0 0 0-1.2 2.5 9.7 9.7 0 0 0 0 1.2V19c0 1 .5 1.9 1.2 2.6a3.7 3.7 0 0 0 2.6 1 3.9 3.9 0 0 0 2.6-1c.7-.6 1.1-1.6 1.2-3v.1Zm-2.9 7.6a7.5 7.5 0 0 1-1.7-.2 7.1 7.1 0 0 1-1.4-.5 5.2 5.2 0 0 1-1-.6 5.7 5.7 0 0 1-.6-.6v6.7a.8.8 0 0 1-.3.6.8.8 0 0 1-.5.2h-2.4a.9.9 0 0 1-.9-.8V10.5a.9.9 0 0 1 .9-.8h2.4a.9.9 0 0 1 .8.8v.7a5.7 5.7 0 0 1 1.6-1.2 7.1 7.1 0 0 1 1.4-.4 7.5 7.5 0 0 1 1.7-.2 6.5 6.5 0 0 1 2.9.6 6.8 6.8 0 0 1 2.1 1.6 7.8 7.8 0 0 1 1.4 2.4c.4.9.6 1.8.6 2.7V19a8.6 8.6 0 0 1-.6 2.8 7.8 7.8 0 0 1-1.4 2.4 6.8 6.8 0 0 1-2.1 1.6 6.5 6.5 0 0 1-2.9.6"/>
  </g>
  <defs>
    <clipPath id="a">
      <path fill="#fff" d="M0 0h154v32H0z"/>
    </clipPath>
  </defs>
</svg>