<svg xmlns="http://www.w3.org/2000/svg" viewBox="0 0 907 215">
  <path fill="#EE2E25" d="M0 0h907v215H0V0Z" />
  <path fill="#FEFBFB"
    d="M764 27h38c2.25 9 2.25 9 2.974 13.465l.497 3.035.517 3.223.556 3.412c.593 3.642 1.18 7.285 1.769 10.928l1.223 7.525c1.688 10.385 3.365 20.772 5.027 31.162l1.25 7.813.574 3.59c1.715 10.644 3.623 21.25 5.613 31.847l.332-2.902.48-4.036.458-3.902c.563-4.288 1.322-8.535 2.093-12.789 1.754-9.73 3.168-19.503 4.57-29.289.756-5.27 1.521-10.54 2.286-15.809l.458-3.165a5182.56 5182.56 0 0 1 3.878-26.348l.633-4.248c.285-1.929.576-3.857.867-5.785l.484-3.232C839 29 839 29 840 27h38v171h-26l-1-111-5 33-3.738 24.668c-.761 5.019-1.52 10.038-2.276 15.057A37291.268 37291.268 0 0 1 838 172.881l-.888 5.889-.506 3.362c-.83 5.296-1.726 10.58-2.607 15.868h-26c-3.726-18.969-6.979-38.014-10.228-57.07-.803-4.707-1.612-9.415-2.421-14.122-.63-3.666-1.256-7.332-1.881-10.998-.297-1.736-.595-3.473-.894-5.209-.417-2.423-.83-4.847-1.24-7.272l-.368-2.114C790.056 95.797 789.55 90.505 789 85l-1 113h-24V27ZM210 27h38c2.25 9 2.25 9 2.974 13.465l.497 3.035.517 3.223.556 3.412c.593 3.642 1.18 7.285 1.768 10.928l1.224 7.525c1.688 10.385 3.365 20.772 5.026 31.162a193280.511 193280.511 0 0 0 1.825 11.403c1.715 10.644 3.623 21.25 5.613 31.847l.332-2.902.48-4.036.458-3.902c.563-4.288 1.322-8.535 2.093-12.789 1.754-9.73 3.168-19.503 4.57-29.289.756-5.27 1.521-10.54 2.286-15.809l.458-3.165a5182.56 5182.56 0 0 1 3.878-26.348l.633-4.248c.285-1.929.576-3.857.867-5.785l.484-3.232C285 29 285 29 286 27h38v171h-26l-1-111-5 33-3.738 24.668c-.761 5.019-1.52 10.038-2.276 15.057A37291.268 37291.268 0 0 1 284 172.881l-.888 5.889-.506 3.362c-.83 5.296-1.726 10.58-2.607 15.868h-26c-3.726-18.969-6.979-38.014-10.228-57.07-.803-4.707-1.612-9.415-2.421-14.122-.63-3.666-1.256-7.332-1.881-10.998-.297-1.736-.595-3.473-.894-5.209-.417-2.423-.83-4.847-1.24-7.272l-.368-2.114C236.056 95.797 235.55 90.505 235 85l-1 113h-24V27Z" />
  <path fill="#FEFCFC"
    d="m708.125 24.688 2.568-.018c10.808.125 20.053 3.097 28.057 10.58 8.403 8.969 10.551 18.696 10.54 30.604l.02 3.245c.02 3.53.024 7.062.026 10.592l.02 7.403c.012 5.172.016 10.344.015 15.517 0 6.598.027 13.195.061 19.793.022 5.099.026 10.197.025 15.296.003 2.43.012 4.861.027 7.292.191 33.025.191 33.025-12.109 45.68-9.905 9.263-21.511 9.786-34.39 9.613-11.103-.414-19.771-5.49-27.38-13.367-7.033-8.403-7.905-18.57-7.896-29.1l-.02-3.315c-.019-3.6-.023-7.2-.025-10.8l-.02-7.547c-.012-5.269-.016-10.538-.015-15.806.002-6.063-.02-12.124-.051-18.186-.03-5.863-.037-11.726-.035-17.588a1400.1 1400.1 0 0 0-.027-7.44c-.02-3.479-.014-6.957-.002-10.436l-.034-3.061C667.58 52.302 670.866 42.1 679 34c8.896-7.54 17.754-9.24 29.125-9.313ZM364 27h40c3.42 19.486 6.687 38.935 9.35 58.536.852 6.222 1.744 12.374 3.203 18.485.796 3.523 1.258 7.093 1.76 10.666 1.274 8.793 2.71 17.553 4.187 26.313 3.185 18.96 5.935 37.948 8.5 57h-28l-2-12.688-.633-3.975-.492-3.161-.508-3.222C399 172 399 172 399 167h-33c-.573 6.086-.573 6.086-1.136 12.173-.623 6.41-1.702 12.436-2.864 18.827h-25c.607-6.674 1.229-13.211 2.25-19.813l.387-2.547c1.35-8.763 2.84-17.502 4.315-26.245 1.783-10.617 3.428-21.252 5.048-31.895a2460.976 2460.976 0 0 1 6.312-39.386c1.555-9.233 2.973-18.48 4.336-27.743.643-4.335 1.306-8.666 1.977-12.996l.374-2.464c.886-5.68.886-5.68 2.001-7.911ZM26 26c58.698 0 58.698 0 69.543 10.344 7.716 8.77 9.925 18.383 9.89 29.832l.016 3.17c.007 2.203.006 4.406-.003 6.609-.008 3.338.02 6.674.052 10.012.047 14.194-.056 27.203-10.498 38.033-12.062 11.63-25.316 10-42 10v64H26V26ZM501 29l3.25 1.75C512.979 37.892 518.16 46.788 520 58c.08 2.13.108 4.263.098 6.395l-.01 3.642-.025 3.775-.014 3.834c-.012 3.118-.03 6.236-.049 9.354h-26c-.313-12.625-.313-12.625-.388-16.573-.17-8.162-.17-8.162-3.612-15.427-4.343-2.961-7.802-3.557-13-3-3.326 1.215-5.368 2.246-7.648 4.964-1.987 4.46-1.77 8.591-1.74 13.422l-.016 3.166c-.013 3.45-.005 6.9.006 10.35a4115.667 4115.667 0 0 0 .007 22.288c.017 6.444.007 12.888-.01 19.332-.012 4.956-.008 9.912 0 14.868.002 2.376 0 4.751-.008 7.127-.008 3.323.004 6.645.02 9.967l-.018 2.971c.05 5.262.429 9.007 3.407 13.545 4.139 2.986 9.117 2.507 14 2 4.295-1.736 6.032-3.86 8-8 .46-3.005.488-5.984.512-9.02l.054-2.601c.054-2.73.088-5.46.122-8.191.033-1.857.067-3.713.103-5.569.085-4.54.152-9.079.209-13.619h-12v-24h38c.16 15.45.16 15.45.195 22.115.024 4.52.052 9.04.107 13.56.044 3.651.067 7.301.078 10.952.007 1.382.021 2.764.043 4.146.212 13.958-2.3 26.519-12.048 36.97-9.734 9.057-21.555 9.668-34.207 9.468-9.705-.353-18.132-3.996-24.922-11.027-5.625-6.98-9.361-15.882-9.38-24.894l-.013-2.859.002-3.115-.01-3.298c-.01-3.604-.012-7.207-.013-10.811l-.01-7.519c-.006-5.258-.008-10.516-.007-15.774 0-6.061-.01-12.122-.026-18.183-.015-5.845-.018-11.69-.018-17.536 0-2.48-.005-4.96-.013-7.439-.01-3.475-.007-6.95 0-10.425-.007-1.018-.012-2.036-.018-3.085.05-11.472 2.341-20.442 10.01-29.258C462.581 22.665 485.414 20.434 501 29Z" />
  <path fill="#FEFAFA"
    d="M632.953 27.875 635 29l3.25 1.75C647.029 37.933 652.223 46.736 654 58c.233 4.67.19 9.325.125 14l-.027 3.793c-.024 3.07-.06 6.138-.098 9.207h-26c-.313-12.625-.313-12.625-.388-16.573-.17-8.162-.17-8.162-3.612-15.427-4.343-2.961-7.802-3.557-13-3-3.326 1.215-5.368 2.246-7.648 4.964-1.987 4.46-1.77 8.591-1.74 13.422l-.016 3.166c-.013 3.45-.005 6.9.006 10.35a4115.667 4115.667 0 0 0 .007 22.288c.017 6.444.007 12.888-.01 19.332-.012 4.956-.008 9.912 0 14.868.002 2.376 0 4.751-.008 7.127-.008 3.323.004 6.645.02 9.967l-.018 2.971c.05 5.262.429 9.007 3.407 13.545 4.139 2.986 9.117 2.507 14 2 4.297-1.737 5.98-3.891 8-8 .502-3.576.502-3.576.512-7.488l.054-2.131c.054-2.231.088-4.462.121-6.694.034-1.518.068-3.037.104-4.556.087-3.71.147-7.42.209-11.131h26c.093 4.463.172 8.922.22 13.385.02 1.512.047 3.024.082 4.535.329 14.57-1.58 27.729-11.927 38.822-9.734 9.058-21.555 9.669-34.207 9.469-9.705-.353-18.132-3.996-24.922-11.027-7.948-9.86-10.56-21.978-10.505-34.357l-.01-2.99c-.01-3.242-.003-6.485.003-9.728l-.005-6.807c-.003-4.75 0-9.502.01-14.253.012-6.063.005-12.126-.007-18.19-.007-4.685-.005-9.371 0-14.057.002-2.234 0-4.468-.005-6.703-.057-35.245-.057-35.245 11.46-48.037 12.026-11.003 34.243-12.847 48.766-6.187ZM175.953 27.875 178 29l3.25 1.75C190.029 37.933 195.223 46.736 197 58c.233 4.67.19 9.325.125 14l-.027 3.793c-.024 3.07-.06 6.138-.098 9.207h-26c-.313-12.625-.313-12.625-.388-16.573-.17-8.162-.17-8.162-3.612-15.427-4.343-2.961-7.802-3.557-13-3-3.326 1.215-5.368 2.246-7.648 4.964-1.987 4.46-1.77 8.591-1.74 13.422l-.016 3.166c-.013 3.45-.005 6.9.006 10.35a4115.667 4115.667 0 0 0 .007 22.288c.017 6.444.007 12.888-.01 19.332-.012 4.956-.008 9.912 0 14.868.002 2.376 0 4.751-.008 7.127-.008 3.323.004 6.645.02 9.967l-.018 2.971c.05 5.262.429 9.007 3.407 13.545 4.139 2.986 9.117 2.507 14 2 4.297-1.737 5.98-3.891 8-8 .502-3.576.502-3.576.512-7.488l.054-2.131c.054-2.231.088-4.462.121-6.694.034-1.518.068-3.037.104-4.556.087-3.71.147-7.42.209-11.131h26c.093 4.463.172 8.922.22 13.385.02 1.512.047 3.024.082 4.535.329 14.57-1.58 27.729-11.927 38.822-9.734 9.058-21.555 9.669-34.207 9.469-9.705-.353-18.132-3.996-24.922-11.027-7.948-9.86-10.56-21.978-10.505-34.357l-.01-2.99c-.01-3.242-.003-6.485.003-9.728l-.005-6.807c-.003-4.75 0-9.502.01-14.253.012-6.063.005-12.126-.007-18.19-.007-4.685-.005-9.371 0-14.057.002-2.234 0-4.468-.005-6.703-.057-35.245-.057-35.245 11.46-48.037 12.026-11.003 34.243-12.847 48.766-6.187Z" />
  <path fill="#EE2D24"
    d="M713.895 49.691c4.551 2.29 6.168 4.477 8.105 9.309.437 3.47.42 6.914.404 10.408l.02 3.136c.02 3.413.015 6.825.01 10.237l.015 7.128c.01 4.977.007 9.953-.003 14.93-.011 6.375.009 12.75.038 19.126.018 4.905.018 9.81.012 14.716 0 2.35.006 4.701.019 7.052.014 3.287.004 6.572-.013 9.859l.029 2.938c-.064 5.816-.742 8.996-4.531 13.47-3.062 2.968-5.214 3.41-9.438 3.375-4.31-.138-7.301-.318-10.562-3.375-3.525-5.423-3.433-10.252-3.404-16.5l-.02-3.166c-.02-3.444-.015-6.889-.01-10.334l-.015-7.195a4011.53 4011.53 0 0 1 .003-15.07 3054.73 3054.73 0 0 0-.038-19.309c-.018-4.951-.018-9.903-.012-14.855 0-2.373-.006-4.746-.019-7.119-.014-3.318-.004-6.634.013-9.952l-.029-2.966c.061-5.673.652-9.083 4.531-13.534 4.757-3.172 9.367-4.326 14.895-2.309Z" />
  <path fill="#EE2E25"
    d="M53 51c16 0 16 0 22 3 3.806 4.317 3.452 8.998 3.434 14.465l.015 2.76c.007 1.922.006 3.845-.003 5.767-.008 2.932.02 5.863.052 8.795.002 1.872.001 3.744-.002 5.615l.034 2.643c-.062 5.442-.798 8.708-4.53 12.955-4 2-4 2-21 2V51Z" />
  <path fill="#EE3229"
    d="M382 60h1c3.414 21.672 6.82 43.345 9.938 65.063l.324 2.243c.3 2.076.596 4.152.89 6.23l.5 3.511C395 140 395 140 395 144h-25c0-4.675.097-8.516.779-13.033l.516-3.472.568-3.706.584-3.883c.408-2.712.82-5.424 1.233-8.135.523-3.423 1.04-6.846 1.554-10.27C377.317 87.636 379.436 73.785 382 60Z" />
  <path fill="#FEFDFC" d="M534 172h26v26h-26v-26Z" />
</svg>