<svg width="99" height="111" viewBox="0 0 99 111" fill="none" xmlns="http://www.w3.org/2000/svg">
  <path d="M98.6672 32.5494C98.6665 30.6878 98.2683 29.0428 97.4632 27.6311C96.6723 26.2428 95.4879 25.0792 93.8992 24.1592C80.7854 16.5977 67.6589 9.05936 54.5493 1.49017C51.0151 -0.55023 47.5883 -0.475845 44.0803 1.59384C38.8606 4.67217 12.7274 19.6444 4.94006 24.155C1.73301 26.0115 0.172453 28.8528 0.171682 32.5459C0.166672 47.7525 0.171682 62.9587 0.166672 78.1657C0.166672 79.9864 0.54862 81.5994 1.3183 82.99C2.10956 84.4203 3.31052 85.6158 4.93582 86.5566C12.7235 91.0672 38.8602 106.038 44.0787 109.117C47.5883 111.188 51.0151 111.262 54.5505 109.221C67.6605 101.651 80.7877 94.1135 93.9035 86.552C95.5288 85.6116 96.7297 84.4153 97.521 82.9861C98.2895 81.5955 98.6722 79.9826 98.6722 78.1615C98.6722 78.1615 98.6722 47.7564 98.6672 32.5494Z" fill="#A179DC"/>
  <path d="M49.5702 55.2075L1.3183 82.9899C2.10956 84.4202 3.31052 85.6157 4.93582 86.5565C12.7235 91.0671 38.8602 106.038 44.0787 109.117C47.5883 111.188 51.0151 111.262 54.5505 109.221C67.6605 101.651 80.7878 94.1134 93.9035 86.5519C95.5288 85.6115 96.7297 84.4152 97.521 82.986L49.5702 55.2075Z" fill="#280068"/>
  <path d="M98.6672 32.5494C98.6665 30.6878 98.2683 29.0429 97.4632 27.6311L49.5702 55.2077L97.521 82.9862C98.2895 81.5956 98.6715 79.9826 98.6722 78.1615C98.6722 78.1615 98.6722 47.7564 98.6672 32.5494Z" fill="#390091"/>
  <path d="M77.9793 44.8215V50.0145H83.1723V44.8215H85.7688V50.0145H90.9618V52.611H85.7688V57.804H90.9618V60.4005H85.7688V65.5935H83.1723V60.4005H77.9793V65.5935H75.3828V60.4005H70.1898V57.804H75.3828V52.611H70.1898V50.0145H75.3828V44.8215H77.9793ZM83.1723 52.611H77.9793V57.804H83.1723V52.611Z" fill="white"/>
  <path d="M49.676 18.7412C63.221 18.7412 75.0469 26.0974 81.3811 37.0316L81.3193 36.9263L65.3829 46.1024C62.243 40.7861 56.4869 37.1985 49.884 37.1246L49.676 37.1235C39.6068 37.1235 31.4435 45.2863 31.4435 55.3556C31.4435 58.6484 32.3214 61.7351 33.8481 64.4011C36.9908 69.8876 42.8988 73.5881 49.676 73.5881C56.4951 73.5881 62.4368 69.8406 65.5635 64.2954L65.4875 64.4285L81.4 73.6469C75.1353 84.4885 63.4715 91.822 50.0839 91.9682L49.676 91.9704C36.0883 91.9704 24.2288 84.5689 17.9106 73.5769C14.8261 68.2108 13.0612 61.9896 13.0612 55.3556C13.0612 35.1343 29.4539 18.7412 49.676 18.7412Z" fill="white"/>
</svg>
