<svg width="207" height="77" viewBox="0 0 207 77" fill="none" xmlns="http://www.w3.org/2000/svg">
  <path d="M16.3 23.3499C15.9 23.3499 15.8 23.1499 16 22.8499L18.1 20.1499C18.3 19.8499 18.8 19.6499 19.2 19.6499H54.9C55.3 19.6499 55.4 19.9499 55.2 20.2499L53.5 22.8499C53.3 23.1499 52.8 23.4499 52.5 23.4499L16.3 23.3499Z" fill="#00ACD7"/>
  <path d="M1.2 32.5499C0.800003 32.5499 0.700003 32.3499 0.900003 32.0499L3 29.3499C3.2 29.0499 3.7 28.8499 4.1 28.8499H49.7C50.1 28.8499 50.3 29.1499 50.2 29.4499L49.4 31.8499C49.3 32.2499 48.9 32.4499 48.5 32.4499L1.2 32.5499Z" fill="#00ACD7"/>
  <path d="M25.4 41.7498C25 41.7498 24.9 41.4498 25.1 41.1498L26.5 38.6498C26.7 38.3498 27.1 38.0498 27.5 38.0498H47.5C47.9 38.0498 48.1 38.3498 48.1 38.7498L47.9 41.1498C47.9 41.5498 47.5 41.8498 47.2 41.8498L25.4 41.7498Z" fill="#00ACD7"/>
  <path d="M129.2 21.5498C122.9 23.1498 118.6 24.3498 112.4 25.9498C110.9 26.3498 110.8 26.4498 109.5 24.9498C108 23.2498 106.9 22.1498 104.8 21.1498C98.5 18.0498 92.4 18.9498 86.7 22.6498C79.9 27.0498 76.4 33.5498 76.5 41.6498C76.6 49.6498 82.1 56.2498 90 57.3498C96.8 58.2498 102.5 55.8498 107 50.7498C107.9 49.6498 108.7 48.4498 109.7 47.0498C106.1 47.0498 101.6 47.0498 90.4 47.0498C88.3 47.0498 87.8 45.7498 88.5 44.0498C89.8 40.9498 92.2 35.7498 93.6 33.1498C93.9 32.5498 94.6 31.5498 96.1 31.5498C101.2 31.5498 120 31.5498 132.5 31.5498C132.3 34.2498 132.3 36.9498 131.9 39.6498C130.8 46.8498 128.1 53.4498 123.7 59.2498C116.5 68.7498 107.1 74.6498 95.2 76.2498C85.4 77.5498 76.3 75.6498 68.3 69.6498C60.9 64.0498 56.7 56.6498 55.6 47.4498C54.3 36.5498 57.5 26.7498 64.1 18.1498C71.2 8.8498 80.6 2.94981 92.1 0.849805C101.5 -0.850195 110.5 0.249805 118.6 5.7498C123.9 9.24981 127.7 14.0498 130.2 19.8498C130.8 20.7498 130.4 21.2498 129.2 21.5498Z" fill="#00ACD7"/>
  <path d="M162.3 76.8498C153.2 76.6498 144.9 74.0499 137.9 68.0499C132 62.9499 128.3 56.4498 127.1 48.7498C125.3 37.4498 128.4 27.4498 135.2 18.5498C142.5 8.94985 151.3 3.94985 163.2 1.84985C173.4 0.0498471 183 1.04985 191.7 6.94985C199.6 12.3498 204.5 19.6498 205.8 29.2498C207.5 42.7498 203.6 53.7498 194.3 63.1498C187.7 69.8498 179.6 74.0499 170.3 75.9499C167.6 76.4499 164.9 76.5498 162.3 76.8498ZM186.1 36.4498C186 35.1498 186 34.1498 185.8 33.1498C184 23.2498 174.9 17.6498 165.4 19.8498C156.1 21.9498 150.1 27.8498 147.9 37.2498C146.1 45.0498 149.9 52.9498 157.1 56.1498C162.6 58.5498 168.1 58.2498 173.4 55.5498C181.3 51.4498 185.6 45.0498 186.1 36.4498Z" fill="#00ACD7"/>
</svg>
