<svg width="61" height="111" viewBox="0 0 61 111" fill="none" xmlns="http://www.w3.org/2000/svg">
  <path fill-rule="evenodd" clip-rule="evenodd" d="M20.3909 58.8794C20.3909 58.8794 17.4831 60.5719 22.4627 61.143C28.4963 61.8318 31.5794 61.7326 38.2264 60.4762C38.2264 60.4762 39.9775 61.5716 42.4188 62.5204C27.5132 68.9065 8.68435 62.1503 20.3909 58.8794Z" fill="#0074BD"/>
  <path fill-rule="evenodd" clip-rule="evenodd" d="M18.5686 50.5444C18.5686 50.5444 15.3067 52.9595 20.29 53.4745C26.7358 54.1399 31.8241 54.1945 40.6342 52.499C40.6342 52.499 41.8499 53.7339 43.7643 54.4087C25.7454 59.6794 5.67598 54.8234 18.5686 50.5444Z" fill="#0074BD"/>
  <path fill-rule="evenodd" clip-rule="evenodd" d="M33.9225 36.4037C37.5972 40.6336 32.959 44.437 32.959 44.437C32.959 44.437 42.2841 39.6239 38.0024 33.5939C34.002 27.9731 30.935 25.181 47.539 15.5518C47.539 15.5518 21.4749 22.0598 33.9225 36.4037Z" fill="#EA2D2E"/>
  <path fill-rule="evenodd" clip-rule="evenodd" d="M53.6361 65.0453C53.6361 65.0453 55.7887 66.8198 51.2652 68.1921C42.6637 70.7975 15.4578 71.5833 7.90133 68.2964C5.18686 67.1141 10.2796 65.4753 11.882 65.1292C13.5528 64.7678 14.5067 64.8338 14.5067 64.8338C11.4857 62.7064 -5.0194 69.0119 6.12397 70.8202C36.5124 75.7459 61.5174 68.6016 53.6361 65.0453Z" fill="#0074BD"/>
  <path fill-rule="evenodd" clip-rule="evenodd" d="M21.7904 41.9072C21.7904 41.9072 7.95357 45.1947 16.8906 46.3895C20.6653 46.8946 28.1855 46.7784 35.1956 46.1902C40.923 45.7096 46.6708 44.6815 46.6708 44.6815C46.6708 44.6815 44.6528 45.5472 43.1917 46.5443C29.1378 50.2406 1.99342 48.5192 9.80908 44.7401C16.4158 41.5439 21.7904 41.9072 21.7904 41.9072Z" fill="#0074BD"/>
  <path fill-rule="evenodd" clip-rule="evenodd" d="M46.6135 55.7813C60.8988 48.36 54.2931 41.2275 49.6827 42.1882C48.5553 42.4235 48.0495 42.6273 48.0495 42.6273C48.0495 42.6273 48.4696 41.9692 49.2694 41.6861C58.3903 38.481 65.4033 51.1424 46.3281 56.1569C46.3281 56.1569 46.5474 55.9581 46.6135 55.7813Z" fill="#0074BD"/>
  <path fill-rule="evenodd" clip-rule="evenodd" d="M38.0026 0C38.0026 0 45.9122 7.9142 30.4982 20.0806C18.1371 29.8439 27.6798 35.4086 30.4938 41.7697C23.2777 35.2597 17.9848 29.5281 21.535 24.1945C26.7484 16.3663 41.1932 12.5697 38.0026 0Z" fill="#EA2D2E"/>
  <path fill-rule="evenodd" clip-rule="evenodd" d="M23.1948 75.8976C36.904 76.7741 57.9617 75.4098 58.4601 68.9224C58.4601 68.9224 57.5021 71.3817 47.1293 73.333C35.4271 75.5362 20.9905 75.2797 12.4314 73.8664C12.4314 73.8664 14.1849 75.3177 23.1948 75.8976Z" fill="#0074BD"/>
  <path fill-rule="evenodd" clip-rule="evenodd" d="M57.8271 87.532H57.4096V87.2987H58.534V87.532H58.1182V88.6988H57.827V87.532H57.8271ZM60.0722 87.5911H60.0668L59.6523 88.6987H59.4617L59.0497 87.5911H59.0455V88.6987H58.7696V87.2986H59.1742L59.5555 88.2898L59.938 87.2986H60.3402V88.6987H60.0724L60.0722 87.5911Z" fill="#EA2D2E"/>
  <path fill-rule="evenodd" clip-rule="evenodd" d="M20.9484 100.686C19.6556 101.806 18.2885 102.436 17.0614 102.436C15.3135 102.436 14.3654 101.386 14.3654 99.7053C14.3654 97.8859 15.3805 96.5541 19.4456 96.5541H20.9484V100.686ZM24.5171 104.711V92.2487C24.5171 89.063 22.7003 86.9609 18.3222 86.9609C15.7675 86.9609 13.5277 87.5925 11.7069 88.3967L12.2308 90.6041C13.6649 90.0774 15.5194 89.5883 17.3403 89.5883C19.8629 89.5883 20.9484 90.6041 20.9484 92.705V94.2808H19.6877C13.56 94.2808 10.7953 96.6572 10.7953 100.232C10.7953 103.312 12.6175 105.063 16.0476 105.063C18.2519 105.063 19.8995 104.153 21.4373 102.82L21.7174 104.711H24.5171Z" fill="#EA2D2E"/>
  <path fill-rule="evenodd" clip-rule="evenodd" d="M36.4267 104.711H31.9764L26.6194 87.2791H30.5061L33.8313 97.9908L34.5708 101.209C36.2491 96.5541 37.4394 91.8278 38.0346 87.2791H41.8148C40.804 93.0189 38.9801 99.32 36.4267 104.711Z" fill="#EA2D2E"/>
  <path fill-rule="evenodd" clip-rule="evenodd" d="M53.5036 100.686C52.2065 101.806 50.8391 102.436 49.6154 102.436C47.8668 102.436 46.9187 101.386 46.9187 99.7053C46.9187 97.8859 47.9358 96.5541 51.9974 96.5541H53.5034V100.686H53.5036ZM57.0735 104.711V92.2487C57.0735 89.063 55.2515 86.9609 50.8773 86.9609C48.3193 86.9609 46.08 87.5925 44.2592 88.3967L44.784 90.6041C46.2188 90.0774 48.0758 89.5883 49.8965 89.5883C52.4161 89.5883 53.5034 90.6041 53.5034 92.705V94.2808H52.2428C46.1137 94.2808 43.3499 96.6572 43.3499 100.232C43.3499 103.312 45.1695 105.063 48.5994 105.063C50.8056 105.063 52.4499 104.153 53.992 102.82L54.2739 104.711H57.0735Z" fill="#EA2D2E"/>
  <path fill-rule="evenodd" clip-rule="evenodd" d="M6.88172 107.674C5.86495 109.159 4.22063 110.336 2.42204 111L0.660004 108.924C2.03012 108.221 3.2037 107.086 3.74972 106.03C4.22063 105.089 4.41668 103.879 4.41668 100.983V81.0784H8.2094V100.708C8.2094 104.582 7.90017 106.148 6.88172 107.674Z" fill="#EA2D2E"/>
</svg>
