<svg width="191" height="100" viewBox="0 0 191 100" fill="none" xmlns="http://www.w3.org/2000/svg">
  <path d="M95.5 99.9169C148.187 99.9169 190.899 77.6617 190.899 50.2085C190.899 22.7552 148.187 0.5 95.5 0.5C42.8127 0.5 0.101196 22.7552 0.101196 50.2085C0.101196 77.6617 42.8127 99.9169 95.5 99.9169Z" fill="#8993BE"/>
  <path fill-rule="evenodd" clip-rule="evenodd" d="M26.8911 79.6411L37.3462 26.662H61.5216C71.976 27.3163 77.2035 32.5483 77.2035 41.7059C77.2035 57.4032 64.789 66.5601 53.6803 65.9058H41.9201L39.3064 79.6411H26.8911ZM44.5332 56.0954L47.8006 36.4732H56.2948C60.8687 36.4732 64.1354 38.4352 64.1354 42.3594C63.4825 53.4791 58.255 55.4412 52.3745 56.0954H44.5332ZM74.7746 65.9058L85.229 12.9275H97.6442L95.0304 26.662H106.791C117.246 27.3163 121.167 32.5483 119.86 39.0895L115.286 65.9058H102.218L106.792 41.7059C107.445 38.4352 107.445 36.4732 102.872 36.4732H93.0703L87.1898 65.9058H74.7746ZM114.449 79.6411L124.904 26.662H149.08C159.535 27.3163 164.762 32.5483 164.762 41.7059C164.762 57.4032 152.347 66.5601 141.239 65.9058H129.478L126.864 79.6411H114.449ZM132.091 56.0954L135.358 36.4732H143.853C148.427 36.4732 151.694 38.4352 151.694 42.3594C151.041 53.4791 145.813 55.4412 139.933 56.0954H132.091H132.091Z" fill="#232531"/>
</svg>
