<svg width="93" height="111" viewBox="0 0 93 111" fill="none" xmlns="http://www.w3.org/2000/svg">
  <path d="M46.0221 0.000755848C42.2534 0.0182675 38.6543 0.33969 35.4874 0.900061C26.1583 2.54821 24.4645 5.99792 24.4645 12.3598V20.7619H46.5103V23.5626H24.4645H16.1909C9.78376 23.5626 4.17349 27.4136 2.41867 34.7396C0.39451 43.137 0.304727 48.377 2.41867 57.1452C3.98577 63.6719 7.72821 68.3223 14.1353 68.3223H21.7152V58.2501C21.7152 50.9735 28.0111 44.5549 35.4874 44.5549H57.5076C63.6372 44.5549 68.5305 39.508 68.5305 33.3521V12.3598C68.5305 6.38524 63.4903 1.89719 57.5076 0.900061C53.7204 0.269643 49.7909 -0.0167561 46.0221 0.000755848ZM34.0999 6.75839C36.3771 6.75839 38.2367 8.64839 38.2367 10.9723C38.2367 13.2879 36.3771 15.1605 34.0999 15.1605C31.8146 15.1605 29.9631 13.2879 29.9631 10.9723C29.9631 8.64839 31.8146 6.75839 34.0999 6.75839Z" fill="url(#paint0_linear_91_2213)"/>
  <path d="M71.2798 23.5625V33.3521C71.2798 40.9418 64.8451 47.3299 57.5075 47.3299H35.4874C29.4557 47.3299 24.4645 52.4922 24.4645 58.5326V79.525C24.4645 85.4995 29.6598 89.0137 35.4874 90.7278C42.4659 92.7797 49.1579 93.1506 57.5075 90.7278C63.0577 89.1208 68.5305 85.8869 68.5304 79.525V71.1229H46.5103V68.3222H68.5304H79.5534C85.9605 68.3222 88.3481 63.8531 90.5763 57.1451C92.878 50.2394 92.78 43.5984 90.5763 34.7396C88.9929 28.3612 85.9687 23.5625 79.5534 23.5625H71.2798ZM58.895 76.7243C61.1804 76.7243 63.0318 78.5969 63.0318 80.9125C63.0318 83.2364 61.1804 85.1264 58.895 85.1264C56.6178 85.1264 54.7582 83.2364 54.7582 80.9125C54.7582 78.5969 56.6178 76.7243 58.895 76.7243Z" fill="url(#paint1_linear_91_2213)"/>
  <path opacity="0.44382" d="M46.7605 110.727C63.0768 110.727 76.3037 108.162 76.3037 104.998C76.3037 101.835 63.0768 99.2698 46.7605 99.2698C30.4442 99.2698 17.2172 101.835 17.2172 104.998C17.2172 108.162 30.4442 110.727 46.7605 110.727Z" fill="url(#paint2_radial_91_2213)"/>
  <defs>
    <linearGradient id="paint0_linear_91_2213" x1="0.866699" y1="-2.38577e-07" x2="51.702" y2="43.3187" gradientUnits="userSpaceOnUse">
      <stop stop-color="#5A9FD4"/>
      <stop offset="1" stop-color="#306998"/>
    </linearGradient>
    <linearGradient id="paint1_linear_91_2213" x1="58.3652" y1="80.2061" x2="40.1275" y2="54.6496" gradientUnits="userSpaceOnUse">
      <stop stop-color="#FFD43B"/>
      <stop offset="1" stop-color="#FFE873"/>
    </linearGradient>
    <radialGradient id="paint2_radial_91_2213" cx="0" cy="0" r="1" gradientUnits="userSpaceOnUse" gradientTransform="translate(46.7605 104.998) rotate(-90) scale(5.72869 25.18)">
      <stop stop-color="#B8B8B8" stop-opacity="0.498039"/>
      <stop offset="1" stop-color="#7F7F7F" stop-opacity="0"/>
    </radialGradient>
  </defs>
</svg>
