<svg width="112" height="111" viewBox="0 0 112 111" fill="none" xmlns="http://www.w3.org/2000/svg">
  <g clip-path="url(#clip0_91_2175)">
    <path d="M68.5294 0C68.5294 0.195882 68.5294 0.391765 68.5294 0.598529C68.5294 7.62853 62.8307 13.3254 55.8025 13.3254C48.7725 13.3254 43.0756 7.62672 43.0756 0.598529C43.0756 0.391765 43.0756 0.195882 43.0756 0L0.333344 0V111H111.333V0H68.5294Z" fill="#654FF0"/>
    <path d="M26.1173 59.8184H33.4737L38.4959 86.5654H38.5866L44.6227 59.8184H51.504L56.956 86.8937H57.063L62.7872 59.8184H70.0022L60.627 99.12H53.3268L47.9201 72.373H47.7786L41.991 99.12H34.5547L26.1173 59.8184ZM78.2963 59.8184H89.8933L101.41 99.12H93.8218L91.3171 90.3742H78.1059L76.1725 99.12H68.7815L78.2963 59.8184ZM82.7109 69.5055L79.5025 83.9246H89.4888L85.8052 69.5055H82.7109Z" fill="white"/>
  </g>
  <defs>
    <clipPath id="clip0_91_2175">
      <rect width="111" height="111" fill="white" transform="translate(0.333344)"/>
    </clipPath>
  </defs>
</svg>
