<svg width="600" height="600" fill="none" xmlns="http://www.w3.org/2000/svg"><path d="M169.086 251.309c0 7.383.798 13.37 2.195 17.76 1.596 4.39 3.592 9.179 6.386 14.368.997 1.596 1.397 3.193 1.397 4.589 0 1.996-1.198 3.992-3.792 5.987l-12.572 8.381c-1.796 1.198-3.592 1.796-5.188 1.796-1.996 0-3.991-.997-5.987-2.793a61.826 61.826 0 0 1-7.184-9.379c-1.995-3.393-3.991-7.184-6.186-11.774-15.565 18.359-35.121 27.538-58.669 27.538-16.762 0-30.132-4.789-39.91-14.368-9.779-9.578-14.767-22.35-14.767-38.314 0-16.962 5.986-30.731 18.159-41.108 12.173-10.377 28.337-15.565 48.89-15.565 6.785 0 13.77.598 21.153 1.596 7.384.998 14.967 2.594 22.949 4.39v-14.567c0-15.166-3.193-25.742-9.379-31.929-6.386-6.186-17.162-9.179-32.527-9.179-6.985 0-14.169.798-21.552 2.594-7.384 1.796-14.567 3.991-21.552 6.785-3.193 1.397-5.587 2.195-6.984 2.594-1.397.399-2.395.599-3.193.599-2.794 0-4.19-1.996-4.19-6.186v-9.778c0-3.193.398-5.588 1.396-6.985.998-1.397 2.794-2.794 5.588-4.19 6.984-3.592 15.365-6.586 25.143-8.98 9.779-2.595 20.155-3.792 31.13-3.792 23.748 0 41.109 5.388 52.284 16.164 10.975 10.776 16.563 27.139 16.563 49.09v64.656h.399Zm-81.019 30.332c6.585 0 13.37-1.198 20.554-3.592 7.184-2.395 13.57-6.785 18.958-12.772 3.193-3.791 5.587-7.982 6.785-12.771 1.197-4.789 1.995-10.576 1.995-17.361v-8.382c-5.787-1.396-11.973-2.594-18.359-3.392-6.386-.798-12.572-1.197-18.758-1.197-13.37 0-23.148 2.594-29.733 7.982-6.586 5.388-9.779 12.971-9.779 22.949 0 9.379 2.395 16.363 7.384 21.152 4.79 4.989 11.774 7.384 20.953 7.384Zm160.242 21.552c-3.592 0-5.987-.599-7.583-1.996-1.597-1.197-2.994-3.991-4.191-7.783L189.64 139.159c-1.197-3.991-1.796-6.585-1.796-7.982 0-3.193 1.596-4.989 4.789-4.989h19.556c3.792 0 6.386.599 7.783 1.996 1.597 1.197 2.794 3.991 3.991 7.783l33.525 132.104 31.131-132.104c.997-3.992 2.195-6.586 3.791-7.783 1.597-1.197 4.39-1.996 7.982-1.996h15.965c3.791 0 6.385.599 7.982 1.996 1.596 1.197 2.993 3.991 3.791 7.783l31.53 133.7 34.522-133.7c1.198-3.992 2.595-6.586 3.992-7.783 1.596-1.197 4.19-1.996 7.782-1.996h18.559c3.192 0 4.988 1.597 4.988 4.989 0 .998-.199 1.996-.399 3.193-.199 1.197-.598 2.794-1.397 4.989l-48.092 154.255c-1.197 3.991-2.594 6.585-4.191 7.783-1.596 1.197-4.19 1.995-7.583 1.995H350.68c-3.792 0-6.386-.599-7.982-1.995-1.597-1.397-2.994-3.992-3.792-7.983l-30.931-128.712-30.731 128.513c-.998 3.991-2.195 6.585-3.792 7.982-1.596 1.397-4.39 1.996-7.982 1.996h-17.161Zm256.426 5.387c-10.377 0-20.753-1.197-30.731-3.591-9.978-2.395-17.76-4.989-22.949-7.983-3.193-1.796-5.388-3.791-6.186-5.587a14.091 14.091 0 0 1-1.197-5.588v-10.177c0-4.191 1.596-6.186 4.59-6.186 1.197 0 2.394.2 3.591.599 1.198.399 2.994 1.197 4.989 1.995a108.617 108.617 0 0 0 21.951 6.985c7.982 1.596 15.765 2.394 23.747 2.394 12.572 0 22.35-2.195 29.135-6.585 6.785-4.39 10.377-10.776 10.377-18.958 0-5.587-1.796-10.177-5.388-13.968-3.592-3.792-10.377-7.184-20.155-10.377l-28.935-8.98c-14.568-4.59-25.344-11.375-31.929-20.355-6.585-8.78-9.978-18.558-9.978-28.935 0-8.381 1.796-15.765 5.388-22.15 3.592-6.386 8.381-11.974 14.368-16.364 5.987-4.59 12.772-7.982 20.754-10.377 7.982-2.394 16.363-3.392 25.143-3.392 4.391 0 8.98.2 13.371.798 4.589.599 8.78 1.397 12.971 2.195 3.991.998 7.782 1.996 11.374 3.193 3.592 1.197 6.386 2.395 8.381 3.592 2.794 1.597 4.79 3.193 5.987 4.989 1.197 1.596 1.796 3.791 1.796 6.585v9.379c0 4.191-1.596 6.386-4.59 6.386-1.596 0-4.19-.798-7.583-2.395-11.374-5.188-24.146-7.782-38.314-7.782-11.375 0-20.355 1.796-26.541 5.587-6.186 3.792-9.379 9.579-9.379 17.761 0 5.587 1.996 10.376 5.987 14.168 3.991 3.791 11.374 7.583 21.951 10.975l28.336 8.98c14.368 4.59 24.745 10.976 30.931 19.157 6.186 8.182 9.18 17.561 9.18 27.938 0 8.581-1.796 16.363-5.189 23.148-3.592 6.785-8.381 12.772-14.567 17.561-6.186 4.989-13.57 8.581-22.151 11.175-8.98 2.794-18.359 4.19-28.536 4.19Z" fill="#252F3E"/><path fill-rule="evenodd" clip-rule="evenodd" d="M542.451 405.564c-65.653 48.491-161.04 74.234-243.057 74.234-114.943 0-218.51-42.505-296.736-113.147-6.186-5.588-.599-13.171 6.785-8.781 84.61 49.09 188.977 78.824 296.936 78.824 72.837 0 152.858-15.166 226.493-46.296 10.976-4.989 20.355 7.183 9.579 15.166Z" fill="#F90"/><path fill-rule="evenodd" clip-rule="evenodd" d="M569.79 374.433c-8.382-10.776-55.476-5.188-76.828-2.594-6.386.798-7.384-4.789-1.597-8.98 37.516-26.341 99.178-18.758 106.362-9.978 7.184 8.98-1.995 70.642-37.117 100.176-5.388 4.59-10.576 2.195-8.181-3.791 7.982-19.756 25.742-64.257 17.361-74.833Z" fill="#F90"/></svg>