<svg width="582" height="415" fill="none" xmlns="http://www.w3.org/2000/svg"><path fill-rule="evenodd" clip-rule="evenodd" d="M362.911 166.879V81.183c0-1.934-.705-3.608-2.116-5.021-1.411-1.414-3.082-2.12-5.014-2.12H227.443c-1.931 0-3.602.706-5.013 2.12-1.411 1.413-2.117 3.087-2.117 5.02v85.697c0 6.397 1.244 12.739 3.733 19.025 2.488 6.286 5.57 11.865 9.246 16.737 3.676 4.873 8.058 9.615 13.146 14.227 5.087 4.612 9.785 8.443 14.093 11.493a177.162 177.162 0 0 0 13.48 8.648c4.679 2.715 8.002 4.556 9.97 5.523 1.968.967 3.547 1.711 4.735 2.232a6.381 6.381 0 0 0 2.896.669c1.04 0 2.006-.223 2.897-.669 1.188-.521 2.767-1.265 4.735-2.232 1.968-.967 5.291-2.808 9.97-5.523a177.162 177.162 0 0 0 13.48-8.648c4.308-3.05 9.006-6.881 14.093-11.493 5.088-4.612 9.469-9.354 13.146-14.227 3.676-4.872 6.758-10.451 9.246-16.737 2.488-6.286 3.732-12.628 3.732-19.025Zm-21.389-71.413v71.413c0 13.092-8.727 26.482-26.18 40.17-6.982 5.504-14.891 10.6-23.73 15.287V95.466h49.91ZM118.126 293.197c-3.479-4.857-8.214-7.188-14.303-7.188-6.378 0-11.306 2.623-14.495 7.674h-.58c.387-4.663.58-8.062.58-10.199v-14.958c0-.972-.773-1.749-1.74-1.749H77.153c-.967 0-1.74.777-1.74 1.749v68.283c0 .971.773 1.748 1.74 1.748h7.73c.677 0 1.354-.389 1.643-1.068l1.837-4.566h.966c3.479 4.468 8.117 6.605 14.206 6.605 6.088 0 10.919-2.234 14.495-6.993 3.575-4.662 5.315-11.267 5.315-19.815 0-8.256-1.739-14.764-5.218-19.523Zm-26.382 7.382c1.643-2.137 4.252-3.205 7.634-3.205 2.899 0 5.315 1.262 7.055 3.788 1.642 2.525 2.512 6.313 2.512 11.364 0 4.954-.87 8.936-2.512 11.558-1.643 2.72-4.059 4.08-6.862 4.08-3.575 0-6.184-1.263-7.827-3.594-1.643-2.331-2.416-6.313-2.416-11.85v-1.554c0-4.856.87-8.45 2.416-10.587Z" fill="#175DDC"/><path d="M135.907 338.654h10.436c.967 0 1.836-.971 1.74-1.845v-47.983c0-.971-.773-1.748-1.74-1.748h-10.436c-.967 0-1.74.777-1.74 1.748v48.08c0 .971.773 1.748 1.74 1.748ZM191.859 327.096c-2.899.777-5.315 1.165-7.344 1.165-1.74 0-3.286-.486-4.252-1.554-1.063-.874-1.643-2.428-1.643-4.371v-24.671h13.142c.677 0 1.16-.486 1.16-1.166v-8.741c0-.292-.29-.583-.58-.583h-13.819v-9.81c0-.68-.483-1.166-1.159-1.166h-6.958c-.483 0-.87.291-1.063.777l-3.769 10.102-7.634 4.565a.334.334 0 0 1-.049.145.354.354 0 0 0-.048.146v4.565c0 .68.483 1.166 1.16 1.166h5.508v24.768c0 5.634 1.353 9.908 3.865 12.724 2.513 2.914 6.572 4.274 12.177 4.274 4.638 0 8.794-.68 12.079-2.04.387-.194.677-.582.677-1.068v-8.062c0-.777-.677-1.36-1.45-1.165ZM246.555 336.517c.58 1.263 1.643 2.137 2.996 2.137h.387c1.449 0 2.609-.874 2.995-2.234l12.176-45.166c.387-1.457-.676-2.817-2.126-2.817-.966 0-1.836.68-2.126 1.652l-7.247 27.099c-2.223 8.742-3.383 14.181-3.672 16.124h-.29c-.484-2.428-1.837-7.091-4.059-14.375l-9.084-28.557a2.818 2.818 0 0 0-2.706-1.943c-1.353 0-2.416.778-2.802 1.943l-9.76 28.751c-.87 2.428-2.223 7.188-3.963 14.375h-.289c-.58-3.497-1.837-8.742-3.673-15.929l-7.537-27.488c-.29-.972-1.16-1.652-2.126-1.652h-.29c-1.546 0-2.609 1.457-2.223 2.817l12.853 45.166c.386 1.36 1.546 2.234 2.899 2.234s2.512-.777 2.899-2.04l10.533-31.373 2.03-6.605.966-3.497h.29l.754 2.855c.795 3.016 1.431 5.429 1.952 7.15l10.243 31.373Z" fill="#175DDC"/><path fill-rule="evenodd" clip-rule="evenodd" d="M305.213 337.1c.097.874.87 1.554 1.74 1.554.966 0 1.836-.971 1.933-1.554v-31.567c0-5.925-1.353-10.491-4.059-13.307-2.803-2.914-6.861-4.371-12.37-4.371-4.831 0-9.567 1.068-14.398 3.011-1.063.388-1.547 1.651-1.063 2.719.483 1.069 1.739 1.554 2.802 1.069 4.252-2.04 8.311-3.011 12.37-3.011 4.252 0 7.247 1.165 9.277 3.594 2.029 2.428 2.995 5.925 2.995 10.781v3.303l-9.47.291c-7.828 0-13.626 1.651-17.781 4.371-4.059 2.817-6.185 7.673-5.798 12.724.193 3.788 1.546 6.799 3.962 9.033 2.706 2.526 6.474 3.788 11.403 3.788 3.575 0 6.764-.583 9.374-1.942 2.705-1.36 5.218-3.691 7.731-6.897h.483l.869 6.411Zm-5.701-6.313c-2.996 3.011-7.151 4.565-12.563 4.565-3.479 0-6.185-.875-8.311-2.331-1.836-1.749-2.802-4.274-2.802-7.382 0-3.886 1.546-6.897 4.542-8.742 3.092-1.846 8.021-3.011 15.075-3.303l8.697-.388v4.856c0 5.343-1.546 9.713-4.638 12.725Z" fill="#175DDC"/><path d="M348.7 287.758c-1.643-.195-3.093-.292-4.542-.292-3.286 0-6.088.777-8.311 2.331-2.319 1.457-4.542 4.08-6.571 7.771h-.29l-.387-7.188c0-1.068-.869-1.845-1.932-1.845a1.943 1.943 0 0 0-1.933 1.942v45.652c0 1.262.966 2.234 2.223 2.234 1.256 0 2.222-.972 2.222-2.234V310.68c0-5.439 1.353-10.101 4.059-13.695 2.706-3.594 6.185-5.439 10.437-5.439 1.449 0 2.899.194 4.348.388 1.16.194 2.32-.485 2.513-1.651a2.19 2.19 0 0 0-1.836-2.525Z" fill="#175DDC"/><path fill-rule="evenodd" clip-rule="evenodd" d="M387.548 289.409c-2.61-1.263-5.799-1.943-9.374-1.943-6.958 0-12.176 2.331-15.848 6.508-3.673 4.662-5.412 11.267-5.412 19.912 0 8.256 1.933 14.472 5.508 18.843 3.769 4.371 8.891 6.508 15.848 6.508 7.055 0 12.563-2.817 16.332-8.548h.387l.966 6.314c.097.874.773 1.457 1.546 1.457.87 0 1.546-.68 1.546-1.554v-67.895c0-1.262-.966-2.234-2.222-2.234-1.257 0-2.223.972-2.223 2.234v15.833c0 3.691.097 7.382.29 11.364h-.29c-2.029-3.205-4.349-5.537-7.054-6.799Zm-21.744 8.062c2.803-3.886 6.862-5.828 12.37-5.828 5.798 0 9.953 1.651 12.466 5.148 2.706 3.302 3.962 8.839 3.962 16.609v.777c0 7.576-1.256 13.016-3.962 16.318-2.609 3.303-6.668 4.954-12.37 4.954-11.016 0-16.524-7.091-16.524-21.272 0-7.382 1.353-12.918 4.058-16.706ZM419.051 332.729c4.155 4.565 9.76 6.799 17.008 6.799 2.899 0 5.508-.194 7.924-.874 2.03-.388 4.252-.971 6.571-1.942.774-.292 1.257-1.069 1.257-1.846 0-1.36-1.353-2.331-2.609-1.845-2.223.777-4.059 1.262-5.605 1.554-2.126.388-4.736.582-7.538.582-5.895 0-10.34-1.651-13.529-5.342s-4.735-8.936-4.832-15.832h35.949v-3.691c0-7.091-1.643-12.724-5.122-16.804-3.286-4.079-8.021-6.119-13.819-6.119-6.668 0-11.886 2.428-15.848 7.285-3.962 4.759-5.895 11.17-5.895 19.232s2.029 14.375 6.088 18.843Zm4.059-36.424c2.899-3.205 6.764-4.759 11.596-4.759 4.445 0 7.924 1.651 10.437 4.856 2.512 3.206 3.769 7.868 3.769 13.599h-30.924c.58-5.925 2.223-10.588 5.122-13.696Z" fill="#175DDC"/><path d="M502.448 336.42c0 1.263.966 2.234 2.223 2.234 1.159 0 2.222-1.068 2.319-2.428v-30.499c0-12.239-5.702-18.358-17.008-18.358-8.311 0-14.012 2.623-17.298 7.868h-.29l-.58-5.051c-.193-.971-.966-1.749-2.029-1.749-1.16 0-2.029.875-2.029 2.04v45.749c0 1.263.966 2.234 2.222 2.234 1.257 0 2.223-.971 2.223-2.234v-25.448c0-6.702 1.546-11.656 4.252-14.667 2.706-3.108 7.054-4.565 13.046-4.565 4.445 0 7.634 1.262 9.857 3.496 2.029 2.234 3.092 5.925 3.092 10.976v30.402ZM133.008 273.868c0-4.371 3.672-7.868 8.214-7.868 4.445 0 8.214 3.497 8.214 7.965v.68c0 4.274-3.769 7.867-8.214 7.867-4.446 0-8.214-3.593-8.214-7.867v-.777Z" fill="#175DDC"/></svg>