<svg width="600" height="600" fill="none" xmlns="http://www.w3.org/2000/svg"><path d="M81.081 446.322C36.122 445.244 0 408.378 0 363.092c0-45.969 37.215-83.231 83.108-83.231a82.864 82.864 0 0 1 30.168 5.654c13.049-27.358 40.921-46.254 73.21-46.254 2.012 0 3.991.071 5.955.214C201.8 190.778 244.589 154 295.946 154c39.955 0 74.715 22.259 92.594 55.064 9.533-4.084 20.033-6.344 31.055-6.344 43.66 0 79.054 35.446 79.054 79.171a83.331 83.331 0 0 1 18.243-2.03c45.893 0 83.108 37.262 83.108 83.231 0 45.286-36.122 82.152-81.081 83.23h-20.175c-9.803-29.491-36.978-53.573-72.546-65.317 12.21-12.458 19.748-29.531 19.748-48.364 0-38.118-30.849-69.02-68.919-69.02-38.07 0-68.919 30.902-68.919 69.02 0 18.833 7.538 35.906 19.748 48.364-11.83 3.901-22.757 9.159-32.417 15.534-6.619 4.369-12.653 9.262-17.974 14.607-8.425-7.034-18.116-12.862-28.695-17.184 9.169-10.388 14.744-24.035 14.744-38.991 0-32.511-26.32-58.87-58.784-58.87s-58.784 26.359-58.784 58.87c0 14.956 5.574 28.603 14.743 38.991-25.163 10.277-45.196 29.086-55.584 52.36H81.081Z" fill="#fff"/></svg>