<svg width="600" height="600" fill="none" xmlns="http://www.w3.org/2000/svg"><path d="M554.306 249h-80.082c1.214 1.237 2.429 2.518 3.533 3.865 8.967 10.866 13.693 24.515 13.693 39.533 0 23.19-9.761 44.105-25.442 58.196h49.03l23.3-57.909h-29.153l4.859-22.461h57.909l-30.412 80.37h11.926c27.761.177 46.534-22.881 46.534-50.885 0-28.005-17.889-50.709-45.717-50.709" fill="#E85E26"/><path fill-rule="evenodd" clip-rule="evenodd" d="M67.887 249c22.397 0 35.208 12.19 35.208 28.798 0 18.112-11.906 33.262-30.79 36.221l15.753 36.575H62.72l-14.77-34.897H33.085l-7.687 34.897H0L22.31 249h45.577Zm-30.169 45.431h24.674c9.714 0 15.417-6.471 15.417-14.248 0-2.334-.69-4.378-1.993-5.996-1.993-2.467-5.4-3.943-9.939-3.943h-22.81l-5.349 24.187ZM99.385 350.594 158.395 249h29.997l22.241 101.594h-25.338l-3.71-16.853h-46.992l-9.878 16.853h-25.33Zm69.303-75.488-21.776 37.455h30.014l-8.238-37.455ZM245.375 249h42.954c21.646.022 35.001 12.035 35.001 29.177 0 19.234-14.658 37.477-38.866 37.477H256.15l-7.73 34.94h-25.355L245.375 249Zm15.46 45.431h22.525c9.007 0 14.865-6.471 14.865-14.248 0-6.25-4.754-9.939-12.484-9.939h-19.609l-5.297 24.187Z" fill="#000"/><path d="M372.41 249h-25.398l-22.353 101.594h25.398L372.41 249Z" fill="#000"/><path fill-rule="evenodd" clip-rule="evenodd" d="M423.759 249c16.961 0 31.334 5.961 40.039 16.564 5.849 7.001 9.214 16.099 9.214 26.835 0 17.224-6.738 37.503-25.735 49.028-9.343 5.634-21.577 9.167-37.477 9.167h-40.97L391.2 249h32.559Zm-24.872 80.393h14.028c21.861 0 34.94-16.302 34.94-34.63 0-13.627-8.153-24.519-22.681-24.519h-13.251l-13.036 59.149Z" fill="#000"/></svg>