<svg width="600" height="600" fill="none" xmlns="http://www.w3.org/2000/svg"><g clip-path="url(#a)"><path d="M96.958 396.5H.195v-91.924H193.6c-2.521 51.193-44.824 91.924-96.641 91.924Z" fill="#7BCD54"/><path d="M96.957 202.977H.195V294.9H193.6c-2.521-51.192-44.824-91.923-96.641-91.923ZM503.356 202.977c-51.817 0-94.121 40.731-96.641 91.923h193.282c-2.52-51.192-44.823-91.923-96.641-91.923Z" fill="#63C43F"/><path d="M503.356 396.5c-51.817 0-94.121-40.731-96.641-91.924h193.282c-2.52 51.193-44.823 91.924-96.641 91.924Z" fill="#7BCD54"/><path d="M203.395 202.977v96.762c0 51.817 40.731 94.12 91.924 96.641V202.977h-91.924Z" fill="#63C43F"/><path d="M396.922 396.501h-91.926V202.977h91.926v193.524Z" fill="#7BCD54"/></g><defs><clipPath id="a"><path fill="#fff" transform="translate(0 203)" d="M0 0h600v193.5H0z"/></clipPath></defs></svg>