<?xml version="1.0" encoding="utf-8"?>
<!-- Generator: Adobe Illustrator 28.1.0, SVG Export Plug-In . SVG Version: 6.00 Build 0)  -->
<svg version="1.1" id="Logo" xmlns="http://www.w3.org/2000/svg" xmlns:xlink="http://www.w3.org/1999/xlink" x="0px" y="0px"
	 viewBox="0 0 540 540" style="enable-background:new 0 0 540 540;" xml:space="preserve">
<g>
	<g>
		<path d="M351.4,486.7v-14.3h22.8v-10h-22.1c-2.7,9.4-6.9,19.8-12.8,31.3v3.6h38.9v-10.5H351.4z"/>
		<path d="M378.1,437.7h-21.9c-0.1,3.3-0.4,6.8-1,10.5h23V437.7z"/>
		<g>
			<path d="M67.3,497.2v-59.5h12.1v24.5h21.8v-24.5h12.1v59.5h-12.1v-24.5H79.4v24.5H67.3z"/>
			<path d="M158.2,437.7h12.2v40c0,6.5-2,11.6-6.2,15.3c-4.1,3.7-9.7,5.5-16.7,5.5c-7.1,0-12.7-1.9-16.8-5.5
				c-4.2-3.7-6.2-8.8-6.2-15.3v-40h12.1v40.5c0,5.2,3.7,9.3,11,9.3c7.1,0,10.8-4.1,10.8-9.3V437.7z"/>
			<path d="M181.4,497.2v-59.5h11.1l22.8,37.1v-37.1h12.1v59.5h-11.1l-22.8-37.1v37.1H181.4z"/>
			<path d="M250.1,497.2v-49h-16.7v-10.5h45.5v10.5h-16.7v49H250.1z"/>
			<path d="M284.8,497.2v-59.5h25.8c12,0,18.4,6.9,18.4,18.5c0,8.2-3.7,14.2-9.8,17.2l11,19.8v4h-11.7l-12.4-22.4h-9.2v22.4H284.8z
				 M296.9,464.6h11.5c5.5,0,8.3-2.7,8.3-8.2c0-5.4-2.8-8.2-8.3-8.2h-11.5V464.6z"/>
			<path d="M389.6,493.1c-4.3-3.6-6.5-8.7-6.5-15.2h12.1c0,3.5,1.2,6,3.6,7.4c2.5,1.4,5.2,2.1,8.3,2.1c6.2,0,9.8-2.6,9.8-6.5
				c0-1.8-0.9-3.2-2.9-4.3c-1.1-0.7-1.6-0.9-3.4-1.6c-0.8-0.4-1.5-0.7-2.1-0.9c-1.1-0.4-4-1.4-5.4-2l-2.5-0.9
				c-4.7-1.8-7.2-3-10.7-5.6c-3.4-2.6-5.2-6.5-5.2-11.2c0-10.9,8.4-17.9,22-17.9c13.7,0,22.4,6.4,22.4,20.1h-12.1
				c0-6.4-4.4-9-10.5-9c-6,0-9.7,2.4-9.7,6.2c0,2,0.8,3.3,2.3,4.2c1,0.6,1.3,0.8,2.6,1.4c0.7,0.3,1.2,0.5,1.5,0.6l3.6,1.3l2.4,0.9
				c2.3,0.8,4,1.4,5.3,2l4.7,2c1.9,0.8,3.3,1.7,4.3,2.5c3.3,2.6,6.5,6.5,6.1,11.8c0,10.8-8.3,18.1-23.2,18.1
				C399.6,498.5,394,496.7,389.6,493.1z"/>
			<path d="M441.7,493.1c-4.3-3.6-6.5-8.7-6.5-15.2h12.1c0,3.5,1.2,6,3.6,7.4c2.5,1.4,5.2,2.1,8.3,2.1c6.2,0,9.8-2.6,9.8-6.5
				c0-1.8-0.9-3.2-2.9-4.3c-1.1-0.7-1.6-0.9-3.4-1.6c-0.8-0.4-1.5-0.7-2.1-0.9c-1.1-0.4-4-1.4-5.4-2l-2.5-0.9
				c-4.7-1.8-7.2-3-10.7-5.6c-3.4-2.6-5.2-6.5-5.2-11.2c0-10.9,8.4-17.9,22-17.9c13.7,0,22.4,6.4,22.4,20.1H469c0-6.4-4.4-9-10.5-9
				c-6,0-9.7,2.4-9.7,6.2c0,2,0.8,3.3,2.3,4.2c1,0.6,1.3,0.8,2.6,1.4c0.7,0.3,1.2,0.5,1.5,0.6l3.6,1.3l2.4,0.9c2.3,0.8,4,1.4,5.3,2
				l4.7,2c1.9,0.8,3.3,1.7,4.3,2.5c3.3,2.6,6.5,6.5,6.1,11.8c0,10.8-8.3,18.1-23.2,18.1C451.7,498.5,446.1,496.7,441.7,493.1z"/>
		</g>
	</g>
	<g>
		<path d="M111.4,251c12.1-8.8,29.3-15.3,29.3-15.3s-9.9-5.2-25.2-12.4C113.7,228.1,111.4,251,111.4,251z"/>
		<path d="M403.7,241.4c-4.4,0.4-12.5,0.8-22-0.3c-4.9-0.4-9.2-1.3-12.8-2.3c-16.5-4-24.7-12.3-24.7-12.3
			c33.2,8.4,48.1,8.5,52.9,8.2c0.6-0.1,1.3-0.1,1.9-0.2c-2-12.2-9.3-37-35-73.5c0,8-1.2,18.4-3.8,28.5
			c-14.4-35.4-25.9-43.5-37.7-53.3c4.6,14.2,4.8,28.6,1.8,42.6c-10.2-36.3-46.4-53.5-46.4-53.5s38,63,4.5,110.3
			c40.9-126.9-124-109.1-101.6-217.7c-47.2,75.5,2.9,120.3,23.6,134.6c-49.2-31.1-43.4-41.1-96.4-45.5c21.5,76.4,74.9,85,123.3,94.3
			c-58.1-2.6-86-32.1-131.8-10.5c34.8,58.6,120.4,47.1,140.1,41.2c-52.7,20.8-77-16.2-135.3,37C175.4,292,240.8,259,240.8,259
			c-25.9,18.7-76,16.4-90.7,57.6c31.8,3,69.9-17.7,95.2-39.5c-28,31.6-74,34.1-69.9,67.4c56.1-8.5,79-55.3,80.5-57.9
			c-23.1,47.2-49,40.2-46.5,73.5c28.4,0,57-30.6,68.8-55.6c-4.3-15.5-2.7-31.6,3.8-45.6c0.2,35.5,16.4,69.4,43.9,91.9
			c-18.5-4.6-34.8-17.1-43.7-35.6c0,0,0,0,0-0.1c0,0.2-0.1,0.4-0.2,0.6c-8.5,26.3-37.5,48.3-59.8,58c26,3.4,121.9,34.5,118.1,107.3
			c15.3-35.7,13.3-62.8,4.2-82.9c-9.1-20.2-8.4-43.6,1.9-63.3c1.4-2.6,2.9-5.2,4.7-7.7c-27.1-34.4-31-67.5-22.6-92
			c14.9,27,52.2,28.6,64.8,26.1c0,0-5.6,41.8,27.1,64.8C406.9,306.3,399.8,274.8,403.7,241.4z"/>
		<path d="M407.1,161.7c-42.3-55.8-113.3-77.1-176.8-58.9c7.7,4.7,20.6,12.8,29.4,18.3c3-0.3,6.1-0.6,9.2-0.7
			c-2-5-5.7-11.3-7.1-12.7c0,0,13.7,6.8,25.1,13c8.9,0.7,17.6,2.2,26.2,4.6c-1.1-4.2-2.5-8.6-4-11.6c7.6,5.8,13.8,11.5,18.8,16.5
			c10.9,4.3,21.4,10,31,17.1l-1-14.3c0,0,10.1,14.4,16.6,27.5c4.9,4.8,9.5,10,13.8,15.6c13.8,18.3,22.5,38.8,26.3,59.9c0,0,0,0,0,0
			c1.5,8.4,2.3,16.9,2.2,25.4c0,5.9,0.5,11.9,1.5,17.7c2.3,12.9,6,27,12,39.4C449.1,267.4,442.3,208.2,407.1,161.7z"/>
		<path d="M135.5,168.5c-1.9,2.9-3.7,5.9-5.5,9c5.1,0.3,11.4,0.8,17.9,1.3C143,174.8,138.3,170.9,135.5,168.5z"/>
		<path d="M273.5,402c-41.8-0.7-82.9-19.9-110.1-55.8c-13.9-18.4-22.6-39.1-26.4-60.4c-8.8-0.4-17.4-2.2-24.7-4.3
			c3.4,27.8,14,55.1,32.1,79c38.8,51.3,101.9,73.4,161.1,62.6C300.9,417.8,291.6,410.7,273.5,402z"/>
		<path d="M404.5,331.4c-13.3-9.1-21.5-25.8-23.3-39.8c3.7,0,7.1-0.9,9.4-3.2c0,0-3.8,1.8-8.5,1.5c3.2-0.3,6.8-1.8,7.6-6.6
			c-0.6,1.4-3,4.4-6.9,4.9c3.8-1.8,4.4-6.7,4.4-6.7c-1.9,3.8-4.4,5.1-6.4,5.6c-0.1-5.8,1-11,3.5-14.6c-15.2-2.3-33.7-2.2-49-13.8
			c-0.2,15.8,4.8,37.1,24.3,61.8l4.9,6.2l-4.5,6.5c-1.4,2.1-2.8,4.3-4,6.5c-8.7,16.6-9.4,36.8-1.6,54c5,11.1,7.7,23,8,35.6l0.2,0.1
			c0,0.1,0,0.3,0,0.4l0.7,0.1c0,0,16.2-6.2,15-17.6c-1.2-11-1.8-26.4,10.7-27.4c0.3,0,0.6-0.2,0.9-0.4c0,0,5.1-4.1-4.5-11.8
			c-2-0.5-3.3-1.1-3.3-1.1c3.7,0.6,7.1-0.6,10.9-2.4c4.3-2.4,8.2-5.9,4.7-9.8c0,0,0.1,0,0.1-0.1c-3-2.4-5.8-5.6-7.6-8.3
			c-0.6-0.9-0.7-2-0.2-2.9c0.5-0.9,1.4-1.6,2.4-1.7c4.1-0.4,9.1-3.3,12.7-13.1C405.4,332.7,405.2,331.9,404.5,331.4z"/>
	</g>
</g>
<g id="Text">
	<g id="Layer_2">
		<g id="Layer_4">
		</g>
	</g>
	<path d="M484.5,442.8v-4.1h2.1c0.2,0,0.3,0,0.5,0.1c0.2,0.1,0.4,0.2,0.5,0.4c0.1,0.2,0.2,0.4,0.2,0.7c0,0.3-0.1,0.6-0.2,0.8
		c-0.1,0.2-0.3,0.4-0.5,0.5c-0.2,0.1-0.4,0.2-0.6,0.2H485v-0.7h1.2c0.1,0,0.3-0.1,0.4-0.2c0.1-0.1,0.2-0.3,0.2-0.5
		c0-0.3-0.1-0.4-0.2-0.5c-0.1-0.1-0.3-0.1-0.4-0.1h-0.9v3.4H484.5z M487,440.9l1,1.9h-1l-1-1.9H487z M486.1,445.3
		c-0.6,0-1.2-0.1-1.7-0.3s-1-0.5-1.4-1s-0.7-0.9-1-1.4c-0.2-0.5-0.3-1.1-0.3-1.7c0-0.6,0.1-1.2,0.3-1.7c0.2-0.5,0.5-1,1-1.4
		c0.4-0.4,0.9-0.7,1.4-1s1.1-0.3,1.7-0.3c0.6,0,1.2,0.1,1.7,0.3c0.5,0.2,1,0.5,1.4,1c0.4,0.4,0.7,0.9,1,1.4c0.2,0.5,0.3,1.1,0.3,1.7
		c0,0.6-0.1,1.2-0.3,1.7c-0.2,0.5-0.5,1-1,1.4s-0.9,0.7-1.4,1C487.2,445.2,486.7,445.3,486.1,445.3z M486.1,444.2
		c0.6,0,1.2-0.2,1.7-0.5c0.5-0.3,0.9-0.7,1.2-1.2c0.3-0.5,0.5-1.1,0.5-1.7c0-0.6-0.2-1.2-0.5-1.7s-0.7-0.9-1.2-1.2
		c-0.5-0.3-1.1-0.5-1.7-0.5s-1.2,0.2-1.7,0.5c-0.5,0.3-0.9,0.7-1.2,1.2c-0.3,0.5-0.5,1.1-0.5,1.7c0,0.6,0.2,1.2,0.5,1.7
		c0.3,0.5,0.7,0.9,1.2,1.2S485.4,444.2,486.1,444.2z"/>
</g>
</svg>
