<svg width="600" height="600" viewBox="0 0 600 600" fill="none" xmlns="http://www.w3.org/2000/svg">
<g clip-path="url(#clip0_8150_20)">
<path d="M78.6386 163.123L156.203 29.0543L468.552 29L545.709 164.427L545.804 435.309L468.579 570.628L156.312 570.737L77.8516 435.309L78.6386 163.123Z" fill="#4D4D4D"/>
<path d="M77.8496 435.268H218.636L141.302 298.808L204.184 163.149L78.6367 163.122L0 299.909" fill="#EDEDED"/>
<path d="M261.325 435.269H364.21L455.209 302.451L365.798 164.428H244.742L171.832 297.803L261.325 435.269Z" fill="#E0E0E0"/>
<path d="M0 299.896L77.8632 435.309H218.636L142.157 300.358L0 299.896Z" fill="#ACACAC"/>
<path d="M173.34 299.923L261.326 435.323H364.212L453.786 299.977L173.34 299.923Z" fill="#9E9E9E"/>
<path d="M208.188 300.017L181.619 307.75L156.148 299.977L260.188 119.389L286.214 164.454" fill="#00B8E3"/>
<path d="M286.119 435.282L260.214 480.564L191.104 405.994L156.094 300.031V299.977H208.174" fill="#33C6E9"/>
<path d="M156.146 299.977H156.106V300.017L130.079 345.164L103.957 300.221L130.445 254.204L208.173 119.389H260.199" fill="#008AAA"/>
<path d="M442.443 435.269H600.002L599.907 164.414H442.43L442.443 435.269Z" fill="#D4D4D4"/>
<path d="M442.441 300.357V435.309H599.715V300.357H442.441Z" fill="#919191"/>
<path d="M260.226 480.606H208.172L130.078 345.165L156.105 300.031L260.226 480.606Z" fill="#00B8E3"/>
<path d="M468.4 299.977L364.334 480.578C354.767 466.499 338.375 435.309 338.375 435.309L416.442 299.963L468.4 299.977Z" fill="#008AAA"/>
<path d="M416.322 480.578L364.336 480.565L468.416 299.977L494.429 254.898L520.496 300.289M468.416 299.977H416.457L338.363 164.441L364.214 119.402L427.422 199.884L468.416 299.977Z" fill="#00B8E3"/>
<path d="M494.415 254.843V254.884L468.402 299.977L364.227 119.416L416.348 119.443L494.415 254.843Z" fill="#33C6E9"/>
</g>
<defs>
<clipPath id="clip0_8150_20">
<rect width="600" height="600" fill="white"/>
</clipPath>
</defs>
</svg>
