<?xml version="1.0" encoding="utf-8"?>
<!-- Generator: Adobe Illustrator 28.1.0, SVG Export Plug-In . SVG Version: 6.00 Build 0)  -->
<svg version="1.1" id="Layer_1" xmlns="http://www.w3.org/2000/svg" xmlns:xlink="http://www.w3.org/1999/xlink" x="0px" y="0px"
	 viewBox="0 0 540 540" style="enable-background:new 0 0 540 540;" xml:space="preserve">
<style type="text/css">
	.st0{fill:#01C5D1;}
</style>
<g id="Logo">
	<path class="st0" d="M351.4,486.7v-14.3h22.8v-10h-22.1c-3.3,10.8-7.5,21.3-12.8,31.3v3.6h38.9v-10.6H351.4z"/>
	<path class="st0" d="M378.1,437.7h-21.9c-0.1,3.5-0.4,7.1-1,10.5h23L378.1,437.7z"/>
	<path class="st0" d="M67.3,497.2v-59.5h12.1v24.5h21.8v-24.5h12.1v59.5h-12.1v-24.5H79.4v24.5H67.3z"/>
	<path class="st0" d="M158.2,437.7h12.1v40c0,6.5-2,11.6-6.2,15.3s-9.7,5.5-16.8,5.5s-12.7-1.9-16.8-5.5s-6.2-8.8-6.2-15.3v-40h12.1
		v40.5c0,5.2,3.7,9.3,11,9.3s10.8-4.1,10.8-9.3L158.2,437.7z"/>
	<path class="st0" d="M181.4,497.2v-59.5h11.1l22.8,37.1v-37.1h12.1v59.5h-11l-22.8-37.1v37.1L181.4,497.2z"/>
	<path class="st0" d="M250.1,497.2v-49h-16.8v-10.5h45.5v10.5h-16.7v49L250.1,497.2z"/>
	<path class="st0" d="M284.8,497.2v-59.5h25.8c12,0,18.5,6.9,18.5,18.5c0,8.2-3.7,14.2-9.8,17.2l11,19.8v4h-11.8l-12.4-22.4h-9.2
		v22.4L284.8,497.2z M296.9,464.6h11.5c5.5,0,8.3-2.7,8.3-8.2s-2.8-8.2-8.3-8.2h-11.5V464.6z"/>
	<path class="st0" d="M389.5,493.1c-4.3-3.6-6.5-8.7-6.5-15.2h12.1c0,3.5,1.2,6,3.6,7.4c2.5,1.5,5.4,2.2,8.3,2.1
		c6.2,0,9.8-2.6,9.8-6.5c0-1.8-0.9-3.2-2.9-4.3c-1.1-0.7-2.2-1.2-3.4-1.6c-0.7-0.4-1.4-0.6-2.1-0.9c-1.1-0.4-4-1.5-5.4-2l-2.5-0.9
		c-4.7-1.8-7.2-3-10.7-5.6c-3.4-2.7-5.4-6.9-5.2-11.2c0-10.9,8.4-17.9,22-17.9s22.5,6.3,22.5,20h-12.1c0-6.4-4.4-9-10.5-9
		s-9.7,2.4-9.7,6.2c-0.1,1.7,0.8,3.4,2.3,4.2c0.8,0.5,1.7,1,2.6,1.4c0.7,0.3,1.2,0.5,1.5,0.6l3.6,1.3l2.4,0.9c2.3,0.8,4,1.5,5.3,2
		l4.7,2c1.5,0.7,3,1.5,4.3,2.5c3.3,2.5,6.5,6.5,6.1,11.8c0,10.8-8.3,18.1-23.2,18.1C399.6,498.5,394,496.7,389.5,493.1z"/>
	<path class="st0" d="M441.7,493.1c-4.3-3.6-6.5-8.7-6.5-15.2h12.1c0,3.5,1.2,6,3.6,7.4c2.5,1.5,5.4,2.2,8.3,2.1
		c6.2,0,9.8-2.6,9.8-6.5c0-1.8-0.9-3.2-2.9-4.3c-1.1-0.7-2.2-1.2-3.4-1.6c-0.7-0.4-1.4-0.6-2.1-0.9c-1.1-0.4-4-1.5-5.4-2l-2.5-0.9
		c-4.7-1.8-7.2-3-10.7-5.6c-3.4-2.7-5.4-6.9-5.2-11.2c0-10.9,8.4-17.9,22-17.9s22.4,6.4,22.4,20.1H469c0-6.4-4.4-9-10.5-9
		s-9.7,2.4-9.7,6.2c-0.1,1.7,0.8,3.4,2.3,4.2c0.8,0.5,1.7,1,2.6,1.4c0.7,0.3,1.2,0.5,1.5,0.6l3.6,1.3l2.4,0.9c2.3,0.8,4,1.5,5.3,2
		l4.7,2c1.6,0.7,3,1.5,4.3,2.5c3.3,2.5,6.5,6.5,6.1,11.8c0,10.8-8.3,18.1-23.2,18.1C451.7,498.5,446.1,496.7,441.7,493.1z"/>
	<path class="st0" d="M111.4,251c12.1-8.8,29.3-15.3,29.3-15.3s-9.9-5.2-25.2-12.4C113.7,228.1,111.4,251,111.4,251z"/>
	<path class="st0" d="M403.7,241.4c-7.3,0.7-14.7,0.6-22-0.3c-4.3-0.4-8.6-1.1-12.7-2.3c-16.5-4-24.7-12.3-24.7-12.3
		c33.2,8.4,48.1,8.5,52.9,8.2l1.9-0.2c-2-12.1-9.4-37-35-73.5c-0.1,9.6-1.4,19.2-3.8,28.5c-14.4-35.4-25.9-43.5-37.7-53.3
		c4.6,14.2,4.8,28.6,1.8,42.6c-10.2-36.3-46.4-53.5-46.4-53.5s38,63,4.5,110.3c40.9-126.9-124-109.1-101.7-217.6
		c-47.2,75.5,2.9,120.3,23.6,134.6c-49.2-31.2-43.4-41.2-96.4-45.5c21.5,76.4,74.9,85,123.3,94.3c-58.1-2.6-86-32.2-131.8-10.5
		c34.8,58.6,120.4,47.1,140.1,41.2c-52.7,20.8-77-16.2-135.3,37c71,22.9,136.4-10.1,136.4-10.1c-25.9,18.7-76,16.4-90.7,57.6
		c31.8,3,69.9-17.7,95.2-39.5c-28,31.6-74,34.1-69.9,67.4c56.1-8.5,79-55.3,80.5-57.9c-23.1,47.2-49,40.2-46.5,73.5
		c28.4,0,57-30.6,68.8-55.6c-4.2-15.2-2.9-31.3,3.8-45.6c0.3,35.6,16.4,69.3,44,91.9c-19.2-4.7-35.2-17.8-43.7-35.6v-0.1
		c0,0.2-0.1,0.4-0.2,0.6c-8.5,26.3-37.5,48.3-59.8,58c26,3.4,121.9,34.5,118.1,107.3c15.4-35.7,13.3-62.8,4.2-82.9
		c-10.4-23.2-7.9-50.1,6.6-70.9c-27.1-34.4-31-67.5-22.5-92c14.9,27,52.2,28.6,64.8,26.1c0,0-5.6,41.8,27.1,64.8
		C406.9,306.3,399.8,274.8,403.7,241.4z"/>
	<path class="st0" d="M407.1,161.7C366,107.4,295.7,84,230.3,102.8c7.7,4.8,20.6,12.8,29.3,18.3c3.1-0.3,6.1-0.6,9.2-0.8
		c-2-5-5.7-11.3-7.1-12.7c0,0,13.7,6.8,25.1,13c8.9,0.7,17.6,2.2,26.2,4.6c-0.9-4-2.3-7.9-4-11.6c6.6,5.1,12.9,10.6,18.8,16.5
		c11,4.4,21.4,10.1,31,17.1l-1-14.3c0,0,10.1,14.4,16.6,27.5c20.9,20.5,34.9,46.9,40.1,75.6l0,0c1.5,8.4,2.2,16.9,2.2,25.4
		c0,5.9,0.5,11.9,1.5,17.7c2.3,12.9,6,27,12,39.4C449.8,265.7,441.1,206.5,407.1,161.7z"/>
	<path class="st0" d="M135.5,168.4c-1.9,2.9-3.7,5.9-5.5,9c5.1,0.3,11.4,0.8,17.9,1.3C143,174.8,138.3,170.9,135.5,168.4z"/>
	<path class="st0" d="M273.5,402c-67.5-1.1-124.7-49.8-136.5-116.2c-8.4-0.5-16.7-1.9-24.7-4.3c11.3,90.3,93.6,154.3,183.9,143
		c3.1-0.4,6.3-0.9,9.4-1.4C300.9,417.8,291.6,410.8,273.5,402z"/>
	<path class="st0" d="M404.5,331.4c-13.3-9.1-21.5-25.8-23.3-39.8c3.7,0,7.1-0.9,9.4-3.2c-2.7,1.1-5.6,1.6-8.5,1.5
		c3.2-0.3,6.8-1.8,7.6-6.6c-1.4,2.7-3.9,4.5-6.9,5c3.8-1.8,4.4-6.7,4.4-6.7c-1.9,3.8-4.4,5.1-6.4,5.6c-0.1-5.8,1-11,3.5-14.6
		c-15.2-2.3-33.7-2.2-49-13.8c-0.2,15.8,4.9,37.1,24.2,61.8l4.9,6.2l-4.6,6.4c-1.5,2.1-2.8,4.3-4,6.5c-8.8,16.8-9.4,36.7-1.6,54
		c5,11.2,7.7,23.3,8,35.6l0.2,0.1c0,0.1,0,0.2,0,0.4l0.7,0.1c0,0,16.2-6.1,15-17.6c-1.1-11-1.8-26.4,10.7-27.4
		c0.3,0,0.6-0.2,0.9-0.4c0,0,5.1-4.1-4.5-11.8c-1.1-0.3-2.2-0.7-3.3-1.1c3.7,0.6,7.1-0.6,10.9-2.4c4.3-2.4,8.2-5.9,4.6-9.8l0.1-0.1
		c-2.9-2.4-5.5-5.2-7.6-8.3c-0.9-1.4-0.5-3.2,0.9-4.1c0.4-0.3,0.9-0.4,1.3-0.5c4.1-0.4,9.1-3.3,12.7-13.1
		C405.4,332.7,405.2,331.9,404.5,331.4z"/>
</g>
<path class="st0" d="M484.5,442.8v-4.1h2.1c0.2,0,0.3,0,0.5,0.1c0.2,0.1,0.4,0.2,0.5,0.4c0.1,0.2,0.2,0.4,0.2,0.7
	c0,0.3-0.1,0.6-0.2,0.8c-0.1,0.2-0.3,0.4-0.5,0.5c-0.2,0.1-0.4,0.2-0.6,0.2H485v-0.7h1.2c0.1,0,0.3-0.1,0.4-0.2
	c0.1-0.1,0.2-0.3,0.2-0.5c0-0.3-0.1-0.4-0.2-0.5c-0.1-0.1-0.3-0.1-0.4-0.1h-0.9v3.4H484.5z M486.9,440.9l1,1.9h-1l-1-1.9H486.9z
	 M486,445.3c-0.6,0-1.2-0.1-1.7-0.3c-0.5-0.2-1-0.5-1.4-1c-0.4-0.4-0.7-0.9-1-1.4c-0.2-0.5-0.3-1.1-0.3-1.7c0-0.6,0.1-1.2,0.3-1.7
	c0.2-0.5,0.5-1,1-1.4c0.4-0.4,0.9-0.7,1.4-1c0.5-0.2,1.1-0.3,1.7-0.3c0.6,0,1.2,0.1,1.7,0.3c0.5,0.2,1,0.5,1.4,1
	c0.4,0.4,0.7,0.9,1,1.4c0.2,0.5,0.3,1.1,0.3,1.7c0,0.6-0.1,1.2-0.3,1.7c-0.2,0.5-0.5,1-1,1.4s-0.9,0.7-1.4,1
	C487.2,445.2,486.6,445.3,486,445.3z M486,444.2c0.6,0,1.2-0.2,1.7-0.5c0.5-0.3,0.9-0.7,1.2-1.2c0.3-0.5,0.5-1.1,0.5-1.7
	c0-0.6-0.2-1.2-0.5-1.7c-0.3-0.5-0.7-0.9-1.2-1.2c-0.5-0.3-1.1-0.5-1.7-0.5c-0.6,0-1.2,0.2-1.7,0.5c-0.5,0.3-0.9,0.7-1.2,1.2
	s-0.5,1.1-0.5,1.7c0,0.6,0.2,1.2,0.5,1.7c0.3,0.5,0.7,0.9,1.2,1.2S485.4,444.2,486,444.2z"/>
</svg>
