<svg width="600" height="600" fill="none" xmlns="http://www.w3.org/2000/svg"><g clip-path="url(#a)" fill="#1976D2"><path d="M271.429 371.286V357h185.714v28.571l71.428-50-71.428-50v28.572H42.857V99.857H400V157h42.857V78.429c0-11.858-9.571-21.429-21.428-21.429h-400C9.57 57 0 66.571 0 78.429V335.57C0 347.429 9.571 357 21.429 357H200v14.286c0 23.714-19.143 42.857-42.857 42.857h-42.857V457h242.857v-42.857h-42.857c-23.715 0-42.857-19.143-42.857-42.857Z"/><path d="M578.572 185.571H280.715c-8-16.857-25.143-28.571-45-28.571-27.572 0-50 22.429-50 50s22.428 50 50 50c19.857 0 37-11.714 45-28.571h276.428v242.857H428.572v-85.715h-42.857v135.715c0 11.857 9.571 21.428 21.428 21.428h171.429c11.857 0 21.429-9.571 21.429-21.428V207c0-11.857-9.572-21.429-21.429-21.429ZM471.429 514.143v-14.286h42.857v14.286h-42.857Z"/></g><defs><clipPath id="a"><path fill="#fff" transform="translate(0 57)" d="M0 0h600v485.714H0z"/></clipPath></defs></svg>