<svg width="600" height="600" fill="none" xmlns="http://www.w3.org/2000/svg"><rect width="600" height="600" rx="300" fill="#192FFF"/><path d="m445.835 230.057-23.98 44.93a4.887 4.887 0 0 0-.543 3.076l8.728 66.101c.415 3.108-.927 6.215-3.485 7.996l-49.686 35.154a5.108 5.108 0 0 0-1.726 2.137l-24.395 57.199c-1.376 3.205-4.285 5.471-7.706 5.989l-42.076 6.215a12.657 12.657 0 0 1-3.837 0l-42.076-6.215c-3.421-.518-6.331-2.784-7.706-5.989l-24.395-57.199c-.351-.874-.959-1.586-1.726-2.137l-49.686-35.122a8.427 8.427 0 0 1-3.485-7.996l8.729-66.101a5.357 5.357 0 0 0-.544-3.075l-24.043-44.963a10.537 10.537 0 0 1-1.183-5.406l1.151-19.682c.223-3.625 2.302-6.83 5.531-8.448l13.684-6.863a12.336 12.336 0 0 1 12.15.615l30.726 19.455a4.928 4.928 0 0 0 4.092.55l76.799-23.695a13.132 13.132 0 0 1 7.737 0l76.799 23.695a4.93 4.93 0 0 0 4.093-.55l30.725-19.455a12.336 12.336 0 0 1 12.15-.615l13.652 6.863a10.15 10.15 0 0 1 5.532 8.448l1.151 19.682c.095 1.877-.288 3.755-1.184 5.406h.033Z" fill="#F7F9FC"/></svg>