<svg width="600" height="600" fill="none" xmlns="http://www.w3.org/2000/svg"><path d="M126.732 467.734c12.934 8.066 34.434 17.033 57.167 17.033 20.7 0 39.933-6 55.867-16.233 0 0 .033 0 .066-.034l60.167-37.6v135.767c-9.533 0-19.133-2.6-27.467-7.8l-145.8-91.133Z" fill="#225086"/><path d="m261.767 50.234-250 282c-19.3 21.8-14.267 54.733 10.766 70.367 0 0 92.534 57.833 104.2 65.133 12.934 8.067 34.434 17.033 57.167 17.033 20.7 0 39.933-6 55.867-16.233 0 0 .033 0 .066-.033l60.167-37.6-145.467-90.934 145.5-164.133v-142.5c-14.133 0-28.266 5.633-38.266 16.9Z" fill="#6DF"/><path d="m154.533 339.967 1.734 1.067L300 430.901h.033V175.867l-.033-.033-145.467 164.133Z" fill="#CBF8FF"/><path d="M577.468 402.6c25.034-15.633 30.067-48.567 10.767-70.367L424.202 147.2a103.399 103.399 0 0 0-43.767-9.7c-30.833 0-58.4 13.3-76.733 34.2l-3.634 4.1 145.467 164.133-145.5 90.934v135.766c9.567 0 19.1-2.6 27.433-7.8l250-156.266v.033Z" fill="#074793"/><path d="M300.033 33.334v142.5l3.634-4.1c18.333-20.9 45.9-34.2 76.733-34.2 15.733 0 30.533 3.567 43.767 9.7L338.2 50.267c-9.967-11.266-24.1-16.9-38.2-16.9l.033-.033Z" fill="#0294E4"/><path d="m445.502 339.967-145.467-164.1v255l145.467-90.9Z" fill="#96BCC2"/></svg>