<svg xmlns="http://www.w3.org/2000/svg" width="114" height="113" fill="none"><g clip-path="url(#a)"><mask id="b" width="115" height="122" x="0" y="0" maskUnits="userSpaceOnUse" style="mask-type:luminance"><path fill="#fff" d="M114.686 0H.45v121.828h114.236V0Z"/></mask><g mask="url(#b)"><path fill="#5C2D90" d="m102.158 59.532 2.781 35.489-49.225 8.833-4.238-35.489 7.033-.982c1.144.491 1.963.654 3.271.982 2.126.49 4.58 1.144 8.175-.817.818-.491 2.617-1.964 3.272-2.944l28.931-5.072Zm-76.05 42.198c-.818-1.307-2.29-2.78-4.58-4.58-3.272-2.617-2.126-7.197-.165-9.976 2.472-4.742 15.374-10.957 14.72-18.645-.326-2.78-.653-6.379-3.271-8.996-.164.982 0 1.964 0 1.964s-1.144-1.307-1.635-3.272c-.491-.653-.982-.982-1.473-1.963-.326 1.144-.326 2.29-.326 2.29s-.818-2.126-.982-3.761c-.49.817-.653 2.29-.653 2.29s-1.144-3.272-.818-5.068c-.49-1.472-2.126-4.58-1.635-11.448 2.781 1.964 8.996 1.473 11.449-2.126.817-1.144 1.306-4.414-.327-10.795-1.144-4.089-3.925-10.14-5.067-12.43l-.165.165c.654 1.8 1.801 5.724 2.29 7.687 1.307 5.724 1.801 7.688 1.145 10.304-.491 2.29-1.802 3.761-5.234 5.398-3.271 1.635-7.85-2.472-8.016-2.617-3.271-2.617-5.724-6.886-6.05-8.832-.327-2.29 1.306-3.598 2.125-5.397-1.144.327-2.472.982-2.472.982s1.473-1.635 3.434-2.944a16.649 16.649 0 0 0 2.126-1.472h-2.104s1.963-1.144 4.089-1.801H19.57l7.85-3.434c2.472-.982 4.743-.653 6.051 1.144 1.801 2.472 3.599 3.76 7.36 4.742 2.29-.981 3.107-1.635 6.05-2.471 2.617-2.944 4.742-3.272 4.742-3.272s-1.472 1.306-1.635 2.78c1.473-1.143 3.108-2.125 3.108-2.125s-.653.817-1.144 1.963l.164.164c1.801-.981 3.76-1.8 3.76-1.8s-.652.653-1.306 1.634c1.307 0 3.925 0 4.909.165 6.05.164 7.359-6.38 9.649-7.36 2.943-.981 4.251-1.634 9.158 3.272 4.252 4.252 7.522 11.613 5.889 13.248-1.307 1.306-4.09-.491-7.197-4.252-1.635-1.963-2.781-4.414-3.434-7.359-.327-2.472-2.126-3.925-2.126-3.925s1.144 2.472 1.144 4.58c0 1.144.164 5.398 1.963 7.85-.164.327-.326 1.8-.49 1.963-2.126-2.616-6.886-4.414-7.522-5.067 2.617 2.126 8.505 6.886 10.795 11.448 2.126 4.414.817 8.341 1.963 9.323.327.326 4.58 5.561 5.398 8.34 1.472 4.743.164 9.65-1.801 12.593l-5.233.818a6.922 6.922 0 0 1-1.964-.656c.327-.653 1.144-2.29 1.144-2.616l-.326-.491c-1.635 2.29-4.414 4.58-6.706 5.888-2.943 1.635-6.38 1.473-8.652.654-6.379-1.964-12.43-6.215-13.736-7.36 0 0 0 .818.164 1.145a49.564 49.564 0 0 0 8.832 7.359l-7.522.817 3.599 27.804c-1.636.164-1.802.326-3.599.653-1.472-5.398-4.414-8.832-7.687-10.958-2.781-1.8-6.706-2.29-10.467-1.472l-.164.327c2.616-.327 5.724.164 8.831 2.125 3.108 1.962 5.562 7.033 6.542 9.976 1.144 3.925 1.963 8.016-1.144 12.43-2.29 3.108-8.832 4.909-14.065 1.144 1.472 2.29 3.272 4.089 5.888 4.414 3.761.491 7.36-.164 9.976-2.616 2.126-2.126 3.272-6.706 2.943-11.613l3.434-.49 1.145 8.651 55.746-6.653-4.909-44.485-2.781.49L96.598 0 3.703 10.795l11.448 92.568 10.958-1.633Z"/></g><path fill="#5C2D90" d="M70.307 53.075c2.471 1.8 4.58 2.943 6.706 2.78 1.306-.164 2.616-2.29 3.434-4.251.653-1.307.653-2.78-.327-3.272-.49-.164-2.472-.164-3.925 0-2.78.327-5.562 1.307-6.215 1.801-.982.653-.49 2.29.327 2.944m.653-19.14v.164l.164.327c.653 1.306 1.307 2.617 2.617 3.272.326 0 .653-.165.981-.165 1.145 0 1.801.165 2.29.327v-.982c-.164-1.635.327-4.58-2.943-6.215-1.306-.653-2.943-.326-3.598.327h.326c.818.327.327.653.165.982-.165.653-.329.817-.002 1.963ZM56.24 34.265c.817-.653-3.76-1.635-7.36.654-2.616 1.8-2.616 5.561-.163 7.687.245.122.467.289.653.491.653-.327 1.635-.653 2.472-.982 1.635-.49 2.943-.817 4.089-.981.49-.654 1.144-1.635.982-3.434-.165-2.472-2.126-1.964-.654-3.435m26.658 39.727-7.85 13.066-9.159-2.781-8.016 12.266.327 3.924 43.832-8.015-2.617-27.315-7.197 15.047-9.32-6.192Z"/></g><defs><clipPath id="a"><path fill="#fff" d="M.273 0h113v113h-113z"/></clipPath></defs></svg>