<svg width="600" height="600" fill="none" xmlns="http://www.w3.org/2000/svg"><g clip-path="url(#a)"><mask id="b" style="mask-type:luminance" maskUnits="userSpaceOnUse" x="0" y="0" width="600" height="600"><path d="M600 0H0v600h600V0Z" fill="#fff"/></mask><g mask="url(#b)"><path fill-rule="evenodd" clip-rule="evenodd" d="m330.104 4.167-12.342 152c-5.837-.667-11.675-1-17.679-1-7.505 0-14.843.5-22.015 1.666l-7.004-73.666c-.167-2.334 1.668-4.334 4.002-4.334h12.509l-6.004-74.5C281.404 2 283.239 0 285.407 0h40.861c2.335 0 4.169 2 3.836 4.333v-.166Zm-103.07 7.5c-.667-2.167-3.002-3.5-5.17-2.667l-38.36 14c-2.168.833-3.169 3.333-2.168 5.333l31.188 68-11.841 4.334c-2.169.833-3.169 3.333-2.169 5.333l31.855 66.833a143.073 143.073 0 0 1 37.192-14.166l-40.36-147h-.167ZM132.97 54l88.227 124.333c-11.175 7.334-21.348 16-30.021 26l-52.869-52c-1.668-1.666-1.501-4.333.167-5.833l9.673-8-52.536-53.167c-1.668-1.666-1.5-4.333.334-5.833l31.188-26.167c1.834-1.5 4.336-1.166 5.67.667h.167Zm-74.05 72c-1.835-1.333-4.504-.667-5.67 1.333l-20.348 35.334c-1.168 2-.334 4.5 1.668 5.5l67.712 32L95.945 211c-1.168 2-.334 4.667 1.834 5.5l67.379 30.833c4.837-12.5 11.341-24.166 19.347-34.666L58.92 126ZM9.052 222c.334-2.333 2.669-3.667 4.837-3.167l147.6 38.5c-3.836 12.5-6.004 25.667-6.337 39.334l-73.884-6A3.85 3.85 0 0 1 77.766 286l2.168-12.333-74.55-7C3.047 266.5 1.546 264.333 1.88 262l7.005-40.167.166.167ZM3.55 321.667c-2.335.166-3.836 2.333-3.503 4.666L7.218 366.5c.333 2.333 2.668 3.667 4.836 3.167l72.383-18.834 2.168 12.334c.334 2.333 2.668 3.666 4.837 3.166l71.382-19.666c-4.17-12.334-6.838-25.5-7.506-39l-151.936 14h.167ZM27.23 427.333c-1.167-2-.333-4.5 1.668-5.5L166.66 356.5c5.171 12.333 12.175 23.833 20.514 34.167l-60.374 43c-1.835 1.333-4.503.833-5.67-1.167l-6.338-11L53.249 464c-1.835 1.333-4.503.667-5.67-1.333l-20.514-35.334h.166Zm166.947-28.666-107.24 108.5c-1.667 1.666-1.5 4.333.334 5.833l31.355 26.167c1.834 1.5 4.336 1.166 5.67-.667l43.363-61 9.673 8.167c1.835 1.5 4.503 1.166 5.838-.834l42.028-61c-11.341-7-21.848-15.5-30.854-25.166h-.167Zm-21.181 174.166c-2.168-.833-3.169-3.333-2.168-5.333l63.543-138.667c11.675 6 24.35 10.5 37.526 13l-18.68 71.667c-.5 2.167-3.002 3.5-5.17 2.667l-11.841-4.334L216.36 584c-.667 2.167-3.002 3.5-5.17 2.667l-38.36-14 .167.166Zm109.408-129.166-12.342 152c-.167 2.333 1.668 4.333 3.836 4.333h40.861c2.335 0 4.17-2 3.836-4.333l-6.004-74.5H325.1c2.335 0 4.17-2 4.003-4.334l-7.005-73.666c-7.171 1.166-14.509 1.666-22.015 1.666-6.004 0-11.841-.333-17.678-1.166Zm147.1-411.5c1-2.167 0-4.5-2.168-5.334l-38.36-14c-2.168-.833-4.503.5-5.17 2.667L363.96 87.667l-11.841-4.334c-2.168-.833-4.503.5-5.17 2.667l-18.68 71.667c13.343 2.666 25.851 7.166 37.526 13l63.71-138.5Zm83.723 60.5-107.239 108.5A145.541 145.541 0 0 0 375.134 176l42.029-61c1.334-1.833 4.003-2.333 5.837-.833l9.673 8.166 43.363-61c1.335-1.833 4.003-2.166 5.671-.666l31.354 26.166c1.835 1.5 1.835 4.167.334 5.834h-.167ZM571.268 178c2.168-1 2.835-3.5 1.667-5.5l-20.513-35.333c-1.168-2-3.836-2.5-5.671-1.334l-61.542 42.5-6.337-10.833c-1.168-2-3.836-2.667-5.671-1.167l-60.374 43c8.339 10.334 15.177 21.834 20.514 34.167l137.76-65.333.167-.167Zm21.681 55.333 7.005 40.167c.333 2.333-1.168 4.333-3.503 4.667l-151.936 14.166c-.667-13.666-3.336-26.666-7.505-39l71.382-19.666c2.168-.667 4.503.833 4.836 3.166l2.168 12.334 72.383-18.834c2.168-.5 4.503.834 4.836 3.167l.334-.167Zm-6.838 147.5c2.168.5 4.503-.833 4.837-3.166l7.004-40.167c.334-2.333-1.167-4.333-3.502-4.667l-74.551-7 2.169-12.333c.333-2.333-1.168-4.333-3.503-4.667l-73.883-6c-.334 13.667-2.502 26.834-6.338 39.334l147.6 38.5.167.166Zm-39.36 91.667c-1.167 2-3.836 2.5-5.671 1.333l-125.585-86.666c8.006-10.5 14.51-22.167 19.347-34.667l67.379 30.833c2.168 1 3.002 3.5 1.834 5.5l-6.337 10.834 67.712 32c2.002 1 2.836 3.5 1.668 5.5L546.751 472.5Zm-167.947-51.167 88.226 124.334c1.334 1.833 4.003 2.166 5.671.666l31.188-26.166c1.834-1.5 1.834-4.167.333-5.834l-52.536-53.166 9.674-8c1.834-1.5 1.834-4.167.166-5.834l-52.869-52c-8.839 10-18.846 18.834-30.02 26h.167Zm-.834 169.334c-2.168.833-4.503-.5-5.171-2.667l-40.36-147a143.04 143.04 0 0 0 37.192-14.167l31.855 66.834c1 2.166 0 4.666-2.168 5.333l-11.842 4.333 31.188 68c1.001 2.167 0 4.5-2.168 5.334l-38.36 14h-.166Z" fill="#fff"/></g></g><defs><clipPath id="a"><path fill="#fff" d="M0 0h600v600H0z"/></clipPath></defs></svg>