<svg width="600" height="600" fill="none" xmlns="http://www.w3.org/2000/svg"><g clip-path="url(#a)"><mask id="b" style="mask-type:luminance" maskUnits="userSpaceOnUse" x="0" y="0" width="600" height="600"><path d="M600 0H0v600h600V0Z" fill="#fff"/></mask><g mask="url(#b)"><path d="M300 600c165.685 0 300-134.315 300-300S465.685 0 300 0 0 134.315 0 300s134.315 300 300 300Z" fill="#fff"/><path d="M229.85 204.478a8.955 8.955 0 0 0-8.955 8.955v53.731a8.955 8.955 0 0 0 8.955 8.955h43.283V405.97a8.955 8.955 0 0 0 8.956 8.955h53.731a8.955 8.955 0 0 0 8.955-8.955V213.433a8.955 8.955 0 0 0-8.955-8.955H229.85Z" fill="#1C1F2A"/></g></g><defs><clipPath id="a"><path fill="#fff" d="M0 0h600v600H0z"/></clipPath></defs></svg>