<svg width="600" height="600" fill="none" xmlns="http://www.w3.org/2000/svg"><path d="M64.03 318.824c0 3.985-.84 7.658-2.54 11.038-1.68 3.38-4.043 6.232-7.051 8.596s-6.602 4.201-10.763 5.529c-4.16 1.329-8.712 1.973-13.654 1.973-5.918 0-11.212-.801-15.92-2.422-4.707-1.622-9.395-4.298-14.102-8.03l7.774-12.64c3.731 3.126 7.09 5.412 10.118 6.857 3.009 1.446 6.075 2.169 9.22 2.169 3.868 0 6.954-.977 9.317-2.989 2.364-2.013 3.516-4.689 3.516-8.069 0-1.446-.215-2.813-.644-4.083-.43-1.27-1.192-2.559-2.344-3.908-1.133-1.328-2.696-2.774-4.708-4.337-1.973-1.563-4.532-3.497-7.676-5.802-2.403-1.7-4.766-3.439-7.032-5.236a50.634 50.634 0 0 1-6.231-5.802 26.532 26.532 0 0 1-4.512-6.877c-1.133-2.54-1.72-5.432-1.72-8.675 0-3.731.782-7.17 2.345-10.237a23.325 23.325 0 0 1 6.406-7.854c2.696-2.188 5.939-3.868 9.747-5.06 3.79-1.192 7.892-1.817 12.365-1.817 4.707 0 9.24.645 13.634 1.876 4.395 1.27 8.458 3.087 12.208 5.49l-7.051 11.37c-4.825-3.38-9.884-5.06-15.197-5.06-3.242 0-5.938.84-8.048 2.54-2.129 1.699-3.164 3.809-3.164 6.349s.918 4.591 2.793 6.526c1.856 1.934 5.06 4.649 9.63 8.146 4.59 3.38 8.419 6.35 11.447 8.89 3.027 2.539 5.41 4.923 7.168 7.17 1.758 2.246 2.97 4.493 3.633 6.798.665 2.306.997 4.826.997 7.6h.058l-.02-.019Zm105.264-22.233c0 7.111-1.074 13.656-3.282 19.634-2.187 5.979-5.196 11.175-9.083 15.649-3.887 4.474-8.457 7.932-13.79 10.394-5.313 2.462-11.056 3.692-17.248 3.692-2.774 0-5.371-.234-7.794-.722a25.875 25.875 0 0 1-6.895-2.443c-2.168-1.133-4.317-2.618-6.446-4.434-2.129-1.817-4.317-4.045-6.621-6.702V389H74.89V253.356h23.245l.117 13.207c4.238-5.295 8.829-9.202 13.751-11.664 4.962-2.481 10.704-3.692 17.228-3.692 5.919 0 11.33 1.113 16.193 3.341 4.903 2.227 9.122 5.333 12.677 9.319 3.555 3.985 6.31 8.733 8.243 14.301 1.934 5.548 2.891 11.702 2.891 18.442h.039l.02-.019Zm-25.276.938c0-9.906-1.992-17.72-6.016-23.464-4.005-5.744-9.454-8.596-16.389-8.596-7.285 0-13.067 3.047-17.306 9.143-4.239 6.095-6.387 14.34-6.387 24.714 0 10.374 2.109 18.111 6.27 23.913 4.16 5.802 9.942 8.694 17.228 8.694 4.356 0 7.989-1.114 10.841-3.341 2.852-2.247 5.157-5.079 6.915-8.518 1.758-3.438 3.008-7.189 3.731-11.214.722-4.044 1.093-7.815 1.093-11.331h-.019.039Zm35.609 46.243h23.85V211h-23.85v132.772Zm125.735.039v-90.572h-23.85v48.744c0 4.337-.176 7.697-.547 10.061a25.839 25.839 0 0 1-1.817 6.448c-3.379 7.482-9.551 11.233-18.537 11.233-7.012 0-11.934-2.54-14.728-7.619-1.093-1.915-1.855-4.103-2.285-6.525-.43-2.423-.645-5.92-.645-10.531v-51.811h-23.85v51.46c0 3.497.039 6.466.098 8.889.059 2.422.215 4.552.469 6.447.234 1.876.527 3.536.82 4.982a19.198 19.198 0 0 0 1.368 4.161c2.187 5.568 5.703 9.769 10.606 12.601 4.903 2.833 10.9 4.24 18.01 4.24 6.407 0 12.013-1.114 16.857-3.341 4.844-2.247 9.532-5.88 14.142-10.96l.058 12.113h23.85v-.039h-.019v.019Zm102.881-.039v-51.343c0-3.497-.039-6.486-.098-8.947-.058-2.482-.195-4.592-.468-6.428a41.409 41.409 0 0 0-.899-4.787 42.825 42.825 0 0 0-1.27-4.083c-2.187-5.411-5.703-9.592-10.606-12.562-4.903-2.969-10.9-4.435-18.049-4.435-6.407 0-12.013 1.114-16.857 3.361-4.844 2.246-9.532 5.9-14.142 10.96l-.039-12.113H321.75v90.377h24.065v-48.783c0-4.22.156-7.502.469-9.847.312-2.344.879-4.532 1.738-6.603 1.563-3.615 3.965-6.369 7.188-8.225 3.223-1.856 7.052-2.794 11.545-2.794 7.012 0 11.934 2.54 14.728 7.58 1.074 1.915 1.836 4.103 2.265 6.506.43 2.403.645 5.9.645 10.491v51.695h23.85v-.02Zm98.779-5.958-36.351-45.209 30.745-32.919-18.088-7.776-31.995 37.061h-2.539V211h-24.065v132.753h24.065v-48.1l35.98 49.917 22.248-7.776h.02l-.02.02ZM600 305.363v-14.809l-72.331-36.299v16.254l56.06 27.293-56.06 27.645v15.903L600 305.402v-.039Z" fill="#fff"/></svg>