<svg width="112" height="111" viewBox="0 0 112 111" fill="none" xmlns="http://www.w3.org/2000/svg">
  <path d="M96.7901 56.5804C96.7901 64.3954 94.4726 72.0349 90.1309 78.5328C85.7891 85.0308 79.6179 90.0953 72.3978 93.086C65.1777 96.0767 57.2329 96.8592 49.568 95.3345C41.9032 93.8099 34.8626 90.0466 29.3365 84.5206C23.8105 78.9945 20.0472 71.9539 18.5226 64.2891C16.9979 56.6242 17.7804 48.6794 20.7711 41.4593C23.7618 34.2391 28.8263 28.068 35.3242 23.7262C41.8222 19.3844 49.4617 17.067 57.2767 17.067C62.4657 17.0667 67.604 18.0886 72.3981 20.0742C77.1922 22.0599 81.5483 24.9704 85.2175 28.6396C88.8867 32.3088 91.7972 36.6648 93.7829 41.4589C95.7685 46.253 96.7903 51.3913 96.7901 56.5804Z" fill="#FF5850"/>
  <path d="M57.9424 41.7704L68.1686 67.0076L52.7229 54.8419L57.9424 41.7704ZM76.1078 72.8215L60.379 34.9703C60.1981 34.4723 59.8658 34.0436 59.4288 33.744C58.9919 33.4445 58.4721 33.2893 57.9424 33.3002C57.4042 33.288 56.8752 33.4417 56.4274 33.7405C55.9795 34.0392 55.6345 34.4686 55.4391 34.9703L38.1761 76.4888H44.0818L50.9147 59.3696L71.3083 75.8457C72.1292 76.5092 72.7202 76.8092 73.4901 76.8092C73.8662 76.8181 74.2403 76.7516 74.5903 76.6137C74.9404 76.4757 75.2593 76.2692 75.5283 76.0062C75.7974 75.7432 76.0111 75.429 76.1568 75.0822C76.3026 74.7353 76.3776 74.3628 76.3772 73.9866C76.3505 73.5863 76.2595 73.1929 76.1078 72.8215Z" fill="white"/>
</svg>
