<svg width="114" height="111" viewBox="0 0 114 111" fill="none" xmlns="http://www.w3.org/2000/svg">
  <path fill-rule="evenodd" clip-rule="evenodd" d="M57.3312 0C26.0951 0 0.84375 25.4375 0.84375 56.9072C0.84375 82.0625 17.0232 103.356 39.4683 110.892C42.2745 111.459 43.3024 109.668 43.3024 108.161C43.3024 106.842 43.2099 102.32 43.2099 97.6083C27.4965 101.001 24.2243 90.8246 24.2243 90.8246C21.699 84.2293 17.9574 82.5343 17.9574 82.5343C12.8144 79.0482 18.332 79.0482 18.332 79.0482C24.037 79.4251 27.0305 84.8895 27.0305 84.8895C32.0798 93.5568 40.2164 91.1079 43.4897 89.6001C43.9568 85.9256 45.4542 83.3818 47.044 81.9689C34.5114 80.6496 21.3256 75.7506 21.3256 53.8917C21.3256 47.6733 23.5687 42.5858 27.123 38.6292C26.5622 37.2162 24.5978 31.3737 27.6849 23.554C27.6849 23.554 32.4545 22.0462 43.2087 29.3953C47.813 28.1497 52.5614 27.516 57.3312 27.5107C62.1007 27.5107 66.9628 28.1709 71.4525 29.3953C82.2079 22.0462 86.9774 23.554 86.9774 23.554C90.0646 31.3737 88.099 37.2162 87.5382 38.6292C91.1862 42.5858 93.3368 47.6733 93.3368 53.8917C93.3368 75.7506 80.1509 80.5548 67.5247 81.9689C69.5828 83.7587 71.3588 87.15 71.3588 92.5208C71.3588 100.152 71.2663 106.277 71.2663 108.16C71.2663 109.668 72.2954 111.459 75.1004 110.894C97.5456 103.355 113.725 82.0625 113.725 56.9072C113.817 25.4375 88.4736 0 57.3312 0Z" fill="#24292F"/>
</svg>
