<svg width="115" height="111" viewBox="0 0 115 111" fill="none" xmlns="http://www.w3.org/2000/svg">
  <g clip-path="url(#clip0_212_1335)">
    <path fill-rule="evenodd" clip-rule="evenodd" d="M57.3312 0.0012207C26.0958 0.0012207 0.845001 25.4382 0.845001 56.9071C0.845001 82.0619 17.024 103.355 39.4687 110.891C42.2748 111.458 43.3027 109.667 43.3027 108.16C43.3027 106.841 43.2102 102.319 43.2102 97.6074C27.4971 101 24.225 90.8238 24.225 90.8238C21.6998 84.2287 17.9583 82.5337 17.9583 82.5337C12.8154 79.0477 18.3329 79.0477 18.3329 79.0477C24.0377 79.4246 27.0312 84.8889 27.0312 84.8889C32.0804 93.556 40.2168 91.1071 43.49 89.5994C43.9571 85.9249 45.4545 83.3812 47.0443 81.9683C34.5119 80.649 21.3264 75.7501 21.3264 53.8917C21.3264 47.6735 23.5694 42.5861 27.1237 38.6295C26.5629 37.2166 24.5985 31.3742 27.6856 23.5547C27.6856 23.5547 32.455 22.047 43.2091 29.3959C47.8133 28.1503 52.5615 27.5166 57.3312 27.5113C62.1006 27.5113 66.9625 28.1715 71.4522 29.3959C82.2074 22.047 86.9768 23.5547 86.9768 23.5547C90.0639 31.3742 88.0983 37.2166 87.5376 38.6295C91.1854 42.5861 93.336 47.6735 93.336 53.8917C93.336 75.7501 80.1504 80.5542 67.5245 81.9683C69.5825 83.7581 71.3585 87.1493 71.3585 92.52C71.3585 100.151 71.266 106.276 71.266 108.159C71.266 109.667 72.2951 111.458 75.1001 110.892C97.5447 103.354 113.724 82.0619 113.724 56.9071C113.816 25.4382 88.4729 0.0012207 57.3312 0.0012207Z" fill="white"/>
  </g>
  <defs>
    <clipPath id="clip0_212_1335">
      <rect width="113.31" height="110.998" fill="white" transform="translate(0.845001 0.0012207)"/>
    </clipPath>
  </defs>
</svg>
