<svg width="112" height="111" viewBox="0 0 112 111" fill="none" xmlns="http://www.w3.org/2000/svg">
  <path d="M82.9495 49.8712L82.8706 49.6696L75.235 29.7422C75.0796 29.3516 74.8045 29.0203 74.4492 28.7958C74.0937 28.5751 73.6789 28.4688 73.261 28.4912C72.8431 28.5137 72.4422 28.6638 72.1124 28.9214C71.7862 29.1863 71.5495 29.5454 71.4347 29.9496L66.279 45.7233H45.4023L40.2466 29.9496C40.1348 29.5432 39.8976 29.1823 39.5689 28.9185C39.2391 28.6609 38.8381 28.5108 38.4202 28.4883C38.0024 28.4658 37.5876 28.5721 37.2321 28.7929C36.8775 29.0183 36.6027 29.3493 36.4463 29.7393L28.7961 49.6579L28.7201 49.8595C27.6209 52.7315 27.4853 55.883 28.3336 58.8388C29.1818 61.7947 30.9681 64.3946 33.423 66.2466L33.4493 66.267L33.5194 66.3167L45.151 75.0273L50.9055 79.3826L54.4108 82.029C54.8208 82.3404 55.3215 82.5089 55.8363 82.5089C56.3511 82.5089 56.8517 82.3404 57.2617 82.029L60.767 79.3826L66.5215 75.0273L78.2232 66.2641L78.2524 66.2408C80.7018 64.3884 82.4839 61.7912 83.3309 58.8393C84.1779 55.8875 84.0441 52.7404 82.9495 49.8712Z" fill="#E24329"/>
  <path d="M82.9495 49.8712L82.8706 49.6697C79.15 50.4334 75.6441 52.0093 72.6031 54.2849L55.8333 66.9652C61.544 71.2855 66.5156 75.039 66.5156 75.039L78.2174 66.2759L78.2466 66.2525C80.6995 64.4002 82.4844 61.8013 83.3325 58.8469C84.1807 55.8925 84.0463 52.7426 82.9495 49.8712Z" fill="#FC6D26"/>
  <path d="M45.151 75.039L50.9055 79.3943L54.4108 82.0408C54.8208 82.3521 55.3215 82.5206 55.8363 82.5206C56.3511 82.5206 56.8517 82.3521 57.2617 82.0408L60.767 79.3943L66.5215 75.039C66.5215 75.039 61.544 71.2738 55.8333 66.9652C50.1227 71.2738 45.151 75.039 45.151 75.039Z" fill="#FCA326"/>
  <path d="M39.0607 54.2849C36.0222 52.0046 32.5169 50.4245 28.7961 49.658L28.7201 49.8595C27.6209 52.7315 27.4853 55.883 28.3336 58.8388C29.1818 61.7947 30.9681 64.3946 33.423 66.2466L33.4493 66.2671L33.5194 66.3167L45.151 75.0273C45.151 75.0273 50.1168 71.2738 55.8333 66.9535L39.0607 54.2849Z" fill="#FC6D26"/>
</svg>
