<svg width="57" height="55" viewBox="0 0 57 55" fill="none" xmlns="http://www.w3.org/2000/svg">
  <path d="M55.9495 21.8712L55.8706 21.6696L48.235 1.7422C48.0796 1.35164 47.8045 1.02032 47.4492 0.795784C47.0937 0.575065 46.6789 0.46876 46.261 0.491221C45.8431 0.513683 45.4422 0.66383 45.1124 0.92139C44.7862 1.18634 44.5495 1.54537 44.4347 1.9496L39.279 17.7233H18.4023L13.2466 1.9496C13.1348 1.54316 12.8976 1.18234 12.5689 0.918468C12.2391 0.660908 11.8381 0.510761 11.4202 0.4883C11.0024 0.465838 10.5876 0.572144 10.2321 0.792863C9.87754 1.0183 9.6027 1.34933 9.44631 1.73928L1.79608 21.6579L1.72013 21.8595C0.620944 24.7315 0.485268 27.883 1.33356 30.8388C2.18184 33.7947 3.96811 36.3946 6.42302 38.2466L6.44931 38.267L6.51942 38.3167L18.151 47.0273L23.9055 51.3826L27.4108 54.029C27.8208 54.3404 28.3215 54.5089 28.8363 54.5089C29.3511 54.5089 29.8517 54.3404 30.2617 54.029L33.767 51.3826L39.5215 47.0273L51.2232 38.2641L51.2524 38.2408C53.7018 36.3884 55.4839 33.7912 56.3309 30.8393C57.1779 27.8875 57.0441 24.7404 55.9495 21.8712Z" fill="white"/>
</svg>
