<svg width="115" height="111" viewBox="0 0 115 111" fill="none" xmlns="http://www.w3.org/2000/svg">
<g clip-path="url(#clip0_211_1892)">
<path d="M56.8026 0.00978411C55.7913 0.0607293 54.8004 0.311475 53.8881 0.747311L14.1176 19.7501C13.0883 20.2417 12.1838 20.957 11.4714 21.8428C10.7591 22.7287 10.2571 23.7623 10.0027 24.867L0.19107 67.552C-0.035495 68.5355 -0.0608509 69.554 0.116504 70.5474C0.293858 71.5408 0.67032 72.4887 1.22361 73.3352C1.35777 73.5422 1.50205 73.7425 1.65595 73.9354L29.1835 108.162C29.8961 109.047 30.8006 109.762 31.83 110.254C32.8594 110.745 33.9871 111 35.1295 111L79.2743 110.99C80.4163 110.991 81.5438 110.736 82.5732 110.246C83.6025 109.755 84.5073 109.041 85.2203 108.157L112.738 73.9253C113.451 73.0392 113.953 72.0052 114.207 70.9C114.462 69.7949 114.462 68.647 114.208 67.5418L104.381 24.8568C104.126 23.7521 103.624 22.7185 102.912 21.8326C102.2 20.9468 101.295 20.2315 100.266 19.7399L60.4903 0.747311C59.3427 0.199064 58.0747 -0.0545367 56.8026 0.00978411Z" fill="#326CE5"/>
<path d="M57.1967 14.5361C55.8821 14.5362 54.8161 15.7203 54.8163 17.181C54.8163 17.2034 54.8209 17.2248 54.8214 17.2471C54.8194 17.4456 54.8098 17.6847 54.8163 17.8575C54.8476 18.7 55.0313 19.3447 55.1418 20.1209C55.3421 21.7822 55.5099 23.1593 55.4063 24.4393C55.3056 24.9219 54.9501 25.3634 54.6332 25.6702L54.5772 26.6773C53.1487 26.7957 51.7106 27.0124 50.2741 27.3385C44.0932 28.7419 38.7715 31.9257 34.7199 36.2245C34.457 36.0451 33.9971 35.7151 33.8603 35.6141C33.4353 35.6715 33.0058 35.8026 32.4463 35.4768C31.381 34.7597 30.4108 33.7699 29.2368 32.5775C28.6989 32.0072 28.3093 31.464 27.6702 30.9143C27.5251 30.7894 27.3036 30.6205 27.1412 30.4921C26.6415 30.0937 26.0522 29.886 25.483 29.8665C24.7513 29.8414 24.0468 30.1275 23.5858 30.7057C22.7663 31.7336 23.0287 33.3048 24.1708 34.2153C24.1823 34.2246 24.1947 34.2317 24.2064 34.2408C24.3633 34.368 24.5555 34.531 24.6997 34.6375C25.378 35.1383 25.9975 35.3946 26.6733 35.7921C28.097 36.6713 29.2772 37.4004 30.2134 38.2794C30.579 38.669 30.6429 39.3557 30.6915 39.6527L31.4545 40.3343C27.3702 46.4809 25.4799 54.0731 26.597 61.809L25.6 62.0989C25.3373 62.4382 24.966 62.9721 24.5777 63.1315C23.3528 63.5173 21.9744 63.6589 20.3102 63.8334C19.5289 63.8984 18.8547 63.8596 18.0264 64.0165C17.8441 64.0511 17.5901 64.1172 17.3906 64.164C17.3837 64.1655 17.3772 64.1675 17.3702 64.1691C17.3594 64.1716 17.3451 64.1769 17.3346 64.1793C15.9316 64.5183 15.0303 65.8079 15.3204 67.0785C15.6107 68.3494 16.9811 69.1223 18.3926 68.8181C18.4028 68.8157 18.4176 68.8153 18.4282 68.813C18.4441 68.8093 18.4582 68.8016 18.474 68.7977C18.6708 68.7545 18.9173 68.7065 19.0894 68.6604C19.9038 68.4424 20.4936 68.122 21.2257 67.8415C22.8008 67.2766 24.1053 66.8046 25.3762 66.6208C25.907 66.5792 26.4663 66.9483 26.7445 67.104L27.7821 66.9259C30.1699 74.3289 35.1739 80.3125 41.5103 84.0671L41.0779 85.1047C41.2338 85.5076 41.4056 86.0528 41.2896 86.4507C40.8275 87.6488 40.0361 88.9135 39.1349 90.3234C38.6986 90.9747 38.252 91.4802 37.8582 92.2257C37.764 92.404 37.644 92.678 37.5531 92.8666C36.9413 94.1756 37.39 95.6832 38.5653 96.249C39.7479 96.8183 41.2158 96.2179 41.8511 94.9062C41.852 94.9043 41.8552 94.903 41.8561 94.9011C41.8568 94.8996 41.8555 94.8975 41.8561 94.896C41.9466 94.7101 42.0748 94.4656 42.1512 94.2908C42.4884 93.5181 42.6006 92.856 42.8378 92.1087C43.4677 90.5266 43.8137 88.8666 44.6807 87.8322C44.9182 87.549 45.3052 87.44 45.7065 87.3326L46.2457 86.356C51.7696 88.4763 57.9528 89.0453 64.1295 87.6428C65.5385 87.3229 66.8988 86.9089 68.2138 86.4119C68.3654 86.6807 68.647 87.1974 68.7225 87.3275C69.1303 87.4602 69.5754 87.5287 69.9381 88.065C70.5868 89.1733 71.0304 90.4844 71.5709 92.068C71.8081 92.8153 71.9253 93.4774 72.2626 94.2501C72.3395 94.4262 72.467 94.674 72.5576 94.8604C73.1916 96.1764 74.6641 96.7789 75.8485 96.2083C77.0236 95.6422 77.4729 94.1347 76.8607 92.8259C76.7697 92.6374 76.6447 92.3634 76.5504 92.185C76.1566 91.4396 75.7101 90.9391 75.2738 90.2878C74.3725 88.8779 73.625 87.7067 73.1629 86.5086C72.9697 85.8906 73.1955 85.5063 73.346 85.1047C73.2559 85.0014 73.063 84.4178 72.9493 84.1434C79.5343 80.2553 84.3914 74.0485 86.6724 66.8802C86.9804 66.9286 87.5157 67.0233 87.6896 67.0582C88.0477 66.8221 88.3768 66.514 89.0223 66.5648C90.2932 66.7486 91.5977 67.2207 93.1728 67.7856C93.9049 68.066 94.4947 68.3915 95.3091 68.6096C95.4812 68.6556 95.7278 68.6986 95.9245 68.7418C95.9403 68.7457 95.9544 68.7534 95.9703 68.757C95.9809 68.7594 95.9957 68.7598 96.0059 68.7621C97.4175 69.066 98.7882 68.2936 99.0781 67.0226C99.3679 65.7519 98.467 64.462 97.0639 64.1233C96.8598 64.0769 96.5703 63.9981 96.3721 63.9606C95.5438 63.8037 94.8697 63.8424 94.0883 63.7775C92.4241 63.6031 91.0457 63.4613 89.8208 63.0755C89.3214 62.8818 88.9662 62.2876 88.7934 62.043L87.8321 61.7633C88.3305 58.1573 88.1961 54.4044 87.3336 50.6495C86.4631 46.8596 84.9246 43.3933 82.8728 40.3394C83.1194 40.1152 83.5851 39.7028 83.7172 39.5815C83.7558 39.1544 83.7226 38.7065 84.1648 38.2336C85.1009 37.3545 86.2812 36.6256 87.7049 35.7463C88.3806 35.3488 89.0053 35.0925 89.6835 34.5917C89.8369 34.4785 90.0463 34.2991 90.2074 34.1696C91.3493 33.2587 91.6122 31.6877 90.7923 30.6599C89.9725 29.6322 88.3839 29.5354 87.242 30.4463C87.0795 30.575 86.859 30.743 86.713 30.8685C86.074 31.4183 85.6793 31.9614 85.1414 32.5317C83.9674 33.7241 82.9971 34.7189 81.9318 35.4361C81.4702 35.7048 80.7941 35.6118 80.4873 35.5937L79.5819 36.2397C74.4192 30.8261 67.3901 27.3649 59.8213 26.6926C59.8001 26.3754 59.7724 25.802 59.7654 25.6295C59.4555 25.333 59.0812 25.0799 58.9871 24.4393C58.8836 23.1593 59.0565 21.7822 59.2567 20.1209C59.3672 19.3447 59.5509 18.7 59.5822 17.8575C59.5894 17.666 59.5779 17.3881 59.5772 17.181C59.577 15.7203 58.5114 14.5359 57.1967 14.5361ZM54.2161 32.9997L53.5091 45.4868L53.4582 45.5122C53.4108 46.6293 52.4914 47.5213 51.3626 47.5213C50.9002 47.5213 50.4735 47.3729 50.1266 47.1195L50.1063 47.1297L39.8674 39.8714C43.0142 36.7771 47.0393 34.4903 51.678 33.4371C52.5253 33.2447 53.3723 33.102 54.2161 32.9997ZM60.1824 32.9997C65.5982 33.6658 70.6067 36.1181 74.4447 39.8765L64.2719 47.089L64.2363 47.0737C63.3334 47.7332 62.0612 47.5696 61.3574 46.6872C61.0691 46.3257 60.9178 45.9006 60.8996 45.4715L60.8894 45.4665L60.1824 32.9997ZM36.1543 44.5356L45.5031 52.8977L45.4929 52.9485C46.3368 53.6821 46.4612 54.9551 45.7574 55.8376C45.4691 56.1991 45.0832 56.4416 44.6689 56.5548L44.6588 56.5955L32.6752 60.0542C32.0653 54.4771 33.3797 49.0556 36.1543 44.5356ZM78.173 44.5407C79.5621 46.7922 80.6139 49.3068 81.2401 52.033C81.8588 54.7264 82.0141 57.4151 81.7589 60.0135L69.7143 56.5446L69.7042 56.4937C68.6256 56.199 67.9628 55.1018 68.2139 54.0014C68.3167 53.5506 68.556 53.1692 68.8802 52.8875L68.8751 52.862L78.173 44.5407ZM55.2792 53.5436H59.1092L61.4896 56.5192L60.6351 60.2322L57.1967 61.8853L53.7481 60.2271L52.8936 56.5141L55.2792 53.5436ZM67.5577 63.7266C67.7205 63.7184 67.8825 63.733 68.0409 63.7622L68.0613 63.7368L80.4568 65.8324C78.6427 70.929 75.1714 75.3443 70.5333 78.2991L65.7215 66.6767L65.7368 66.6563C65.2948 65.6293 65.7371 64.4249 66.7541 63.9351C67.0144 63.8097 67.2864 63.7403 67.5577 63.7266ZM46.7391 63.7774C47.685 63.7907 48.5335 64.4473 48.7533 65.4102C48.8562 65.861 48.8061 66.3076 48.6363 66.7021L48.6719 66.7479L43.9111 78.2533C39.4599 75.397 35.9146 71.1203 34.018 65.8731L46.3068 63.7876L46.3271 63.8131C46.4646 63.7878 46.604 63.7756 46.7391 63.7774ZM57.1204 68.8181C57.4499 68.806 57.7843 68.8736 58.1021 69.0266C58.5187 69.2272 58.8405 69.5431 59.0431 69.9218H59.0889L65.1468 80.8677C64.3606 81.1313 63.5523 81.3565 62.7256 81.5442C58.0926 82.5962 53.4743 82.2774 49.2925 80.8525L55.3351 69.9269H55.3453C55.7079 69.2491 56.3955 68.8447 57.1204 68.8181Z" fill="white" stroke="white" stroke-width="0.25"/>
</g>
<defs>
<clipPath id="clip0_211_1892">
<rect width="115" height="111" fill="white"/>
</clipPath>
</defs>
</svg>
