<svg xmlns="http://www.w3.org/2000/svg" width="129" height="123" fill="none"><circle cx="67.071" cy="61.444" r="59.684" fill="#F0F0F0" stroke="#89929F" stroke-width="3"/><path stroke="#89929F" stroke-linecap="round" stroke-width="1.5" d="M21.55 100.351c30.98 2.459 58.077-20.525 60.522-51.335 1.482-18.666-6.06-34.632-19.411-45.882"/><path stroke="#89929F" stroke-linecap="round" stroke-width="1.5" d="M14.496 33.785C12.136 66.27 38.456 95.843 72.6 98.322c1.593.116 5.962.174 7.528.177 4.43-.177 17.611-2.407 26.618-7.151 6.626-3.49 12.932-7.15 17.831-12.737"/><path stroke="#89929F" stroke-linecap="round" stroke-width="1.5" d="M124.435 48.005c-17.949-24.123-55.678-26.834-83.084-6.443-16.604 12.353-26.685 30.356-27.493 48.08"/><circle cx="78.336" cy="27.893" r="5" fill="#89929F"/><circle cx="19.703" cy="66.052" r="5" fill="#89929F"/><circle cx="52.277" cy="93.973" r="5" fill="#89929F"/></svg>